%TF.GenerationSoftware,KiCad,Pcbnew,(6.0.7)*%
%TF.CreationDate,2022-08-05T17:10:29+02:00*%
%TF.ProjectId,C3_mini,43335f6d-696e-4692-9e6b-696361645f70,rev?*%
%TF.SameCoordinates,Original*%
%TF.FileFunction,Copper,L1,Top*%
%TF.FilePolarity,Positive*%
%FSLAX46Y46*%
G04 Gerber Fmt 4.6, Leading zero omitted, Abs format (unit mm)*
G04 Created by KiCad (PCBNEW (6.0.7)) date 2022-08-05 17:10:29*
%MOMM*%
%LPD*%
G01*
G04 APERTURE LIST*
G04 Aperture macros list*
%AMRoundRect*
0 Rectangle with rounded corners*
0 $1 Rounding radius*
0 $2 $3 $4 $5 $6 $7 $8 $9 X,Y pos of 4 corners*
0 Add a 4 corners polygon primitive as box body*
4,1,4,$2,$3,$4,$5,$6,$7,$8,$9,$2,$3,0*
0 Add four circle primitives for the rounded corners*
1,1,$1+$1,$2,$3*
1,1,$1+$1,$4,$5*
1,1,$1+$1,$6,$7*
1,1,$1+$1,$8,$9*
0 Add four rect primitives between the rounded corners*
20,1,$1+$1,$2,$3,$4,$5,0*
20,1,$1+$1,$4,$5,$6,$7,0*
20,1,$1+$1,$6,$7,$8,$9,0*
20,1,$1+$1,$8,$9,$2,$3,0*%
G04 Aperture macros list end*
%TA.AperFunction,SMDPad,CuDef*%
%ADD10RoundRect,0.140000X0.140000X0.170000X-0.140000X0.170000X-0.140000X-0.170000X0.140000X-0.170000X0*%
%TD*%
%TA.AperFunction,SMDPad,CuDef*%
%ADD11RoundRect,0.225000X-0.250000X0.225000X-0.250000X-0.225000X0.250000X-0.225000X0.250000X0.225000X0*%
%TD*%
%TA.AperFunction,SMDPad,CuDef*%
%ADD12RoundRect,0.135000X0.185000X-0.135000X0.185000X0.135000X-0.185000X0.135000X-0.185000X-0.135000X0*%
%TD*%
%TA.AperFunction,ComponentPad*%
%ADD13R,1.700000X1.700000*%
%TD*%
%TA.AperFunction,ComponentPad*%
%ADD14O,1.700000X1.700000*%
%TD*%
%TA.AperFunction,SMDPad,CuDef*%
%ADD15R,1.200000X0.700000*%
%TD*%
%TA.AperFunction,SMDPad,CuDef*%
%ADD16R,1.300000X1.100000*%
%TD*%
%TA.AperFunction,SMDPad,CuDef*%
%ADD17RoundRect,0.135000X0.135000X0.185000X-0.135000X0.185000X-0.135000X-0.185000X0.135000X-0.185000X0*%
%TD*%
%TA.AperFunction,SMDPad,CuDef*%
%ADD18RoundRect,0.150000X0.150000X-0.512500X0.150000X0.512500X-0.150000X0.512500X-0.150000X-0.512500X0*%
%TD*%
%TA.AperFunction,SMDPad,CuDef*%
%ADD19RoundRect,0.225000X-0.225000X-0.250000X0.225000X-0.250000X0.225000X0.250000X-0.225000X0.250000X0*%
%TD*%
%TA.AperFunction,SMDPad,CuDef*%
%ADD20RoundRect,0.062500X-0.375000X-0.062500X0.375000X-0.062500X0.375000X0.062500X-0.375000X0.062500X0*%
%TD*%
%TA.AperFunction,SMDPad,CuDef*%
%ADD21RoundRect,0.062500X-0.062500X-0.375000X0.062500X-0.375000X0.062500X0.375000X-0.062500X0.375000X0*%
%TD*%
%TA.AperFunction,SMDPad,CuDef*%
%ADD22R,3.450000X3.450000*%
%TD*%
%TA.AperFunction,SMDPad,CuDef*%
%ADD23R,1.400000X1.200000*%
%TD*%
%TA.AperFunction,ComponentPad*%
%ADD24R,0.900000X0.500000*%
%TD*%
%TA.AperFunction,ConnectorPad*%
%ADD25R,0.500000X0.500000*%
%TD*%
%TA.AperFunction,SMDPad,CuDef*%
%ADD26RoundRect,0.140000X-0.170000X0.140000X-0.170000X-0.140000X0.170000X-0.140000X0.170000X0.140000X0*%
%TD*%
%TA.AperFunction,SMDPad,CuDef*%
%ADD27RoundRect,0.218750X-0.256250X0.218750X-0.256250X-0.218750X0.256250X-0.218750X0.256250X0.218750X0*%
%TD*%
%TA.AperFunction,SMDPad,CuDef*%
%ADD28R,0.600000X1.160000*%
%TD*%
%TA.AperFunction,SMDPad,CuDef*%
%ADD29R,0.300000X1.160000*%
%TD*%
%TA.AperFunction,ComponentPad*%
%ADD30O,0.900000X2.000000*%
%TD*%
%TA.AperFunction,ComponentPad*%
%ADD31O,0.900000X1.700000*%
%TD*%
%TA.AperFunction,SMDPad,CuDef*%
%ADD32RoundRect,0.140000X-0.140000X-0.170000X0.140000X-0.170000X0.140000X0.170000X-0.140000X0.170000X0*%
%TD*%
%TA.AperFunction,SMDPad,CuDef*%
%ADD33RoundRect,0.140000X0.170000X-0.140000X0.170000X0.140000X-0.170000X0.140000X-0.170000X-0.140000X0*%
%TD*%
%TA.AperFunction,ViaPad*%
%ADD34C,0.800000*%
%TD*%
%TA.AperFunction,Conductor*%
%ADD35C,0.500000*%
%TD*%
%TA.AperFunction,Conductor*%
%ADD36C,0.200000*%
%TD*%
%TA.AperFunction,Conductor*%
%ADD37C,0.250000*%
%TD*%
%TA.AperFunction,Conductor*%
%ADD38C,0.400000*%
%TD*%
G04 APERTURE END LIST*
%TO.C,ANT1*%
G36*
X40675000Y-27800000D02*
G01*
X40675000Y-30440000D01*
X42675000Y-30440000D01*
X42675000Y-27800000D01*
X45375000Y-27800000D01*
X45375000Y-30440000D01*
X47375000Y-30440000D01*
X47375000Y-27800000D01*
X50075000Y-27800000D01*
X50075000Y-32240000D01*
X49575000Y-32240000D01*
X49575000Y-28300000D01*
X47875000Y-28300000D01*
X47875000Y-30940000D01*
X44875000Y-30940000D01*
X44875000Y-28300000D01*
X43175000Y-28300000D01*
X43175000Y-30940000D01*
X40175000Y-30940000D01*
X40175000Y-28300000D01*
X38475000Y-28300000D01*
X38475000Y-33200000D01*
X37975000Y-33200000D01*
X37975000Y-28300000D01*
X36575000Y-28300000D01*
X36575000Y-33200000D01*
X35675000Y-33200000D01*
X35675000Y-32956785D01*
X35977417Y-32956785D01*
X35987258Y-33004395D01*
X36011326Y-33046797D01*
X36049269Y-33079581D01*
X36057181Y-33083935D01*
X36099844Y-33096043D01*
X36148363Y-33095300D01*
X36193878Y-33082400D01*
X36212489Y-33071787D01*
X36246132Y-33036553D01*
X36266691Y-32991368D01*
X36273222Y-32941842D01*
X36264782Y-32893583D01*
X36247888Y-32861357D01*
X36212628Y-32828687D01*
X36167318Y-32808592D01*
X36117733Y-32802018D01*
X36069647Y-32809908D01*
X36036755Y-32826814D01*
X36001815Y-32863584D01*
X35982153Y-32908378D01*
X35977417Y-32956785D01*
X35675000Y-32956785D01*
X35675000Y-27800000D01*
X40675000Y-27800000D01*
G37*
%TD*%
D10*
%TO.P,C14,1*%
%TO.N,EN*%
X35805000Y-36925000D03*
%TO.P,C14,2*%
%TO.N,GND*%
X34845000Y-36925000D03*
%TD*%
D11*
%TO.P,C17,1*%
%TO.N,VBUS*%
X35700000Y-53100000D03*
%TO.P,C17,2*%
%TO.N,GND*%
X35700000Y-54650000D03*
%TD*%
D12*
%TO.P,R1,1*%
%TO.N,Net-(J1-PadA5)*%
X41725000Y-51810000D03*
%TO.P,R1,2*%
%TO.N,GND*%
X41725000Y-50790000D03*
%TD*%
D13*
%TO.P,J2,1,Pin_1*%
%TO.N,EN*%
X31575000Y-35350000D03*
D14*
%TO.P,J2,2,Pin_2*%
%TO.N,IO0*%
X31575000Y-37890000D03*
%TO.P,J2,3,Pin_3*%
%TO.N,IO1*%
X31575000Y-40430000D03*
%TO.P,J2,4,Pin_4*%
%TO.N,IO2*%
X31575000Y-42970000D03*
%TO.P,J2,5,Pin_5*%
%TO.N,IO3*%
X31575000Y-45510000D03*
%TO.P,J2,6,Pin_6*%
%TO.N,IO4*%
X31575000Y-48050000D03*
%TO.P,J2,7,Pin_7*%
%TO.N,IO5*%
X31575000Y-50590000D03*
%TO.P,J2,8,Pin_8*%
%TO.N,+3V3*%
X31575000Y-53130000D03*
%TD*%
D15*
%TO.P,SW1,1,1*%
%TO.N,EN*%
X35225000Y-56700000D03*
%TO.P,SW1,2,2*%
%TO.N,GND*%
X35225000Y-60100000D03*
D16*
%TO.P,SW1,3*%
%TO.N,N/C*%
X33275000Y-60500000D03*
%TO.P,SW1,4*%
X33275000Y-56300000D03*
%TD*%
D17*
%TO.P,R4,1*%
%TO.N,IO2*%
X35850000Y-45775000D03*
%TO.P,R4,2*%
%TO.N,+3V3*%
X34830000Y-45775000D03*
%TD*%
D18*
%TO.P,PS1,1,VIN*%
%TO.N,VBUS*%
X38250000Y-52487500D03*
%TO.P,PS1,2,GND*%
%TO.N,GND*%
X39200000Y-52487500D03*
%TO.P,PS1,3,CE*%
%TO.N,VBUS*%
X40150000Y-52487500D03*
%TO.P,PS1,4,NC*%
%TO.N,unconnected-(PS1-Pad4)*%
X40150000Y-50212500D03*
%TO.P,PS1,5,VOUT*%
%TO.N,+3V3*%
X38250000Y-50212500D03*
%TD*%
D17*
%TO.P,R3,1*%
%TO.N,+3V3*%
X35810000Y-35650000D03*
%TO.P,R3,2*%
%TO.N,EN*%
X34790000Y-35650000D03*
%TD*%
D19*
%TO.P,C18,1*%
%TO.N,+3V3*%
X38550000Y-48375000D03*
%TO.P,C18,2*%
%TO.N,GND*%
X40100000Y-48375000D03*
%TD*%
D10*
%TO.P,C16,1*%
%TO.N,Net-(C16-Pad1)*%
X38430000Y-39650000D03*
%TO.P,C16,2*%
%TO.N,GND*%
X37470000Y-39650000D03*
%TD*%
D20*
%TO.P,U1,1,LNA_IN*%
%TO.N,Net-(C16-Pad1)*%
X41962500Y-41725000D03*
%TO.P,U1,2,VDD3P3*%
%TO.N,+3V3*%
X41962500Y-42225000D03*
%TO.P,U1,3,VDD3P3*%
X41962500Y-42725000D03*
%TO.P,U1,4,XTAL_32K_P/ADC1_CH0*%
%TO.N,IO0*%
X41962500Y-43225000D03*
%TO.P,U1,5,XTAL_32K_N/ADC1_CH1*%
%TO.N,IO1*%
X41962500Y-43725000D03*
%TO.P,U1,6,GPIO2/ADC1_CH2*%
%TO.N,IO2*%
X41962500Y-44225000D03*
%TO.P,U1,7,CHIP_EN*%
%TO.N,EN*%
X41962500Y-44725000D03*
%TO.P,U1,8,GPIO3/ADC1_CH3*%
%TO.N,IO3*%
X41962500Y-45225000D03*
D21*
%TO.P,U1,9,MTMS/GPIO4/ADC1_CH4*%
%TO.N,IO4*%
X42650000Y-45912500D03*
%TO.P,U1,10,MTDI/GPIO5/ADC2_CH0*%
%TO.N,IO5*%
X43150000Y-45912500D03*
%TO.P,U1,11,VDD3P3_RTC*%
%TO.N,+3V3*%
X43650000Y-45912500D03*
%TO.P,U1,12,MTCK/GPIO6*%
%TO.N,IO6*%
X44150000Y-45912500D03*
%TO.P,U1,13,MTDO/GPIO7*%
%TO.N,IO7*%
X44650000Y-45912500D03*
%TO.P,U1,14,GPIO8*%
%TO.N,IO8*%
X45150000Y-45912500D03*
%TO.P,U1,15,GPIO9/BOOT*%
%TO.N,IO9*%
X45650000Y-45912500D03*
%TO.P,U1,16,GPIO10*%
%TO.N,IO10*%
X46150000Y-45912500D03*
D20*
%TO.P,U1,17,VDD3P3_CPU*%
%TO.N,+3V3*%
X46837500Y-45225000D03*
%TO.P,U1,18,VDD_SPI/GPIO11*%
%TO.N,VDD_SPI*%
X46837500Y-44725000D03*
%TO.P,U1,19,SPIHD/GPIO12*%
%TO.N,unconnected-(U1-Pad19)*%
X46837500Y-44225000D03*
%TO.P,U1,20,SPIWP/GPIO13*%
%TO.N,unconnected-(U1-Pad20)*%
X46837500Y-43725000D03*
%TO.P,U1,21,SPICS0/GPIO14*%
%TO.N,unconnected-(U1-Pad21)*%
X46837500Y-43225000D03*
%TO.P,U1,22,SPICLK/GPIO15*%
%TO.N,unconnected-(U1-Pad22)*%
X46837500Y-42725000D03*
%TO.P,U1,23,SPID/GPIO16*%
%TO.N,unconnected-(U1-Pad23)*%
X46837500Y-42225000D03*
%TO.P,U1,24,SPIQ/GPIO17*%
%TO.N,unconnected-(U1-Pad24)*%
X46837500Y-41725000D03*
D21*
%TO.P,U1,25,GPIO18/USB_D-*%
%TO.N,D-*%
X46150000Y-41037500D03*
%TO.P,U1,26,GPIO19/USB_D+*%
%TO.N,D+*%
X45650000Y-41037500D03*
%TO.P,U1,27,U0RXD/GPIO20*%
%TO.N,U0RXD*%
X45150000Y-41037500D03*
%TO.P,U1,28,U0TXD/GPIO21*%
%TO.N,U0TXD*%
X44650000Y-41037500D03*
%TO.P,U1,29,XTAL_N*%
%TO.N,Net-(C13-Pad2)*%
X44150000Y-41037500D03*
%TO.P,U1,30,XTAL_P*%
%TO.N,Net-(C12-Pad2)*%
X43650000Y-41037500D03*
%TO.P,U1,31,VDDA*%
%TO.N,+3V3*%
X43150000Y-41037500D03*
%TO.P,U1,32,VDDA*%
X42650000Y-41037500D03*
D22*
%TO.P,U1,33,GND*%
%TO.N,GND*%
X44400000Y-43475000D03*
%TD*%
D23*
%TO.P,Y1,1,1*%
%TO.N,Net-(C12-Pad2)*%
X44225000Y-38000000D03*
%TO.P,Y1,2,2*%
%TO.N,GND*%
X46425000Y-38000000D03*
%TO.P,Y1,3,3*%
%TO.N,Net-(C13-Pad2)*%
X46425000Y-36300000D03*
%TO.P,Y1,4,4*%
%TO.N,GND*%
X44225000Y-36300000D03*
%TD*%
D13*
%TO.P,J3,1,Pin_1*%
%TO.N,U0TXD*%
X53200000Y-35325000D03*
D14*
%TO.P,J3,2,Pin_2*%
%TO.N,U0RXD*%
X53200000Y-37865000D03*
%TO.P,J3,3,Pin_3*%
%TO.N,IO10*%
X53200000Y-40405000D03*
%TO.P,J3,4,Pin_4*%
%TO.N,IO8*%
X53200000Y-42945000D03*
%TO.P,J3,5,Pin_5*%
%TO.N,IO7*%
X53200000Y-45485000D03*
%TO.P,J3,6,Pin_6*%
%TO.N,IO6*%
X53200000Y-48025000D03*
%TO.P,J3,7,Pin_7*%
%TO.N,GND*%
X53200000Y-50565000D03*
%TO.P,J3,8,Pin_8*%
%TO.N,VBUS*%
X53200000Y-53105000D03*
%TD*%
D24*
%TO.P,ANT1,2,Shield*%
%TO.N,GND*%
X36125000Y-32950000D03*
D25*
%TO.P,ANT1,1,A*%
%TO.N,Net-(ANT1-Pad1)*%
X38225000Y-32950000D03*
%TD*%
D26*
%TO.P,C4,1*%
%TO.N,+3V3*%
X38600000Y-42845000D03*
%TO.P,C4,2*%
%TO.N,GND*%
X38600000Y-43805000D03*
%TD*%
D27*
%TO.P,LED1,1,K*%
%TO.N,GND*%
X49950000Y-58400000D03*
%TO.P,LED1,2,A*%
%TO.N,Net-(LED1-Pad2)*%
X49950000Y-59975000D03*
%TD*%
D12*
%TO.P,R5,1*%
%TO.N,Net-(LED1-Pad2)*%
X48600000Y-60510000D03*
%TO.P,R5,2*%
%TO.N,IO7*%
X48600000Y-59490000D03*
%TD*%
D26*
%TO.P,C12,1*%
%TO.N,GND*%
X42700000Y-37070000D03*
%TO.P,C12,2*%
%TO.N,Net-(C12-Pad2)*%
X42700000Y-38030000D03*
%TD*%
D12*
%TO.P,R2,1*%
%TO.N,Net-(J1-PadB5)*%
X45675000Y-51910000D03*
%TO.P,R2,2*%
%TO.N,GND*%
X45675000Y-50890000D03*
%TD*%
D28*
%TO.P,J1,A1,GND*%
%TO.N,GND*%
X39600000Y-54615000D03*
%TO.P,J1,A4,VBUS*%
%TO.N,VBUS*%
X40400000Y-54615000D03*
D29*
%TO.P,J1,A5,CC1*%
%TO.N,Net-(J1-PadA5)*%
X41550000Y-54615000D03*
%TO.P,J1,A6,D+*%
%TO.N,D+*%
X42550000Y-54615000D03*
%TO.P,J1,A7,D-*%
%TO.N,D-*%
X43050000Y-54615000D03*
%TO.P,J1,A8,SBU1*%
%TO.N,unconnected-(J1-PadA8)*%
X44050000Y-54615000D03*
D28*
%TO.P,J1,A9,VBUS*%
%TO.N,VBUS*%
X45200000Y-54615000D03*
%TO.P,J1,A12,GND*%
%TO.N,GND*%
X46000000Y-54615000D03*
%TO.P,J1,B1,GND*%
X46000000Y-54615000D03*
%TO.P,J1,B4,VBUS*%
%TO.N,VBUS*%
X45200000Y-54615000D03*
D29*
%TO.P,J1,B5,CC2*%
%TO.N,Net-(J1-PadB5)*%
X44550000Y-54615000D03*
%TO.P,J1,B6,D+*%
%TO.N,D+*%
X43550000Y-54615000D03*
%TO.P,J1,B7,D-*%
%TO.N,D-*%
X42050000Y-54615000D03*
%TO.P,J1,B8,SBU2*%
%TO.N,unconnected-(J1-PadB8)*%
X41050000Y-54615000D03*
D28*
%TO.P,J1,B9,VBUS*%
%TO.N,VBUS*%
X40400000Y-54615000D03*
%TO.P,J1,B12,GND*%
%TO.N,GND*%
X39600000Y-54615000D03*
D30*
%TO.P,J1,S1,SHIELD*%
X38480000Y-55195000D03*
X47120000Y-55195000D03*
D31*
X47120000Y-59365000D03*
X38480000Y-59365000D03*
%TD*%
D11*
%TO.P,C3,1*%
%TO.N,+3V3*%
X37200000Y-41825000D03*
%TO.P,C3,2*%
%TO.N,GND*%
X37200000Y-43375000D03*
%TD*%
D10*
%TO.P,C15,1*%
%TO.N,Net-(ANT1-Pad1)*%
X38230000Y-35600000D03*
%TO.P,C15,2*%
%TO.N,GND*%
X37270000Y-35600000D03*
%TD*%
%TO.P,C1,1*%
%TO.N,+3V3*%
X41580000Y-37150000D03*
%TO.P,C1,2*%
%TO.N,GND*%
X40620000Y-37150000D03*
%TD*%
D15*
%TO.P,SW2,1,1*%
%TO.N,IO9*%
X52100000Y-60125000D03*
%TO.P,SW2,2,2*%
%TO.N,GND*%
X52100000Y-56725000D03*
D16*
%TO.P,SW2,3*%
%TO.N,N/C*%
X54050000Y-56325000D03*
%TO.P,SW2,4*%
X54050000Y-60525000D03*
%TD*%
D32*
%TO.P,C11,1*%
%TO.N,VDD_SPI*%
X48320000Y-44125000D03*
%TO.P,C11,2*%
%TO.N,GND*%
X49280000Y-44125000D03*
%TD*%
%TO.P,C8,1*%
%TO.N,+3V3*%
X48320000Y-45150000D03*
%TO.P,C8,2*%
%TO.N,GND*%
X49280000Y-45150000D03*
%TD*%
D26*
%TO.P,C7,1*%
%TO.N,+3V3*%
X43500000Y-47520000D03*
%TO.P,C7,2*%
%TO.N,GND*%
X43500000Y-48480000D03*
%TD*%
%TO.P,C6,1*%
%TO.N,+3V3*%
X39675000Y-42795000D03*
%TO.P,C6,2*%
%TO.N,GND*%
X39675000Y-43755000D03*
%TD*%
D27*
%TO.P,L1,1,1*%
%TO.N,Net-(ANT1-Pad1)*%
X38150000Y-36812500D03*
%TO.P,L1,2,2*%
%TO.N,Net-(C16-Pad1)*%
X38150000Y-38387500D03*
%TD*%
D17*
%TO.P,R6,1*%
%TO.N,IO8*%
X49285000Y-46250000D03*
%TO.P,R6,2*%
%TO.N,+3V3*%
X48265000Y-46250000D03*
%TD*%
D10*
%TO.P,C5,1*%
%TO.N,+3V3*%
X41580000Y-38550000D03*
%TO.P,C5,2*%
%TO.N,GND*%
X40620000Y-38550000D03*
%TD*%
D33*
%TO.P,C13,1*%
%TO.N,GND*%
X47900000Y-38030000D03*
%TO.P,C13,2*%
%TO.N,Net-(C13-Pad2)*%
X47900000Y-37070000D03*
%TD*%
D34*
%TO.N,GND*%
X37125000Y-56000000D03*
X48400000Y-33950000D03*
X41350000Y-34725000D03*
X41000000Y-40900000D03*
X49200000Y-54100000D03*
X44875000Y-34825000D03*
X41425000Y-47925000D03*
X37350000Y-33850000D03*
X41350000Y-33900000D03*
X45775000Y-34825000D03*
X39375000Y-37225000D03*
X37100000Y-36275000D03*
X49300000Y-33950000D03*
X40100000Y-40600000D03*
X39550000Y-33875000D03*
X35050000Y-34725000D03*
X47700000Y-51400000D03*
X37400000Y-34650000D03*
X48450000Y-34900000D03*
X45750000Y-33950000D03*
X40800000Y-39900000D03*
X46675000Y-34825000D03*
X42200000Y-35400000D03*
X48700000Y-43200000D03*
X49325000Y-34900000D03*
X47575000Y-34850000D03*
X39025000Y-41950000D03*
X43700000Y-42700000D03*
X44000000Y-34800000D03*
X43100000Y-34800000D03*
X40450000Y-34700000D03*
X43125000Y-33925000D03*
X44875000Y-33950000D03*
X39350000Y-38125000D03*
X37075000Y-38700000D03*
X47500000Y-33975000D03*
X50175000Y-33925000D03*
X40200000Y-36300000D03*
X34950000Y-33900000D03*
X44000000Y-33950000D03*
X37100000Y-37575000D03*
X38150000Y-41075000D03*
X39525000Y-34700000D03*
X39450000Y-39075000D03*
X37225000Y-40625000D03*
X39475000Y-39925000D03*
X42225000Y-33925000D03*
X40450000Y-33825000D03*
X46625000Y-33950000D03*
X36400000Y-40000000D03*
X39300000Y-36400000D03*
%TO.N,+3V3*%
X42450000Y-48000000D03*
X36300000Y-34750000D03*
X41300000Y-36100000D03*
X47500000Y-47300000D03*
X35925000Y-41400000D03*
X34750000Y-44225000D03*
%TO.N,EN*%
X34825000Y-46875000D03*
X35675000Y-37825000D03*
X35150000Y-55725000D03*
%TO.N,VBUS*%
X37025000Y-53100000D03*
X46700000Y-51700000D03*
X41800000Y-49700000D03*
%TO.N,D+*%
X48600000Y-40400000D03*
X44400000Y-50100000D03*
%TO.N,D-*%
X43285003Y-50410017D03*
X43700000Y-51800000D03*
X48800000Y-41400000D03*
%TO.N,IO8*%
X48650000Y-47175000D03*
X50700000Y-41900000D03*
%TO.N,IO7*%
X48400000Y-49900000D03*
X48525000Y-58425000D03*
%TO.N,IO9*%
X45900000Y-47700000D03*
X51075000Y-58425000D03*
%TD*%
D35*
%TO.N,Net-(ANT1-Pad1)*%
X38250000Y-32975000D02*
X38250000Y-36675000D01*
X38225000Y-32950000D02*
X38250000Y-32975000D01*
X38250000Y-36675000D02*
X38225000Y-36700000D01*
D36*
%TO.N,GND*%
X38800000Y-53600000D02*
X38890000Y-53690000D01*
X36400000Y-40000000D02*
X37120000Y-40000000D01*
X48550000Y-37380330D02*
X48550000Y-35950000D01*
X51500000Y-56700000D02*
X49800000Y-58400000D01*
X48700000Y-43545000D02*
X49280000Y-44125000D01*
X39475000Y-52487500D02*
X39475000Y-53565000D01*
X52100000Y-56525000D02*
X52100000Y-56700000D01*
X39625000Y-43805000D02*
X39675000Y-43755000D01*
X48550000Y-35950000D02*
X48000000Y-35400000D01*
X38480000Y-59365000D02*
X38480000Y-54270000D01*
X41725000Y-50775000D02*
X43600000Y-48900000D01*
X47700000Y-51400000D02*
X47300000Y-51000000D01*
X36125000Y-54650000D02*
X36625000Y-54650000D01*
X37200000Y-43375000D02*
X36825000Y-43375000D01*
X34920000Y-39430000D02*
X34850000Y-39500000D01*
X54800000Y-53825000D02*
X52100000Y-56525000D01*
X47120000Y-54270000D02*
X46580000Y-54270000D01*
X47120000Y-54270000D02*
X47120000Y-58440000D01*
D37*
X46000000Y-54615000D02*
X46235000Y-54615000D01*
D36*
X37630000Y-43805000D02*
X37200000Y-43375000D01*
X42700000Y-35900000D02*
X42700000Y-37300000D01*
X38890000Y-53690000D02*
X39600000Y-53690000D01*
X39475000Y-53565000D02*
X39600000Y-53690000D01*
X49280000Y-45150000D02*
X49280000Y-44125000D01*
X40800000Y-39900000D02*
X40850000Y-39850000D01*
X36825000Y-43375000D02*
X34200000Y-40750000D01*
X43100000Y-35500000D02*
X42700000Y-35900000D01*
X47300000Y-51000000D02*
X45750000Y-51000000D01*
X43650000Y-48850000D02*
X43600000Y-48900000D01*
X49030000Y-54270000D02*
X49200000Y-54100000D01*
X40975000Y-48375000D02*
X41425000Y-47925000D01*
D37*
X47900000Y-37900000D02*
X47900000Y-37825000D01*
D36*
X54800000Y-52165000D02*
X54800000Y-53825000D01*
X40100000Y-48375000D02*
X40975000Y-48375000D01*
D37*
X40620000Y-39720000D02*
X40800000Y-39900000D01*
D36*
X53200000Y-50565000D02*
X54800000Y-52165000D01*
D37*
X40620000Y-37150000D02*
X40620000Y-38550000D01*
D36*
X34200000Y-40150000D02*
X34850000Y-39500000D01*
X47900000Y-37800000D02*
X48130330Y-37800000D01*
X37120000Y-40000000D02*
X37470000Y-39650000D01*
D37*
X43500000Y-48480000D02*
X43500000Y-48800000D01*
D36*
X48130330Y-37800000D02*
X48550000Y-37380330D01*
X38480000Y-53920000D02*
X38800000Y-53600000D01*
X45675000Y-50890000D02*
X45600000Y-50815000D01*
X49800000Y-58400000D02*
X47120000Y-55720000D01*
X36625000Y-54650000D02*
X37125000Y-55150000D01*
X35700000Y-60100000D02*
X37745000Y-60100000D01*
D37*
X47400000Y-38400000D02*
X47900000Y-37900000D01*
X40620000Y-38550000D02*
X40620000Y-39720000D01*
X43500000Y-48800000D02*
X43600000Y-48900000D01*
D36*
X47120000Y-55720000D02*
X47120000Y-54270000D01*
X52100000Y-56700000D02*
X51500000Y-56700000D01*
X43200000Y-35400000D02*
X43100000Y-35500000D01*
X34200000Y-40750000D02*
X34200000Y-40150000D01*
X42700000Y-35900000D02*
X42200000Y-35400000D01*
D37*
X44200000Y-36600000D02*
X43100000Y-35500000D01*
D36*
X37125000Y-55150000D02*
X37125000Y-56000000D01*
X39600000Y-53690000D02*
X39600000Y-54615000D01*
X48000000Y-35400000D02*
X43200000Y-35400000D01*
X38480000Y-54270000D02*
X38480000Y-53920000D01*
D37*
X46400000Y-38400000D02*
X47400000Y-38400000D01*
D36*
X38600000Y-43805000D02*
X39625000Y-43805000D01*
X38600000Y-43805000D02*
X37630000Y-43805000D01*
X34920000Y-36800000D02*
X34920000Y-39430000D01*
X44175000Y-48850000D02*
X43650000Y-48850000D01*
X47120000Y-54270000D02*
X49030000Y-54270000D01*
X48700000Y-43200000D02*
X48700000Y-43545000D01*
X37745000Y-60100000D02*
X38480000Y-59365000D01*
X45600000Y-50815000D02*
X45600000Y-50275000D01*
X36400000Y-40000000D02*
X36400000Y-39900000D01*
D37*
X46235000Y-54615000D02*
X46580000Y-54270000D01*
D36*
X45600000Y-50275000D02*
X44175000Y-48850000D01*
%TO.N,+3V3*%
X38600000Y-42845000D02*
X39625000Y-42845000D01*
X41275000Y-49175000D02*
X39287500Y-49175000D01*
X41962500Y-42725000D02*
X39745000Y-42725000D01*
X41962500Y-42225000D02*
X41962500Y-42725000D01*
D37*
X42650000Y-41162500D02*
X43150000Y-41162500D01*
D36*
X43650000Y-46550000D02*
X43650000Y-46037500D01*
X48245000Y-45225000D02*
X48320000Y-45150000D01*
X36775000Y-41400000D02*
X37200000Y-41825000D01*
X41350000Y-36150000D02*
X41350000Y-37150000D01*
X43500000Y-47520000D02*
X42930000Y-47520000D01*
X38220000Y-42845000D02*
X37200000Y-41825000D01*
D37*
X42650000Y-41162500D02*
X42650000Y-40650000D01*
D36*
X47500000Y-47110050D02*
X48410050Y-46200000D01*
X47500000Y-47300000D02*
X47500000Y-47110050D01*
X43600000Y-46600000D02*
X43600000Y-47420000D01*
X48410050Y-46200000D02*
X48550000Y-46200000D01*
X34830000Y-45775000D02*
X34830000Y-44305000D01*
X35292500Y-50212500D02*
X32400000Y-53105000D01*
X38550000Y-48375000D02*
X38550000Y-48437500D01*
X36300000Y-35410000D02*
X35910000Y-35800000D01*
D37*
X41375000Y-39375000D02*
X41375000Y-38550000D01*
D36*
X43600000Y-47420000D02*
X43500000Y-47520000D01*
X41350000Y-38550000D02*
X41350000Y-37150000D01*
X38600000Y-42845000D02*
X38220000Y-42845000D01*
X38250000Y-50212500D02*
X39287500Y-49175000D01*
X38550000Y-48437500D02*
X39287500Y-49175000D01*
D37*
X42650000Y-40650000D02*
X41375000Y-39375000D01*
D36*
X42450000Y-48000000D02*
X41275000Y-49175000D01*
X41300000Y-36100000D02*
X41350000Y-36150000D01*
X36300000Y-34750000D02*
X36300000Y-35410000D01*
D37*
X48500000Y-45350000D02*
X48525000Y-45375000D01*
X48525000Y-45375000D02*
X48525000Y-45400000D01*
D36*
X35925000Y-41400000D02*
X36775000Y-41400000D01*
X38250000Y-50212500D02*
X35292500Y-50212500D01*
X46837500Y-45225000D02*
X48245000Y-45225000D01*
X48550000Y-45400000D02*
X48550000Y-46200000D01*
X39625000Y-42845000D02*
X39675000Y-42795000D01*
X43600000Y-46600000D02*
X43650000Y-46550000D01*
X42930000Y-47520000D02*
X42450000Y-48000000D01*
X39745000Y-42725000D02*
X39675000Y-42795000D01*
%TO.N,VDD_SPI*%
X46837500Y-44725000D02*
X47720000Y-44725000D01*
X47720000Y-44725000D02*
X48320000Y-44125000D01*
D37*
%TO.N,Net-(C12-Pad2)*%
X44200000Y-38400000D02*
X43100000Y-38400000D01*
X43650000Y-41162500D02*
X43650000Y-38950000D01*
X43100000Y-38400000D02*
X42700000Y-38000000D01*
X43650000Y-38950000D02*
X44200000Y-38400000D01*
D36*
%TO.N,Net-(C13-Pad2)*%
X47130000Y-36300000D02*
X47900000Y-37070000D01*
D37*
X44425000Y-38925000D02*
X45050000Y-38925000D01*
X45075000Y-38950000D02*
X45375000Y-38650000D01*
X45050000Y-38925000D02*
X45075000Y-38950000D01*
D36*
X46425000Y-36300000D02*
X47130000Y-36300000D01*
D37*
X44150000Y-41162500D02*
X44150000Y-39200000D01*
X45775000Y-36300000D02*
X46425000Y-36300000D01*
X45375000Y-36700000D02*
X45775000Y-36300000D01*
X45375000Y-38650000D02*
X45375000Y-36700000D01*
X44150000Y-39200000D02*
X44425000Y-38925000D01*
D36*
%TO.N,EN*%
X41500000Y-44725000D02*
X41962500Y-44725000D01*
X35650000Y-36500000D02*
X35400000Y-36250000D01*
X35125000Y-47175000D02*
X36250000Y-47175000D01*
X35150000Y-55725000D02*
X35150000Y-56625000D01*
X35675000Y-37825000D02*
X35650000Y-37800000D01*
X41225000Y-45000000D02*
X41500000Y-44725000D01*
X40950000Y-45725000D02*
X41225000Y-45450000D01*
X35150000Y-56625000D02*
X35225000Y-56700000D01*
X34675000Y-35325000D02*
X32400000Y-35325000D01*
X35150000Y-35800000D02*
X34675000Y-35325000D01*
X35250000Y-36250000D02*
X35150000Y-36150000D01*
X37700000Y-45725000D02*
X40950000Y-45725000D01*
X35400000Y-36250000D02*
X35250000Y-36250000D01*
X35150000Y-36150000D02*
X35150000Y-35800000D01*
X34825000Y-46875000D02*
X35125000Y-47175000D01*
X36250000Y-47175000D02*
X37700000Y-45725000D01*
X41225000Y-45450000D02*
X41225000Y-45000000D01*
X35650000Y-37800000D02*
X35650000Y-36500000D01*
D35*
%TO.N,Net-(C16-Pad1)*%
X38430000Y-39650000D02*
X38430000Y-38667500D01*
D38*
X38985028Y-40785028D02*
X39222346Y-41022346D01*
D36*
X41962500Y-41725000D02*
X40918702Y-41725000D01*
D35*
X38430000Y-38667500D02*
X38150000Y-38387500D01*
D38*
X40918702Y-41725001D02*
G75*
G02*
X39222346Y-41022346I-2J2399001D01*
G01*
X38985009Y-40785047D02*
G75*
G02*
X38464212Y-39527657I1257391J1257347D01*
G01*
D36*
%TO.N,VBUS*%
X37637500Y-52487500D02*
X37025000Y-53100000D01*
X40150000Y-52487500D02*
X40975000Y-51662500D01*
X40975000Y-51662500D02*
X40975000Y-50050000D01*
X41325000Y-49700000D02*
X41800000Y-49700000D01*
X46600000Y-52400000D02*
X46475000Y-52400000D01*
X45200000Y-53675000D02*
X45200000Y-54615000D01*
X38525000Y-52487500D02*
X37637500Y-52487500D01*
X40150000Y-52487500D02*
X40400000Y-52737500D01*
X40975000Y-50050000D02*
X41325000Y-49700000D01*
X52495000Y-52400000D02*
X53200000Y-53105000D01*
X46600000Y-52400000D02*
X52495000Y-52400000D01*
X37025000Y-53100000D02*
X36125000Y-53100000D01*
X46700000Y-52300000D02*
X46600000Y-52400000D01*
X46700000Y-51700000D02*
X46700000Y-52300000D01*
X40400000Y-52737500D02*
X40400000Y-54615000D01*
X46475000Y-52400000D02*
X45200000Y-53675000D01*
D37*
%TO.N,Net-(J1-PadA5)*%
X41550000Y-54615000D02*
X41550000Y-51985000D01*
X41550000Y-51985000D02*
X41725000Y-51810000D01*
D36*
%TO.N,D+*%
X44500000Y-51100000D02*
X44800000Y-51100000D01*
X43550000Y-52960000D02*
X43550000Y-54615000D01*
X45650000Y-41037500D02*
X45650000Y-40175000D01*
X44400000Y-51000000D02*
X44500000Y-51100000D01*
X44800000Y-51100000D02*
X45000000Y-51300000D01*
X43400000Y-51100000D02*
X43000000Y-51500000D01*
X45000000Y-51300000D02*
X45000000Y-51673960D01*
X44400000Y-50100000D02*
X44400000Y-51000000D01*
X45000000Y-51673960D02*
X43863960Y-52810000D01*
X47900000Y-39725000D02*
X48575000Y-40400000D01*
X43000000Y-51500000D02*
X43000000Y-52166725D01*
X46100000Y-39725000D02*
X47900000Y-39725000D01*
X45650000Y-40175000D02*
X46100000Y-39725000D01*
X43700000Y-52810000D02*
X43550000Y-52960000D01*
X44500000Y-51100000D02*
X43400000Y-51100000D01*
X48575000Y-40400000D02*
X48600000Y-40400000D01*
X42550000Y-52616726D02*
X42550000Y-54615000D01*
X43863960Y-52810000D02*
X43700000Y-52810000D01*
X43000000Y-52166725D02*
X42550000Y-52616726D01*
%TO.N,D-*%
X48562500Y-41162500D02*
X48800000Y-41400000D01*
X42600000Y-52001040D02*
X42050000Y-52551040D01*
X42600000Y-51095020D02*
X42600000Y-52001040D01*
X43050000Y-52750000D02*
X43050000Y-54615000D01*
X46150000Y-41162500D02*
X48562500Y-41162500D01*
X43700000Y-52100000D02*
X43050000Y-52750000D01*
X43285003Y-50410017D02*
X42600000Y-51095020D01*
X42050000Y-52551040D02*
X42050000Y-54615000D01*
X43700000Y-51800000D02*
X43700000Y-52100000D01*
D37*
%TO.N,Net-(J1-PadB5)*%
X44550000Y-52725000D02*
X45365000Y-51910000D01*
X45365000Y-51910000D02*
X45675000Y-51910000D01*
X44550000Y-52725000D02*
X44550000Y-54615000D01*
D36*
%TO.N,IO0*%
X33800000Y-41000000D02*
X33800000Y-39265000D01*
X41225000Y-43225000D02*
X39925000Y-44525000D01*
X36275000Y-44050000D02*
X36275000Y-43475000D01*
X33800000Y-39265000D02*
X32400000Y-37865000D01*
X36275000Y-43475000D02*
X33800000Y-41000000D01*
X39925000Y-44525000D02*
X36750000Y-44525000D01*
X41962500Y-43225000D02*
X41225000Y-43225000D01*
X36750000Y-44525000D02*
X36275000Y-44050000D01*
%TO.N,IO1*%
X34625000Y-42450000D02*
X33700000Y-42450000D01*
X35875000Y-43700000D02*
X34625000Y-42450000D01*
X41962500Y-43725000D02*
X41350000Y-43725000D01*
X35875000Y-44250000D02*
X35875000Y-43700000D01*
X36550000Y-44925000D02*
X35875000Y-44250000D01*
X33700000Y-42450000D02*
X32400000Y-41150000D01*
X40150000Y-44925000D02*
X36550000Y-44925000D01*
X41350000Y-43725000D02*
X40150000Y-44925000D01*
X32400000Y-41150000D02*
X32400000Y-40405000D01*
%TO.N,IO2*%
X37075000Y-45775000D02*
X37525000Y-45325000D01*
X40825000Y-44825000D02*
X41425000Y-44225000D01*
X35475000Y-43925000D02*
X35475000Y-44500000D01*
X41425000Y-44225000D02*
X41962500Y-44225000D01*
X34495000Y-42945000D02*
X35475000Y-43925000D01*
X40825000Y-45175000D02*
X40825000Y-44825000D01*
X35850000Y-44875000D02*
X35850000Y-45775000D01*
X35850000Y-45775000D02*
X37075000Y-45775000D01*
X35475000Y-44500000D02*
X35850000Y-44875000D01*
X40675000Y-45325000D02*
X40825000Y-45175000D01*
X32400000Y-42945000D02*
X34495000Y-42945000D01*
X37525000Y-45325000D02*
X40675000Y-45325000D01*
%TO.N,IO3*%
X41187500Y-46125000D02*
X41962500Y-45350000D01*
X34515000Y-47600000D02*
X36450000Y-47600000D01*
X37925000Y-46125000D02*
X41187500Y-46125000D01*
X32400000Y-45485000D02*
X34515000Y-47600000D01*
X36450000Y-47600000D02*
X37925000Y-46125000D01*
%TO.N,IO4*%
X42137500Y-46550000D02*
X42650000Y-46037500D01*
X36750000Y-48025000D02*
X38225000Y-46550000D01*
X38225000Y-46550000D02*
X42137500Y-46550000D01*
X32400000Y-48025000D02*
X36750000Y-48025000D01*
%TO.N,IO5*%
X32400000Y-50565000D02*
X34285000Y-50565000D01*
X34285000Y-50565000D02*
X35100000Y-49750000D01*
X37050000Y-49750000D02*
X37225000Y-49575000D01*
X37225000Y-49575000D02*
X37225000Y-48175000D01*
X42800000Y-47000000D02*
X42912500Y-46887500D01*
X42912500Y-46887500D02*
X43200000Y-46600000D01*
X37225000Y-48175000D02*
X38400000Y-47000000D01*
X38400000Y-47000000D02*
X42800000Y-47000000D01*
X43200000Y-46600000D02*
X43200000Y-46087500D01*
X35100000Y-49750000D02*
X37050000Y-49750000D01*
X43200000Y-46087500D02*
X43150000Y-46037500D01*
%TO.N,U0TXD*%
X50075000Y-35325000D02*
X53200000Y-35325000D01*
X49000000Y-36400000D02*
X50075000Y-35325000D01*
X45750000Y-38900000D02*
X47575000Y-38900000D01*
X47850000Y-38625000D02*
X48809314Y-38625000D01*
X49000000Y-38434314D02*
X49000000Y-36400000D01*
X44650000Y-39600000D02*
X45050000Y-39600000D01*
X45050000Y-39600000D02*
X45750000Y-38900000D01*
X48809314Y-38625000D02*
X49000000Y-38434314D01*
X44650000Y-41162500D02*
X44650000Y-39600000D01*
X47575000Y-38900000D02*
X47850000Y-38625000D01*
%TO.N,U0RXD*%
X45950000Y-39300000D02*
X47800000Y-39300000D01*
X49635000Y-37865000D02*
X53200000Y-37865000D01*
X49400000Y-38625000D02*
X49400000Y-38100000D01*
X47800000Y-39300000D02*
X48075000Y-39025000D01*
X48075000Y-39025000D02*
X49000000Y-39025000D01*
X49000000Y-39025000D02*
X49400000Y-38625000D01*
X49400000Y-38100000D02*
X49635000Y-37865000D01*
X45150000Y-40100000D02*
X45950000Y-39300000D01*
X45150000Y-41037500D02*
X45150000Y-40100000D01*
%TO.N,IO10*%
X48900000Y-48100000D02*
X50000000Y-47000000D01*
X46150000Y-46950000D02*
X47300000Y-48100000D01*
X46150000Y-46037500D02*
X46150000Y-46950000D01*
X50805000Y-40405000D02*
X53200000Y-40405000D01*
X50800000Y-40400000D02*
X50805000Y-40405000D01*
X47300000Y-48100000D02*
X48900000Y-48100000D01*
X50000000Y-47000000D02*
X50000000Y-41200000D01*
X50000000Y-41200000D02*
X50800000Y-40400000D01*
%TO.N,IO8*%
X51055000Y-42255000D02*
X50700000Y-41900000D01*
X45931372Y-48800000D02*
X45150000Y-48018628D01*
X49285000Y-46540000D02*
X49285000Y-46250000D01*
X50400000Y-47400000D02*
X49000000Y-48800000D01*
X51055000Y-42945000D02*
X51055000Y-42255000D01*
X49000000Y-48800000D02*
X45931372Y-48800000D01*
X53200000Y-42945000D02*
X51055000Y-42945000D01*
X51055000Y-42945000D02*
X50400000Y-43600000D01*
X45150000Y-48018628D02*
X45150000Y-46037500D01*
X50400000Y-43600000D02*
X50400000Y-47400000D01*
X48650000Y-47175000D02*
X49285000Y-46540000D01*
%TO.N,IO7*%
X48600000Y-59490000D02*
X48600000Y-58500000D01*
X49100000Y-49200000D02*
X45765686Y-49200000D01*
X48600000Y-58500000D02*
X48525000Y-58425000D01*
X50800000Y-46000000D02*
X50800000Y-47800000D01*
X48400000Y-49900000D02*
X49100000Y-49200000D01*
X45765686Y-49200000D02*
X44650000Y-48084313D01*
X44650000Y-48084313D02*
X44650000Y-46037500D01*
X50800000Y-47800000D02*
X49400000Y-49200000D01*
X49400000Y-49200000D02*
X49100000Y-49200000D01*
X51315000Y-45485000D02*
X50800000Y-46000000D01*
X53200000Y-45485000D02*
X51315000Y-45485000D01*
%TO.N,IO6*%
X52675000Y-48025000D02*
X50100000Y-50600000D01*
X53200000Y-48025000D02*
X52675000Y-48025000D01*
X44150000Y-48150000D02*
X44150000Y-46037500D01*
X46600000Y-50600000D02*
X44150000Y-48150000D01*
X50100000Y-50600000D02*
X46600000Y-50600000D01*
%TO.N,Net-(LED1-Pad2)*%
X49265000Y-60510000D02*
X49800000Y-59975000D01*
X48600000Y-60510000D02*
X49265000Y-60510000D01*
%TO.N,IO9*%
X45650000Y-47450000D02*
X45900000Y-47700000D01*
X51075000Y-59100000D02*
X52100000Y-60125000D01*
X51075000Y-58425000D02*
X51075000Y-59100000D01*
X45650000Y-46037500D02*
X45650000Y-47450000D01*
%TD*%
%TA.AperFunction,Conductor*%
%TO.N,GND*%
G36*
X37415680Y-50841002D02*
G01*
X37462173Y-50894658D01*
X37468556Y-50911847D01*
X37487565Y-50977275D01*
X37490855Y-50988601D01*
X37494892Y-50995427D01*
X37571509Y-51124980D01*
X37571511Y-51124983D01*
X37575547Y-51131807D01*
X37693193Y-51249453D01*
X37697002Y-51251706D01*
X37737655Y-51307996D01*
X37741506Y-51378888D01*
X37706418Y-51440609D01*
X37698724Y-51447276D01*
X37693193Y-51450547D01*
X37575547Y-51568193D01*
X37571511Y-51575017D01*
X37571509Y-51575020D01*
X37536453Y-51634297D01*
X37490855Y-51711399D01*
X37488644Y-51719010D01*
X37488643Y-51719012D01*
X37448879Y-51855883D01*
X37410666Y-51915718D01*
X37376101Y-51937139D01*
X37330624Y-51955976D01*
X37310006Y-51971797D01*
X37235437Y-52029015D01*
X37235421Y-52029029D01*
X37210066Y-52048484D01*
X37210063Y-52048487D01*
X37203513Y-52053513D01*
X37198483Y-52060068D01*
X37184048Y-52078879D01*
X37173181Y-52091270D01*
X37109856Y-52154595D01*
X37047544Y-52188621D01*
X37020761Y-52191500D01*
X36929513Y-52191500D01*
X36923061Y-52192872D01*
X36923056Y-52192872D01*
X36844651Y-52209538D01*
X36742712Y-52231206D01*
X36736682Y-52233891D01*
X36736681Y-52233891D01*
X36574278Y-52306197D01*
X36574276Y-52306198D01*
X36568248Y-52308882D01*
X36562906Y-52312763D01*
X36559143Y-52314936D01*
X36490149Y-52331675D01*
X36418048Y-52304699D01*
X36412883Y-52300620D01*
X36407702Y-52295448D01*
X36309918Y-52235173D01*
X36268331Y-52209538D01*
X36268329Y-52209537D01*
X36262101Y-52205698D01*
X36099757Y-52151851D01*
X36092920Y-52151151D01*
X36092918Y-52151150D01*
X36051599Y-52146917D01*
X35998732Y-52141500D01*
X35401268Y-52141500D01*
X35398022Y-52141837D01*
X35398018Y-52141837D01*
X35363917Y-52145375D01*
X35298981Y-52152113D01*
X35292440Y-52154295D01*
X35292441Y-52154295D01*
X35143676Y-52203927D01*
X35143674Y-52203928D01*
X35136732Y-52206244D01*
X34991287Y-52296248D01*
X34870448Y-52417298D01*
X34866608Y-52423528D01*
X34866607Y-52423529D01*
X34792661Y-52543492D01*
X34780698Y-52562899D01*
X34726851Y-52725243D01*
X34716500Y-52826268D01*
X34716500Y-53373732D01*
X34727113Y-53476019D01*
X34729295Y-53482559D01*
X34777940Y-53628364D01*
X34781244Y-53638268D01*
X34785096Y-53644492D01*
X34785096Y-53644493D01*
X34844803Y-53740978D01*
X34871248Y-53783713D01*
X34876430Y-53788886D01*
X34880977Y-53794623D01*
X34879170Y-53796055D01*
X34907902Y-53848575D01*
X34902892Y-53919395D01*
X34879501Y-53955853D01*
X34880552Y-53956683D01*
X34867002Y-53973840D01*
X34784996Y-54106880D01*
X34778849Y-54120061D01*
X34729509Y-54268814D01*
X34726642Y-54282190D01*
X34717328Y-54373097D01*
X34717071Y-54378126D01*
X34721475Y-54393124D01*
X34722865Y-54394329D01*
X34730548Y-54396000D01*
X36664885Y-54396000D01*
X36680124Y-54391525D01*
X36681329Y-54390135D01*
X36683000Y-54382452D01*
X36683000Y-54379562D01*
X36682663Y-54373047D01*
X36673106Y-54280943D01*
X36670212Y-54267544D01*
X36627099Y-54138317D01*
X36624515Y-54067367D01*
X36660699Y-54006283D01*
X36724163Y-53974459D01*
X36772820Y-53975194D01*
X36923056Y-54007128D01*
X36923061Y-54007128D01*
X36929513Y-54008500D01*
X37120487Y-54008500D01*
X37126939Y-54007128D01*
X37126944Y-54007128D01*
X37234376Y-53984292D01*
X37307288Y-53968794D01*
X37334490Y-53956683D01*
X37475722Y-53893803D01*
X37475724Y-53893802D01*
X37481752Y-53891118D01*
X37612595Y-53796055D01*
X37636253Y-53778866D01*
X37636699Y-53779480D01*
X37640973Y-53773624D01*
X37745996Y-53656984D01*
X37806442Y-53619744D01*
X37874785Y-53620297D01*
X37902552Y-53628364D01*
X37962387Y-53666578D01*
X37992064Y-53731074D01*
X37982160Y-53801377D01*
X37933794Y-53856448D01*
X37897889Y-53878710D01*
X37887826Y-53886460D01*
X37821182Y-53949482D01*
X37812522Y-53953902D01*
X37799245Y-53970228D01*
X37755692Y-54011414D01*
X37747395Y-54021026D01*
X37643092Y-54169987D01*
X37636892Y-54181081D01*
X37564668Y-54347980D01*
X37560829Y-54360083D01*
X37523325Y-54539600D01*
X37522085Y-54549152D01*
X37522000Y-54552384D01*
X37522000Y-54922885D01*
X37526475Y-54938124D01*
X37527865Y-54939329D01*
X37535548Y-54941000D01*
X39195974Y-54941000D01*
X39264095Y-54961002D01*
X39310588Y-55014658D01*
X39320692Y-55084932D01*
X39291198Y-55149512D01*
X39284760Y-55156403D01*
X39280920Y-55160216D01*
X39280913Y-55160225D01*
X39275918Y-55165185D01*
X39272144Y-55171131D01*
X39272143Y-55171133D01*
X39258190Y-55193120D01*
X39178727Y-55318334D01*
X39174454Y-55330335D01*
X39162015Y-55365267D01*
X39120321Y-55422731D01*
X39054178Y-55448531D01*
X39043316Y-55449000D01*
X38752115Y-55449000D01*
X38736876Y-55453475D01*
X38735671Y-55454865D01*
X38734000Y-55462548D01*
X38734000Y-56654229D01*
X38737973Y-56667760D01*
X38744075Y-56668637D01*
X38896136Y-56612690D01*
X38907549Y-56607123D01*
X39062108Y-56511292D01*
X39072174Y-56503540D01*
X39204303Y-56378592D01*
X39212601Y-56368978D01*
X39230633Y-56343226D01*
X39286090Y-56298898D01*
X39356709Y-56291589D01*
X39402099Y-56309585D01*
X39548238Y-56403765D01*
X39554858Y-56406174D01*
X39554861Y-56406176D01*
X39664947Y-56446244D01*
X39718685Y-56465803D01*
X39858769Y-56483500D01*
X39955610Y-56483500D01*
X40090255Y-56468397D01*
X40097704Y-56465803D01*
X40254894Y-56411064D01*
X40254897Y-56411062D01*
X40261552Y-56408745D01*
X40269522Y-56403765D01*
X40409402Y-56316359D01*
X40415376Y-56312626D01*
X40422545Y-56305507D01*
X40539085Y-56189778D01*
X40539088Y-56189774D01*
X40544082Y-56184815D01*
X40574461Y-56136946D01*
X40637494Y-56037620D01*
X40641273Y-56031666D01*
X40676664Y-55932277D01*
X40699757Y-55867425D01*
X40699760Y-55867414D01*
X40702119Y-55860790D01*
X40707786Y-55813262D01*
X40735713Y-55747990D01*
X40794496Y-55708176D01*
X40845068Y-55703063D01*
X40845074Y-55702947D01*
X40845818Y-55702987D01*
X40846504Y-55702918D01*
X40848459Y-55703130D01*
X40848461Y-55703130D01*
X40851866Y-55703500D01*
X41248134Y-55703500D01*
X41251529Y-55703131D01*
X41251533Y-55703131D01*
X41277531Y-55700307D01*
X41286394Y-55699344D01*
X41313606Y-55699344D01*
X41322469Y-55700307D01*
X41348467Y-55703131D01*
X41348471Y-55703131D01*
X41351866Y-55703500D01*
X41748134Y-55703500D01*
X41751529Y-55703131D01*
X41751533Y-55703131D01*
X41777531Y-55700307D01*
X41786394Y-55699344D01*
X41813606Y-55699344D01*
X41822469Y-55700307D01*
X41848467Y-55703131D01*
X41848471Y-55703131D01*
X41851866Y-55703500D01*
X42248134Y-55703500D01*
X42251529Y-55703131D01*
X42251533Y-55703131D01*
X42277531Y-55700307D01*
X42286394Y-55699344D01*
X42313606Y-55699344D01*
X42322469Y-55700307D01*
X42348467Y-55703131D01*
X42348471Y-55703131D01*
X42351866Y-55703500D01*
X42748134Y-55703500D01*
X42751529Y-55703131D01*
X42751533Y-55703131D01*
X42777531Y-55700307D01*
X42786394Y-55699344D01*
X42813606Y-55699344D01*
X42822469Y-55700307D01*
X42848467Y-55703131D01*
X42848471Y-55703131D01*
X42851866Y-55703500D01*
X43248134Y-55703500D01*
X43251529Y-55703131D01*
X43251533Y-55703131D01*
X43277531Y-55700307D01*
X43286394Y-55699344D01*
X43313606Y-55699344D01*
X43322469Y-55700307D01*
X43348467Y-55703131D01*
X43348471Y-55703131D01*
X43351866Y-55703500D01*
X43748134Y-55703500D01*
X43751529Y-55703131D01*
X43751533Y-55703131D01*
X43777531Y-55700307D01*
X43786394Y-55699344D01*
X43813606Y-55699344D01*
X43822469Y-55700307D01*
X43848467Y-55703131D01*
X43848471Y-55703131D01*
X43851866Y-55703500D01*
X44248134Y-55703500D01*
X44251529Y-55703131D01*
X44251533Y-55703131D01*
X44277531Y-55700307D01*
X44286394Y-55699344D01*
X44313606Y-55699344D01*
X44322469Y-55700307D01*
X44348467Y-55703131D01*
X44348471Y-55703131D01*
X44351866Y-55703500D01*
X44748134Y-55703500D01*
X44752799Y-55702993D01*
X44753094Y-55703046D01*
X44754926Y-55702947D01*
X44754949Y-55703379D01*
X44822680Y-55715516D01*
X44874700Y-55763833D01*
X44891724Y-55815083D01*
X44894093Y-55837616D01*
X44895364Y-55849712D01*
X44953818Y-56021421D01*
X44957512Y-56027425D01*
X45015296Y-56121351D01*
X45048862Y-56175912D01*
X45053793Y-56180947D01*
X45053795Y-56180950D01*
X45160781Y-56290200D01*
X45175771Y-56305507D01*
X45328238Y-56403765D01*
X45334858Y-56406174D01*
X45334861Y-56406176D01*
X45444947Y-56446244D01*
X45498685Y-56465803D01*
X45638769Y-56483500D01*
X45735610Y-56483500D01*
X45870255Y-56468397D01*
X45877704Y-56465803D01*
X46034894Y-56411064D01*
X46034897Y-56411062D01*
X46041552Y-56408745D01*
X46055634Y-56399946D01*
X46195376Y-56312626D01*
X46196148Y-56313862D01*
X46254612Y-56290200D01*
X46324376Y-56303374D01*
X46362729Y-56333587D01*
X46451785Y-56437490D01*
X46460976Y-56446244D01*
X46604680Y-56557711D01*
X46615440Y-56564435D01*
X46778625Y-56644732D01*
X46790519Y-56649155D01*
X46848470Y-56664251D01*
X46862564Y-56663817D01*
X46866000Y-56655636D01*
X46866000Y-56654229D01*
X47374000Y-56654229D01*
X47377973Y-56667760D01*
X47384075Y-56668637D01*
X47536136Y-56612690D01*
X47547549Y-56607123D01*
X47702108Y-56511292D01*
X47712174Y-56503540D01*
X47765740Y-56452885D01*
X50992000Y-56452885D01*
X50996475Y-56468124D01*
X50997865Y-56469329D01*
X51005548Y-56471000D01*
X51827885Y-56471000D01*
X51843124Y-56466525D01*
X51844329Y-56465135D01*
X51846000Y-56457452D01*
X51846000Y-55885116D01*
X51841525Y-55869877D01*
X51840135Y-55868672D01*
X51832452Y-55867001D01*
X51455331Y-55867001D01*
X51448510Y-55867371D01*
X51397648Y-55872895D01*
X51382396Y-55876521D01*
X51261946Y-55921676D01*
X51246351Y-55930214D01*
X51144276Y-56006715D01*
X51131715Y-56019276D01*
X51055214Y-56121351D01*
X51046676Y-56136946D01*
X51001522Y-56257394D01*
X50997895Y-56272649D01*
X50992369Y-56323514D01*
X50992000Y-56330328D01*
X50992000Y-56452885D01*
X47765740Y-56452885D01*
X47844303Y-56378592D01*
X47852605Y-56368974D01*
X47956908Y-56220013D01*
X47963108Y-56208919D01*
X48035332Y-56042020D01*
X48039171Y-56029917D01*
X48076675Y-55850400D01*
X48077915Y-55840848D01*
X48078000Y-55837616D01*
X48078000Y-55467115D01*
X48073525Y-55451876D01*
X48072135Y-55450671D01*
X48064452Y-55449000D01*
X47392115Y-55449000D01*
X47376876Y-55453475D01*
X47375671Y-55454865D01*
X47374000Y-55462548D01*
X47374000Y-56654229D01*
X46866000Y-56654229D01*
X46866000Y-55467115D01*
X46861525Y-55451876D01*
X46860135Y-55450671D01*
X46852452Y-55449000D01*
X46557384Y-55449000D01*
X46489263Y-55428998D01*
X46442770Y-55375342D01*
X46438106Y-55363606D01*
X46428452Y-55335248D01*
X46426182Y-55328579D01*
X46372610Y-55241500D01*
X46334834Y-55180095D01*
X46334832Y-55180092D01*
X46331138Y-55174088D01*
X46312600Y-55155157D01*
X46279229Y-55092494D01*
X46285034Y-55021735D01*
X46328173Y-54965347D01*
X46394950Y-54941234D01*
X46402623Y-54941000D01*
X46847885Y-54941000D01*
X46863124Y-54936525D01*
X46864329Y-54935135D01*
X46866000Y-54927452D01*
X46866000Y-54922885D01*
X47374000Y-54922885D01*
X47378475Y-54938124D01*
X47379865Y-54939329D01*
X47387548Y-54941000D01*
X48059885Y-54941000D01*
X48075124Y-54936525D01*
X48076329Y-54935135D01*
X48078000Y-54927452D01*
X48078000Y-54599553D01*
X48077677Y-54593178D01*
X48063918Y-54457723D01*
X48061364Y-54445283D01*
X48006984Y-54271756D01*
X48001975Y-54260068D01*
X47913813Y-54101021D01*
X47906562Y-54090588D01*
X47788215Y-53952509D01*
X47779024Y-53943756D01*
X47635320Y-53832289D01*
X47624560Y-53825565D01*
X47461375Y-53745268D01*
X47449481Y-53740845D01*
X47391530Y-53725749D01*
X47377436Y-53726183D01*
X47374000Y-53734364D01*
X47374000Y-54922885D01*
X46866000Y-54922885D01*
X46866000Y-53735771D01*
X46862027Y-53722240D01*
X46855925Y-53721363D01*
X46821628Y-53733982D01*
X46750791Y-53738732D01*
X46688630Y-53704431D01*
X46677293Y-53691296D01*
X46668284Y-53679275D01*
X46655724Y-53666715D01*
X46553649Y-53590214D01*
X46538052Y-53581675D01*
X46441873Y-53545619D01*
X46385108Y-53502978D01*
X46360408Y-53436416D01*
X46375615Y-53367067D01*
X46397007Y-53338542D01*
X46690144Y-53045405D01*
X46752456Y-53011379D01*
X46779239Y-53008500D01*
X51714663Y-53008500D01*
X51782784Y-53028502D01*
X51829277Y-53082158D01*
X51840454Y-53127247D01*
X51850110Y-53294715D01*
X51851247Y-53299761D01*
X51851248Y-53299767D01*
X51868650Y-53376982D01*
X51899222Y-53512639D01*
X51947415Y-53631324D01*
X51971767Y-53691296D01*
X51983266Y-53719616D01*
X51992304Y-53734364D01*
X52096595Y-53904552D01*
X52099987Y-53910088D01*
X52246250Y-54078938D01*
X52418126Y-54221632D01*
X52611000Y-54334338D01*
X52819692Y-54414030D01*
X52824760Y-54415061D01*
X52824763Y-54415062D01*
X52932017Y-54436883D01*
X53038597Y-54458567D01*
X53043772Y-54458757D01*
X53043774Y-54458757D01*
X53256673Y-54466564D01*
X53256677Y-54466564D01*
X53261837Y-54466753D01*
X53266957Y-54466097D01*
X53266959Y-54466097D01*
X53478288Y-54439025D01*
X53478289Y-54439025D01*
X53483416Y-54438368D01*
X53548376Y-54418879D01*
X53692429Y-54375661D01*
X53692434Y-54375659D01*
X53697384Y-54374174D01*
X53897994Y-54275896D01*
X54079860Y-54146173D01*
X54106064Y-54120061D01*
X54227170Y-53999377D01*
X54238096Y-53988489D01*
X54250090Y-53971797D01*
X54306082Y-53928149D01*
X54376785Y-53921700D01*
X54439751Y-53954501D01*
X54474987Y-54016136D01*
X54478414Y-54045439D01*
X54477385Y-55140618D01*
X54457319Y-55208720D01*
X54403620Y-55255163D01*
X54351385Y-55266500D01*
X53351866Y-55266500D01*
X53289684Y-55273255D01*
X53153295Y-55324385D01*
X53036739Y-55411739D01*
X52949385Y-55528295D01*
X52898255Y-55664684D01*
X52891500Y-55726866D01*
X52891500Y-55742150D01*
X52871498Y-55810271D01*
X52817842Y-55856764D01*
X52754917Y-55866926D01*
X52754883Y-55867553D01*
X52752002Y-55867397D01*
X52751897Y-55867414D01*
X52751480Y-55867369D01*
X52744672Y-55867000D01*
X52372115Y-55867000D01*
X52356876Y-55871475D01*
X52355671Y-55872865D01*
X52354000Y-55880548D01*
X52354000Y-57564884D01*
X52358475Y-57580123D01*
X52359865Y-57581328D01*
X52367548Y-57582999D01*
X52744669Y-57582999D01*
X52751490Y-57582629D01*
X52802352Y-57577105D01*
X52817604Y-57573479D01*
X52938054Y-57528324D01*
X52953649Y-57519786D01*
X53055724Y-57443285D01*
X53068285Y-57430724D01*
X53091794Y-57399356D01*
X53148653Y-57356841D01*
X53219471Y-57351815D01*
X53236848Y-57356939D01*
X53282279Y-57373970D01*
X53282286Y-57373972D01*
X53289684Y-57376745D01*
X53351866Y-57383500D01*
X54349157Y-57383500D01*
X54417278Y-57403502D01*
X54463771Y-57457158D01*
X54475157Y-57509618D01*
X54473436Y-59340618D01*
X54453370Y-59408720D01*
X54399671Y-59455163D01*
X54347436Y-59466500D01*
X53351866Y-59466500D01*
X53289684Y-59473255D01*
X53237337Y-59492879D01*
X53166531Y-59498062D01*
X53104162Y-59464142D01*
X53092290Y-59450473D01*
X53063261Y-59411739D01*
X52946705Y-59324385D01*
X52810316Y-59273255D01*
X52748134Y-59266500D01*
X52154239Y-59266500D01*
X52086118Y-59246498D01*
X52065144Y-59229595D01*
X51876349Y-59040800D01*
X51842323Y-58978488D01*
X51847388Y-58907673D01*
X51856325Y-58888705D01*
X51906223Y-58802279D01*
X51906224Y-58802278D01*
X51909527Y-58796556D01*
X51968542Y-58614928D01*
X51970978Y-58591756D01*
X51987814Y-58431565D01*
X51988504Y-58425000D01*
X51968542Y-58235072D01*
X51909527Y-58053444D01*
X51903059Y-58042240D01*
X51817341Y-57893774D01*
X51814040Y-57888056D01*
X51728729Y-57793308D01*
X51698013Y-57729303D01*
X51706777Y-57658850D01*
X51752239Y-57604318D01*
X51822366Y-57583000D01*
X51827885Y-57583000D01*
X51843124Y-57578525D01*
X51844329Y-57577135D01*
X51846000Y-57569452D01*
X51846000Y-56997115D01*
X51841525Y-56981876D01*
X51840135Y-56980671D01*
X51832452Y-56979000D01*
X51010116Y-56979000D01*
X50994877Y-56983475D01*
X50993672Y-56984865D01*
X50992001Y-56992548D01*
X50992001Y-57119669D01*
X50992371Y-57126490D01*
X50997895Y-57177352D01*
X51001521Y-57192604D01*
X51046678Y-57313060D01*
X51058120Y-57333958D01*
X51073290Y-57403315D01*
X51048554Y-57469863D01*
X50991766Y-57512474D01*
X50973801Y-57517714D01*
X50792712Y-57556206D01*
X50786685Y-57558889D01*
X50786677Y-57558892D01*
X50728384Y-57584846D01*
X50658017Y-57594280D01*
X50611020Y-57576999D01*
X50521709Y-57521947D01*
X50508532Y-57515803D01*
X50361157Y-57466921D01*
X50347790Y-57464055D01*
X50257730Y-57454828D01*
X50251315Y-57454500D01*
X50222115Y-57454500D01*
X50206876Y-57458975D01*
X50205671Y-57460365D01*
X50204000Y-57468048D01*
X50204000Y-58145739D01*
X50197833Y-58184675D01*
X50181458Y-58235072D01*
X50161496Y-58425000D01*
X50162186Y-58431565D01*
X50170937Y-58514830D01*
X50158165Y-58584668D01*
X50109662Y-58636515D01*
X50045627Y-58654000D01*
X49822000Y-58654000D01*
X49753879Y-58633998D01*
X49707386Y-58580342D01*
X49696000Y-58528000D01*
X49696000Y-57472615D01*
X49691525Y-57457376D01*
X49690135Y-57456171D01*
X49682452Y-57454500D01*
X49648734Y-57454500D01*
X49642218Y-57454837D01*
X49550979Y-57464304D01*
X49537583Y-57467197D01*
X49390313Y-57516330D01*
X49377134Y-57522504D01*
X49245486Y-57603970D01*
X49234085Y-57613006D01*
X49192026Y-57655139D01*
X49129743Y-57689219D01*
X49058923Y-57684216D01*
X49028791Y-57668058D01*
X48987094Y-57637763D01*
X48987093Y-57637762D01*
X48981752Y-57633882D01*
X48975724Y-57631198D01*
X48975722Y-57631197D01*
X48813319Y-57558891D01*
X48813318Y-57558891D01*
X48807288Y-57556206D01*
X48713887Y-57536353D01*
X48626944Y-57517872D01*
X48626939Y-57517872D01*
X48620487Y-57516500D01*
X48429513Y-57516500D01*
X48423061Y-57517872D01*
X48423056Y-57517872D01*
X48336113Y-57536353D01*
X48242712Y-57556206D01*
X48236682Y-57558891D01*
X48236681Y-57558891D01*
X48074278Y-57631197D01*
X48074276Y-57631198D01*
X48068248Y-57633882D01*
X47913747Y-57746134D01*
X47785960Y-57888056D01*
X47693778Y-58047721D01*
X47693426Y-58048330D01*
X47642044Y-58097323D01*
X47572330Y-58110759D01*
X47528677Y-58098384D01*
X47461383Y-58065271D01*
X47449481Y-58060845D01*
X47391530Y-58045749D01*
X47377436Y-58046183D01*
X47374000Y-58054364D01*
X47374000Y-59493000D01*
X47353998Y-59561121D01*
X47300342Y-59607614D01*
X47248000Y-59619000D01*
X46180115Y-59619000D01*
X46164876Y-59623475D01*
X46163671Y-59624865D01*
X46162000Y-59632548D01*
X46162000Y-59810447D01*
X46162323Y-59816822D01*
X46176082Y-59952277D01*
X46178636Y-59964717D01*
X46233016Y-60138244D01*
X46238025Y-60149932D01*
X46326187Y-60308979D01*
X46333438Y-60319412D01*
X46451785Y-60457491D01*
X46460976Y-60466244D01*
X46604680Y-60577711D01*
X46615440Y-60584435D01*
X46753655Y-60652445D01*
X46805946Y-60700468D01*
X46823972Y-60769138D01*
X46802012Y-60836653D01*
X46747036Y-60881577D01*
X46698025Y-60891500D01*
X38900069Y-60891500D01*
X38831948Y-60871498D01*
X38785455Y-60817842D01*
X38775351Y-60747568D01*
X38804845Y-60682988D01*
X38856562Y-60647250D01*
X38896137Y-60632690D01*
X38907549Y-60627123D01*
X39062108Y-60531292D01*
X39072174Y-60523540D01*
X39204303Y-60398592D01*
X39212605Y-60388974D01*
X39316908Y-60240013D01*
X39323108Y-60228919D01*
X39395332Y-60062020D01*
X39399171Y-60049917D01*
X39436675Y-59870400D01*
X39437915Y-59860848D01*
X39438000Y-59857616D01*
X39438000Y-59637115D01*
X39433525Y-59621876D01*
X39432135Y-59620671D01*
X39424452Y-59619000D01*
X37540115Y-59619000D01*
X37524876Y-59623475D01*
X37523671Y-59624865D01*
X37522000Y-59632548D01*
X37522000Y-59810447D01*
X37522323Y-59816822D01*
X37536082Y-59952277D01*
X37538636Y-59964717D01*
X37593016Y-60138244D01*
X37598025Y-60149932D01*
X37686187Y-60308979D01*
X37693438Y-60319412D01*
X37811785Y-60457491D01*
X37820976Y-60466244D01*
X37964680Y-60577711D01*
X37975440Y-60584435D01*
X38113655Y-60652445D01*
X38165946Y-60700468D01*
X38183972Y-60769138D01*
X38162012Y-60836653D01*
X38107036Y-60881577D01*
X38058025Y-60891500D01*
X36379572Y-60891500D01*
X36311451Y-60871498D01*
X36264958Y-60817842D01*
X36254854Y-60747568D01*
X36269052Y-60704992D01*
X36278321Y-60688061D01*
X36323478Y-60567606D01*
X36327105Y-60552351D01*
X36332631Y-60501486D01*
X36333000Y-60494672D01*
X36333000Y-60372115D01*
X36328525Y-60356876D01*
X36327135Y-60355671D01*
X36319452Y-60354000D01*
X35097000Y-60354000D01*
X35028879Y-60333998D01*
X34982386Y-60280342D01*
X34971000Y-60228000D01*
X34971000Y-59827885D01*
X35479000Y-59827885D01*
X35483475Y-59843124D01*
X35484865Y-59844329D01*
X35492548Y-59846000D01*
X36314884Y-59846000D01*
X36330123Y-59841525D01*
X36331328Y-59840135D01*
X36332999Y-59832452D01*
X36332999Y-59705331D01*
X36332629Y-59698510D01*
X36327105Y-59647648D01*
X36323479Y-59632396D01*
X36278324Y-59511946D01*
X36269786Y-59496351D01*
X36193285Y-59394276D01*
X36180724Y-59381715D01*
X36078649Y-59305214D01*
X36063054Y-59296676D01*
X35942606Y-59251522D01*
X35927351Y-59247895D01*
X35876486Y-59242369D01*
X35869672Y-59242000D01*
X35497115Y-59242000D01*
X35481876Y-59246475D01*
X35480671Y-59247865D01*
X35479000Y-59255548D01*
X35479000Y-59827885D01*
X34971000Y-59827885D01*
X34971000Y-59260116D01*
X34966525Y-59244877D01*
X34965135Y-59243672D01*
X34957452Y-59242001D01*
X34580331Y-59242001D01*
X34573510Y-59242371D01*
X34522648Y-59247895D01*
X34507396Y-59251521D01*
X34386946Y-59296676D01*
X34371351Y-59305214D01*
X34269276Y-59381715D01*
X34256715Y-59394276D01*
X34233206Y-59425644D01*
X34176347Y-59468159D01*
X34105529Y-59473185D01*
X34088152Y-59468061D01*
X34042721Y-59451030D01*
X34042714Y-59451028D01*
X34035316Y-59448255D01*
X33973134Y-59441500D01*
X32884500Y-59441500D01*
X32816379Y-59421498D01*
X32769886Y-59367842D01*
X32758500Y-59315500D01*
X32758500Y-59092885D01*
X37522000Y-59092885D01*
X37526475Y-59108124D01*
X37527865Y-59109329D01*
X37535548Y-59111000D01*
X38207885Y-59111000D01*
X38223124Y-59106525D01*
X38224329Y-59105135D01*
X38226000Y-59097452D01*
X38226000Y-59092885D01*
X38734000Y-59092885D01*
X38738475Y-59108124D01*
X38739865Y-59109329D01*
X38747548Y-59111000D01*
X39419885Y-59111000D01*
X39435124Y-59106525D01*
X39436329Y-59105135D01*
X39438000Y-59097452D01*
X39438000Y-59092885D01*
X46162000Y-59092885D01*
X46166475Y-59108124D01*
X46167865Y-59109329D01*
X46175548Y-59111000D01*
X46847885Y-59111000D01*
X46863124Y-59106525D01*
X46864329Y-59105135D01*
X46866000Y-59097452D01*
X46866000Y-58055771D01*
X46862027Y-58042240D01*
X46855925Y-58041363D01*
X46703864Y-58097310D01*
X46692451Y-58102877D01*
X46537892Y-58198708D01*
X46527826Y-58206460D01*
X46395697Y-58331408D01*
X46387395Y-58341026D01*
X46283092Y-58489987D01*
X46276892Y-58501081D01*
X46204668Y-58667980D01*
X46200829Y-58680083D01*
X46163325Y-58859600D01*
X46162085Y-58869152D01*
X46162000Y-58872384D01*
X46162000Y-59092885D01*
X39438000Y-59092885D01*
X39438000Y-58919553D01*
X39437677Y-58913178D01*
X39423918Y-58777723D01*
X39421364Y-58765283D01*
X39366984Y-58591756D01*
X39361975Y-58580068D01*
X39273813Y-58421021D01*
X39266562Y-58410588D01*
X39148215Y-58272509D01*
X39139024Y-58263756D01*
X38995320Y-58152289D01*
X38984560Y-58145565D01*
X38821375Y-58065268D01*
X38809481Y-58060845D01*
X38751530Y-58045749D01*
X38737436Y-58046183D01*
X38734000Y-58054364D01*
X38734000Y-59092885D01*
X38226000Y-59092885D01*
X38226000Y-58055771D01*
X38222027Y-58042240D01*
X38215925Y-58041363D01*
X38063864Y-58097310D01*
X38052451Y-58102877D01*
X37897892Y-58198708D01*
X37887826Y-58206460D01*
X37755697Y-58331408D01*
X37747395Y-58341026D01*
X37643092Y-58489987D01*
X37636892Y-58501081D01*
X37564668Y-58667980D01*
X37560829Y-58680083D01*
X37523325Y-58859600D01*
X37522085Y-58869152D01*
X37522000Y-58872384D01*
X37522000Y-59092885D01*
X32758500Y-59092885D01*
X32758500Y-57484500D01*
X32778502Y-57416379D01*
X32832158Y-57369886D01*
X32884500Y-57358500D01*
X33973134Y-57358500D01*
X34035316Y-57351745D01*
X34087663Y-57332121D01*
X34158469Y-57326938D01*
X34220838Y-57360858D01*
X34232710Y-57374527D01*
X34261739Y-57413261D01*
X34378295Y-57500615D01*
X34514684Y-57551745D01*
X34576866Y-57558500D01*
X35873134Y-57558500D01*
X35935316Y-57551745D01*
X36071705Y-57500615D01*
X36188261Y-57413261D01*
X36275615Y-57296705D01*
X36326745Y-57160316D01*
X36333500Y-57098134D01*
X36333500Y-56301866D01*
X36326745Y-56239684D01*
X36275615Y-56103295D01*
X36188261Y-55986739D01*
X36104331Y-55923837D01*
X36061817Y-55866979D01*
X36054587Y-55809842D01*
X36056625Y-55790447D01*
X37522000Y-55790447D01*
X37522323Y-55796822D01*
X37536082Y-55932277D01*
X37538636Y-55944717D01*
X37593016Y-56118244D01*
X37598025Y-56129932D01*
X37686187Y-56288979D01*
X37693438Y-56299412D01*
X37811785Y-56437491D01*
X37820976Y-56446244D01*
X37964680Y-56557711D01*
X37975440Y-56564435D01*
X38138625Y-56644732D01*
X38150519Y-56649155D01*
X38208470Y-56664251D01*
X38222564Y-56663817D01*
X38226000Y-56655636D01*
X38226000Y-55467115D01*
X38221525Y-55451876D01*
X38220135Y-55450671D01*
X38212452Y-55449000D01*
X37540115Y-55449000D01*
X37524876Y-55453475D01*
X37523671Y-55454865D01*
X37522000Y-55462548D01*
X37522000Y-55790447D01*
X36056625Y-55790447D01*
X36062814Y-55731566D01*
X36062814Y-55731565D01*
X36063504Y-55725000D01*
X36062814Y-55718432D01*
X36062394Y-55714435D01*
X36062814Y-55712139D01*
X36062814Y-55711830D01*
X36062870Y-55711830D01*
X36075167Y-55644597D01*
X36123670Y-55592751D01*
X36147828Y-55581743D01*
X36256107Y-55545619D01*
X36269286Y-55539445D01*
X36402173Y-55457212D01*
X36413574Y-55448176D01*
X36523986Y-55337571D01*
X36532998Y-55326160D01*
X36615004Y-55193120D01*
X36621151Y-55179939D01*
X36670491Y-55031186D01*
X36673358Y-55017810D01*
X36682672Y-54926903D01*
X36682929Y-54921874D01*
X36678525Y-54906876D01*
X36677135Y-54905671D01*
X36669452Y-54904000D01*
X35566418Y-54904000D01*
X35515170Y-54893107D01*
X35438324Y-54858893D01*
X35438321Y-54858892D01*
X35432288Y-54856206D01*
X35390660Y-54847358D01*
X35251944Y-54817872D01*
X35251939Y-54817872D01*
X35245487Y-54816500D01*
X35054513Y-54816500D01*
X35048061Y-54817872D01*
X35048056Y-54817872D01*
X34909340Y-54847358D01*
X34867712Y-54856206D01*
X34861679Y-54858892D01*
X34861676Y-54858893D01*
X34784830Y-54893107D01*
X34739135Y-54902820D01*
X34719876Y-54908475D01*
X34714970Y-54914136D01*
X34692429Y-54932754D01*
X34693248Y-54933882D01*
X34538747Y-55046134D01*
X34534326Y-55051044D01*
X34534325Y-55051045D01*
X34418269Y-55179939D01*
X34410960Y-55188056D01*
X34372216Y-55255163D01*
X34364858Y-55267907D01*
X34313475Y-55316900D01*
X34243761Y-55330335D01*
X34187121Y-55308420D01*
X34186760Y-55309079D01*
X34181790Y-55306358D01*
X34180175Y-55305733D01*
X34171705Y-55299385D01*
X34035316Y-55248255D01*
X33973134Y-55241500D01*
X32576866Y-55241500D01*
X32514684Y-55248255D01*
X32378295Y-55299385D01*
X32261739Y-55386739D01*
X32237622Y-55418919D01*
X32233235Y-55424772D01*
X32176376Y-55467287D01*
X32105558Y-55472313D01*
X32086961Y-55466725D01*
X30189045Y-54732625D01*
X30132728Y-54689396D01*
X30108722Y-54622581D01*
X30108500Y-54615110D01*
X30108500Y-53774724D01*
X30128502Y-53706603D01*
X30182158Y-53660110D01*
X30252432Y-53650006D01*
X30317012Y-53679500D01*
X30351243Y-53727321D01*
X30356320Y-53739826D01*
X30356325Y-53739836D01*
X30358266Y-53744616D01*
X30386693Y-53791005D01*
X30470735Y-53928149D01*
X30474987Y-53935088D01*
X30621250Y-54103938D01*
X30793126Y-54246632D01*
X30986000Y-54359338D01*
X30990825Y-54361180D01*
X30990826Y-54361181D01*
X31035201Y-54378126D01*
X31194692Y-54439030D01*
X31199760Y-54440061D01*
X31199763Y-54440062D01*
X31307017Y-54461883D01*
X31413597Y-54483567D01*
X31418772Y-54483757D01*
X31418774Y-54483757D01*
X31631673Y-54491564D01*
X31631677Y-54491564D01*
X31636837Y-54491753D01*
X31641957Y-54491097D01*
X31641959Y-54491097D01*
X31853288Y-54464025D01*
X31853289Y-54464025D01*
X31858416Y-54463368D01*
X31873785Y-54458757D01*
X32067429Y-54400661D01*
X32067434Y-54400659D01*
X32072384Y-54399174D01*
X32272994Y-54300896D01*
X32454860Y-54171173D01*
X32613096Y-54013489D01*
X32623237Y-53999377D01*
X32740435Y-53836277D01*
X32743453Y-53832077D01*
X32746672Y-53825565D01*
X32840136Y-53636453D01*
X32840137Y-53636451D01*
X32842430Y-53631811D01*
X32880700Y-53505851D01*
X32912163Y-53453386D01*
X35507644Y-50857905D01*
X35569956Y-50823879D01*
X35596739Y-50821000D01*
X37347559Y-50821000D01*
X37415680Y-50841002D01*
G37*
%TD.AperFunction*%
%TA.AperFunction,Conductor*%
G36*
X39509532Y-54272825D02*
G01*
X39566368Y-54315372D01*
X39591179Y-54381892D01*
X39591500Y-54390881D01*
X39591500Y-54743000D01*
X39571498Y-54811121D01*
X39517842Y-54857614D01*
X39465500Y-54869000D01*
X38878000Y-54869000D01*
X38809879Y-54848998D01*
X38763386Y-54795342D01*
X38752000Y-54743000D01*
X38752000Y-54487000D01*
X38772002Y-54418879D01*
X38825658Y-54372386D01*
X38878000Y-54361000D01*
X39327885Y-54361000D01*
X39343124Y-54356525D01*
X39352290Y-54345947D01*
X39376404Y-54301786D01*
X39438716Y-54267761D01*
X39509532Y-54272825D01*
G37*
%TD.AperFunction*%
%TA.AperFunction,Conductor*%
G36*
X39571671Y-53507002D02*
G01*
X39580946Y-53514477D01*
X39581325Y-53513989D01*
X39587583Y-53518843D01*
X39593193Y-53524453D01*
X39648163Y-53556962D01*
X39696612Y-53608852D01*
X39709318Y-53678702D01*
X39684847Y-53740978D01*
X39656452Y-53778866D01*
X39649385Y-53788295D01*
X39598255Y-53924684D01*
X39597402Y-53932536D01*
X39597401Y-53932540D01*
X39597263Y-53933815D01*
X39596878Y-53934741D01*
X39595575Y-53940222D01*
X39594688Y-53940011D01*
X39570021Y-53999377D01*
X39511659Y-54039804D01*
X39440704Y-54042260D01*
X39379686Y-54005965D01*
X39347977Y-53942443D01*
X39346000Y-53920208D01*
X39346000Y-53613000D01*
X39366002Y-53544879D01*
X39419658Y-53498386D01*
X39472000Y-53487000D01*
X39503550Y-53487000D01*
X39571671Y-53507002D01*
G37*
%TD.AperFunction*%
%TA.AperFunction,Conductor*%
G36*
X39259532Y-50167683D02*
G01*
X39316368Y-50210230D01*
X39341179Y-50276750D01*
X39341500Y-50285739D01*
X39341500Y-50791502D01*
X39341693Y-50793950D01*
X39341693Y-50793958D01*
X39343822Y-50821000D01*
X39344438Y-50828831D01*
X39364513Y-50897929D01*
X39387565Y-50977275D01*
X39390855Y-50988601D01*
X39475547Y-51131807D01*
X39481156Y-51137416D01*
X39485399Y-51142886D01*
X39511346Y-51208971D01*
X39497445Y-51278594D01*
X39459554Y-51320116D01*
X39454000Y-51332370D01*
X39454000Y-51570158D01*
X39436453Y-51634297D01*
X39390855Y-51711399D01*
X39388644Y-51719010D01*
X39388643Y-51719012D01*
X39376663Y-51760248D01*
X39344438Y-51871169D01*
X39343934Y-51877574D01*
X39343933Y-51877579D01*
X39342476Y-51896097D01*
X39341500Y-51908498D01*
X39341500Y-52235173D01*
X39321498Y-52303294D01*
X39267842Y-52349787D01*
X39197568Y-52359891D01*
X39132988Y-52330397D01*
X39099091Y-52283391D01*
X39068091Y-52208550D01*
X39058500Y-52160332D01*
X39058500Y-51908498D01*
X39057524Y-51896097D01*
X39056067Y-51877579D01*
X39056066Y-51877574D01*
X39055562Y-51871169D01*
X39023337Y-51760248D01*
X39011357Y-51719012D01*
X39011356Y-51719010D01*
X39009145Y-51711399D01*
X38963547Y-51634297D01*
X38946000Y-51570158D01*
X38946000Y-51338122D01*
X38941526Y-51322884D01*
X38932118Y-51314732D01*
X38893734Y-51255006D01*
X38893734Y-51184010D01*
X38915071Y-51142280D01*
X38918845Y-51137415D01*
X38924453Y-51131807D01*
X38928489Y-51124983D01*
X38928491Y-51124980D01*
X39005108Y-50995427D01*
X39009145Y-50988601D01*
X39012436Y-50977275D01*
X39035487Y-50897929D01*
X39055562Y-50828831D01*
X39056179Y-50821000D01*
X39058307Y-50793958D01*
X39058307Y-50793950D01*
X39058500Y-50791502D01*
X39058500Y-50316739D01*
X39078502Y-50248618D01*
X39095405Y-50227644D01*
X39126405Y-50196644D01*
X39188717Y-50162618D01*
X39259532Y-50167683D01*
G37*
%TD.AperFunction*%
%TA.AperFunction,Conductor*%
G36*
X51946279Y-49718436D02*
G01*
X52003115Y-49760983D01*
X52027926Y-49827503D01*
X52013512Y-49891154D01*
X52015179Y-49891928D01*
X51923338Y-50089783D01*
X51919775Y-50099470D01*
X51864389Y-50299183D01*
X51865912Y-50307607D01*
X51878292Y-50311000D01*
X53328000Y-50311000D01*
X53396121Y-50331002D01*
X53442614Y-50384658D01*
X53454000Y-50437000D01*
X53454000Y-50693000D01*
X53433998Y-50761121D01*
X53380342Y-50807614D01*
X53328000Y-50819000D01*
X51883225Y-50819000D01*
X51869694Y-50822973D01*
X51868257Y-50832966D01*
X51898565Y-50967446D01*
X51901645Y-50977275D01*
X51981770Y-51174603D01*
X51986413Y-51183794D01*
X52097694Y-51365388D01*
X52103777Y-51373699D01*
X52243213Y-51534667D01*
X52250580Y-51541883D01*
X52282708Y-51568556D01*
X52322343Y-51627459D01*
X52323841Y-51698440D01*
X52286726Y-51758963D01*
X52222782Y-51789811D01*
X52202223Y-51791500D01*
X47736572Y-51791500D01*
X47668451Y-51771498D01*
X47621958Y-51717842D01*
X47611262Y-51678670D01*
X47594232Y-51516635D01*
X47594232Y-51516633D01*
X47593542Y-51510072D01*
X47552565Y-51383959D01*
X47549146Y-51373436D01*
X47547118Y-51302469D01*
X47583781Y-51241671D01*
X47647493Y-51210345D01*
X47668979Y-51208500D01*
X50051864Y-51208500D01*
X50068307Y-51209578D01*
X50100000Y-51213750D01*
X50108189Y-51212672D01*
X50139874Y-51208501D01*
X50139884Y-51208500D01*
X50139885Y-51208500D01*
X50239457Y-51195391D01*
X50250664Y-51193916D01*
X50250666Y-51193915D01*
X50258851Y-51192838D01*
X50406876Y-51131524D01*
X50415405Y-51124980D01*
X50502072Y-51058477D01*
X50502075Y-51058474D01*
X50527434Y-51039015D01*
X50533987Y-51033987D01*
X50543850Y-51021134D01*
X50553452Y-51008621D01*
X50564319Y-50996230D01*
X51813152Y-49747397D01*
X51875464Y-49713371D01*
X51946279Y-49718436D01*
G37*
%TD.AperFunction*%
%TA.AperFunction,Conductor*%
G36*
X43540947Y-48328502D02*
G01*
X43589235Y-48386282D01*
X43618476Y-48456876D01*
X43623503Y-48463427D01*
X43623504Y-48463429D01*
X43691520Y-48552069D01*
X43691526Y-48552075D01*
X43702595Y-48566500D01*
X43716013Y-48583987D01*
X43718294Y-48585737D01*
X43751122Y-48645863D01*
X43754000Y-48672641D01*
X43754000Y-49248424D01*
X43758625Y-49264175D01*
X43796455Y-49323039D01*
X43796455Y-49394036D01*
X43769195Y-49442848D01*
X43709214Y-49509464D01*
X43648768Y-49546704D01*
X43576639Y-49544986D01*
X43573322Y-49543908D01*
X43567291Y-49541223D01*
X43541630Y-49535769D01*
X43386947Y-49502889D01*
X43386942Y-49502889D01*
X43380490Y-49501517D01*
X43307663Y-49501517D01*
X43239542Y-49481515D01*
X43237533Y-49479197D01*
X43233491Y-49483889D01*
X43189101Y-49499563D01*
X43189516Y-49501517D01*
X43002715Y-49541223D01*
X42867819Y-49601282D01*
X42797454Y-49610716D01*
X42733157Y-49580610D01*
X42695343Y-49520521D01*
X42694122Y-49515589D01*
X42693542Y-49510072D01*
X42634527Y-49328444D01*
X42631135Y-49322568D01*
X42586648Y-49245516D01*
X42539040Y-49163056D01*
X42533733Y-49157162D01*
X42493722Y-49112725D01*
X42463004Y-49048718D01*
X42471769Y-48978264D01*
X42517232Y-48923733D01*
X42561159Y-48905169D01*
X42636629Y-48889127D01*
X42707420Y-48894529D01*
X42764053Y-48937346D01*
X42771280Y-48948236D01*
X42809874Y-49013497D01*
X42819516Y-49025926D01*
X42924074Y-49130484D01*
X42936501Y-49140124D01*
X43063780Y-49215396D01*
X43078216Y-49221643D01*
X43200221Y-49257089D01*
X43229409Y-49275729D01*
X43242909Y-49262420D01*
X43246000Y-49250487D01*
X43246000Y-48472048D01*
X43262881Y-48409048D01*
X43284527Y-48371556D01*
X43287176Y-48373085D01*
X43324650Y-48329086D01*
X43393671Y-48308500D01*
X43472826Y-48308500D01*
X43540947Y-48328502D01*
G37*
%TD.AperFunction*%
%TA.AperFunction,Conductor*%
G36*
X41516650Y-47628502D02*
G01*
X41563143Y-47682158D01*
X41573247Y-47752432D01*
X41568363Y-47773432D01*
X41556458Y-47810072D01*
X41555768Y-47816633D01*
X41555768Y-47816635D01*
X41540019Y-47966479D01*
X41536496Y-48000000D01*
X41536684Y-48001786D01*
X41517184Y-48068196D01*
X41500281Y-48089170D01*
X41273095Y-48316356D01*
X41210783Y-48350382D01*
X41139968Y-48345317D01*
X41083132Y-48302770D01*
X41058321Y-48236250D01*
X41058000Y-48227261D01*
X41058000Y-48079562D01*
X41057663Y-48073047D01*
X41048106Y-47980943D01*
X41045212Y-47967544D01*
X40995619Y-47818893D01*
X40989448Y-47805719D01*
X40986406Y-47800804D01*
X40967568Y-47732352D01*
X40988729Y-47664582D01*
X41043169Y-47619011D01*
X41093550Y-47608500D01*
X41448529Y-47608500D01*
X41516650Y-47628502D01*
G37*
%TD.AperFunction*%
%TA.AperFunction,Conductor*%
G36*
X47993719Y-41825619D02*
G01*
X48008602Y-41846258D01*
X48060960Y-41936944D01*
X48065378Y-41941851D01*
X48065379Y-41941852D01*
X48177864Y-42066779D01*
X48188747Y-42078866D01*
X48343248Y-42191118D01*
X48349276Y-42193802D01*
X48349278Y-42193803D01*
X48511679Y-42266108D01*
X48517712Y-42268794D01*
X48611113Y-42288647D01*
X48698056Y-42307128D01*
X48698061Y-42307128D01*
X48704513Y-42308500D01*
X48895487Y-42308500D01*
X48901939Y-42307128D01*
X48901944Y-42307128D01*
X48988887Y-42288647D01*
X49082288Y-42268794D01*
X49088315Y-42266111D01*
X49088323Y-42266108D01*
X49214252Y-42210041D01*
X49284619Y-42200607D01*
X49348916Y-42230714D01*
X49386729Y-42290803D01*
X49391500Y-42325148D01*
X49391500Y-45188803D01*
X49371498Y-45256924D01*
X49317842Y-45303417D01*
X49247568Y-45313521D01*
X49182988Y-45284027D01*
X49144103Y-45221178D01*
X49143474Y-45216203D01*
X49136774Y-45199280D01*
X49127200Y-45175097D01*
X49123355Y-45163870D01*
X49113503Y-45129961D01*
X49108500Y-45094806D01*
X49108500Y-44914516D01*
X49107662Y-44903866D01*
X49106111Y-44884156D01*
X49106110Y-44884151D01*
X49105606Y-44877746D01*
X49071963Y-44761944D01*
X49062106Y-44728016D01*
X49062105Y-44728014D01*
X49059894Y-44720403D01*
X49048797Y-44701640D01*
X49031337Y-44632826D01*
X49048797Y-44573360D01*
X49059894Y-44554597D01*
X49105606Y-44397254D01*
X49107138Y-44377800D01*
X49108307Y-44362940D01*
X49108307Y-44362932D01*
X49108500Y-44360484D01*
X49108500Y-43889516D01*
X49108307Y-43887060D01*
X49106111Y-43859156D01*
X49106110Y-43859151D01*
X49105606Y-43852746D01*
X49059894Y-43695403D01*
X49043546Y-43667760D01*
X49026000Y-43603621D01*
X49026000Y-43331442D01*
X49022027Y-43317911D01*
X49014129Y-43316776D01*
X48888216Y-43353357D01*
X48873778Y-43359605D01*
X48864628Y-43365016D01*
X48795812Y-43382474D01*
X48736353Y-43365015D01*
X48726423Y-43359143D01*
X48726424Y-43359143D01*
X48719597Y-43355106D01*
X48711986Y-43352895D01*
X48711984Y-43352894D01*
X48615712Y-43324925D01*
X48562254Y-43309394D01*
X48555849Y-43308890D01*
X48555844Y-43308889D01*
X48527940Y-43306693D01*
X48527932Y-43306693D01*
X48525484Y-43306500D01*
X48114516Y-43306500D01*
X48112068Y-43306693D01*
X48112060Y-43306693D01*
X48084156Y-43308889D01*
X48084151Y-43308890D01*
X48077746Y-43309394D01*
X47944652Y-43348061D01*
X47873656Y-43347858D01*
X47814040Y-43309304D01*
X47784732Y-43244639D01*
X47783500Y-43227065D01*
X47783499Y-43129199D01*
X47783499Y-43125076D01*
X47768803Y-43013439D01*
X47766125Y-43006974D01*
X47766125Y-42943026D01*
X47768803Y-42936561D01*
X47783500Y-42824925D01*
X47783499Y-42625076D01*
X47768803Y-42513439D01*
X47766125Y-42506974D01*
X47766125Y-42443026D01*
X47768803Y-42436561D01*
X47783500Y-42324925D01*
X47783499Y-42125076D01*
X47782491Y-42117414D01*
X47769881Y-42021629D01*
X47768803Y-42013439D01*
X47766125Y-42006974D01*
X47766125Y-41943026D01*
X47768803Y-41936561D01*
X47774562Y-41892814D01*
X47803284Y-41827887D01*
X47862548Y-41788795D01*
X47933540Y-41787950D01*
X47993719Y-41825619D01*
G37*
%TD.AperFunction*%
%TA.AperFunction,Conductor*%
G36*
X39230304Y-43530020D02*
G01*
X39231303Y-43527710D01*
X39238581Y-43530859D01*
X39245403Y-43534894D01*
X39253014Y-43537105D01*
X39253016Y-43537106D01*
X39285706Y-43546603D01*
X39402746Y-43580606D01*
X39409151Y-43581110D01*
X39409156Y-43581111D01*
X39437060Y-43583307D01*
X39437068Y-43583307D01*
X39439516Y-43583500D01*
X39701761Y-43583500D01*
X39769882Y-43603502D01*
X39816375Y-43657158D01*
X39826479Y-43727432D01*
X39796985Y-43792012D01*
X39790856Y-43798595D01*
X39709856Y-43879595D01*
X39647544Y-43913621D01*
X39620761Y-43916500D01*
X38472000Y-43916500D01*
X38403879Y-43896498D01*
X38357386Y-43842842D01*
X38346000Y-43790500D01*
X38346000Y-43759500D01*
X38366002Y-43691379D01*
X38419658Y-43644886D01*
X38472000Y-43633500D01*
X38835484Y-43633500D01*
X38837932Y-43633307D01*
X38837940Y-43633307D01*
X38865844Y-43631111D01*
X38865849Y-43631110D01*
X38872254Y-43630606D01*
X39010628Y-43590405D01*
X39021984Y-43587106D01*
X39021986Y-43587105D01*
X39029597Y-43584894D01*
X39059312Y-43567321D01*
X39115634Y-43534012D01*
X39184450Y-43516553D01*
X39230304Y-43530020D01*
G37*
%TD.AperFunction*%
%TA.AperFunction,Conductor*%
G36*
X33987027Y-35953502D02*
G01*
X34033520Y-36007158D01*
X34039902Y-36024345D01*
X34059731Y-36092596D01*
X34063766Y-36099418D01*
X34063766Y-36099419D01*
X34128439Y-36208776D01*
X34142494Y-36232541D01*
X34148100Y-36238147D01*
X34152956Y-36244407D01*
X34151895Y-36245230D01*
X34181967Y-36300300D01*
X34176902Y-36371115D01*
X34167299Y-36391222D01*
X34109607Y-36488774D01*
X34103357Y-36503216D01*
X34061688Y-36646641D01*
X34060232Y-36654609D01*
X34063052Y-36668031D01*
X34074513Y-36671000D01*
X34756317Y-36671000D01*
X34824438Y-36691002D01*
X34833021Y-36697037D01*
X34847925Y-36708474D01*
X34847928Y-36708477D01*
X34912776Y-36758236D01*
X34943125Y-36781524D01*
X34950749Y-36784682D01*
X34953501Y-36786271D01*
X35002494Y-36837654D01*
X35016500Y-36895389D01*
X35016500Y-37053000D01*
X34996498Y-37121121D01*
X34942842Y-37167614D01*
X34890500Y-37179000D01*
X34076576Y-37179000D01*
X34061781Y-37183344D01*
X34059937Y-37193775D01*
X34061688Y-37203359D01*
X34103357Y-37346784D01*
X34109604Y-37361220D01*
X34184876Y-37488499D01*
X34194516Y-37500926D01*
X34299074Y-37605484D01*
X34311501Y-37615124D01*
X34438780Y-37690396D01*
X34453216Y-37696643D01*
X34596641Y-37738312D01*
X34609244Y-37740614D01*
X34637100Y-37742806D01*
X34644371Y-37743092D01*
X34711654Y-37765752D01*
X34756006Y-37821191D01*
X34764736Y-37855824D01*
X34781458Y-38014928D01*
X34840473Y-38196556D01*
X34935960Y-38361944D01*
X34940378Y-38366851D01*
X34940379Y-38366852D01*
X34967320Y-38396773D01*
X35063747Y-38503866D01*
X35150749Y-38567077D01*
X35189178Y-38594997D01*
X35218248Y-38616118D01*
X35224276Y-38618802D01*
X35224278Y-38618803D01*
X35335184Y-38668181D01*
X35392712Y-38693794D01*
X35477560Y-38711829D01*
X35573056Y-38732128D01*
X35573061Y-38732128D01*
X35579513Y-38733500D01*
X35770487Y-38733500D01*
X35776939Y-38732128D01*
X35776944Y-38732128D01*
X35872440Y-38711829D01*
X35957288Y-38693794D01*
X36014816Y-38668181D01*
X36125722Y-38618803D01*
X36125724Y-38618802D01*
X36131752Y-38616118D01*
X36160823Y-38594997D01*
X36199251Y-38567077D01*
X36286253Y-38503866D01*
X36382680Y-38396773D01*
X36409621Y-38366852D01*
X36409622Y-38366851D01*
X36414040Y-38361944D01*
X36509527Y-38196556D01*
X36568542Y-38014928D01*
X36588504Y-37825000D01*
X36568542Y-37635072D01*
X36518919Y-37482349D01*
X36516891Y-37411384D01*
X36530297Y-37379280D01*
X36544894Y-37354597D01*
X36590606Y-37197254D01*
X36591472Y-37186262D01*
X36593307Y-37162940D01*
X36593307Y-37162932D01*
X36593500Y-37160484D01*
X36593500Y-36689516D01*
X36593307Y-36687060D01*
X36591111Y-36659156D01*
X36591110Y-36659151D01*
X36590606Y-36652746D01*
X36560376Y-36548694D01*
X36547106Y-36503016D01*
X36547105Y-36503014D01*
X36544894Y-36495403D01*
X36535114Y-36478865D01*
X36482200Y-36389393D01*
X36464741Y-36320577D01*
X36487258Y-36253246D01*
X36542602Y-36208776D01*
X36613203Y-36201288D01*
X36679749Y-36236159D01*
X36724074Y-36280484D01*
X36736501Y-36290124D01*
X36863780Y-36365396D01*
X36878216Y-36371643D01*
X37021641Y-36413312D01*
X37034244Y-36415614D01*
X37050534Y-36416896D01*
X37116875Y-36442181D01*
X37159016Y-36499318D01*
X37165958Y-36545428D01*
X37166500Y-36545428D01*
X37166500Y-37079572D01*
X37177022Y-37180982D01*
X37230692Y-37341849D01*
X37319929Y-37486055D01*
X37344805Y-37510887D01*
X37378884Y-37573168D01*
X37373882Y-37643988D01*
X37344960Y-37689078D01*
X37319136Y-37714947D01*
X37315296Y-37721177D01*
X37315295Y-37721178D01*
X37301787Y-37743092D01*
X37230151Y-37859308D01*
X37227846Y-37866256D01*
X37227846Y-37866257D01*
X37179754Y-38011250D01*
X37176762Y-38020269D01*
X37166500Y-38120428D01*
X37166500Y-38654572D01*
X37166837Y-38657816D01*
X37166837Y-38657824D01*
X37175598Y-38742263D01*
X37162733Y-38812084D01*
X37114162Y-38863866D01*
X37085425Y-38876263D01*
X37078214Y-38878358D01*
X37063780Y-38884604D01*
X36936501Y-38959876D01*
X36924074Y-38969516D01*
X36819516Y-39074074D01*
X36809876Y-39086501D01*
X36734604Y-39213780D01*
X36728357Y-39228216D01*
X36686688Y-39371641D01*
X36685232Y-39379609D01*
X36688052Y-39393031D01*
X36699513Y-39396000D01*
X37515500Y-39396000D01*
X37583621Y-39416002D01*
X37630114Y-39469658D01*
X37641500Y-39522000D01*
X37641500Y-39885484D01*
X37641693Y-39887932D01*
X37641693Y-39887940D01*
X37643558Y-39911629D01*
X37644394Y-39922254D01*
X37690106Y-40079597D01*
X37694141Y-40086419D01*
X37694141Y-40086420D01*
X37706454Y-40107240D01*
X37724000Y-40171379D01*
X37724000Y-40443558D01*
X37727973Y-40457089D01*
X37735871Y-40458224D01*
X37806364Y-40437744D01*
X37877360Y-40437947D01*
X37936977Y-40476501D01*
X37957927Y-40510525D01*
X37971904Y-40544270D01*
X37998420Y-40608288D01*
X38133518Y-40852741D01*
X38295137Y-41080532D01*
X38297496Y-41083172D01*
X38297497Y-41083173D01*
X38452647Y-41256792D01*
X38459449Y-41265090D01*
X38469896Y-41279004D01*
X38480354Y-41289684D01*
X38483596Y-41292226D01*
X38483597Y-41292227D01*
X38508476Y-41311735D01*
X38519823Y-41321793D01*
X38679404Y-41481374D01*
X38691070Y-41494817D01*
X38707222Y-41516330D01*
X38717680Y-41527010D01*
X38730212Y-41536837D01*
X38737061Y-41542613D01*
X38944940Y-41731024D01*
X38947423Y-41732865D01*
X38947426Y-41732868D01*
X39163622Y-41893210D01*
X39206422Y-41949855D01*
X39211803Y-42020648D01*
X39178056Y-42083111D01*
X39115896Y-42117414D01*
X39038524Y-42110052D01*
X39036422Y-42109143D01*
X39029597Y-42105106D01*
X39021984Y-42102894D01*
X39021981Y-42102893D01*
X38952643Y-42082749D01*
X38872254Y-42059394D01*
X38865849Y-42058890D01*
X38865844Y-42058889D01*
X38837940Y-42056693D01*
X38837932Y-42056693D01*
X38835484Y-42056500D01*
X38364516Y-42056500D01*
X38362061Y-42056693D01*
X38362041Y-42056694D01*
X38355246Y-42057229D01*
X38285765Y-42042635D01*
X38256262Y-42020713D01*
X38220405Y-41984856D01*
X38186379Y-41922544D01*
X38183500Y-41895761D01*
X38183500Y-41551268D01*
X38182002Y-41536825D01*
X38173598Y-41455837D01*
X38172887Y-41448981D01*
X38142584Y-41358153D01*
X38121073Y-41293676D01*
X38121072Y-41293674D01*
X38118756Y-41286732D01*
X38105369Y-41265098D01*
X38032606Y-41147515D01*
X38028752Y-41141287D01*
X37907702Y-41020448D01*
X37898676Y-41014884D01*
X37768331Y-40934538D01*
X37768329Y-40934537D01*
X37762101Y-40930698D01*
X37599757Y-40876851D01*
X37592920Y-40876151D01*
X37592918Y-40876150D01*
X37551599Y-40871917D01*
X37498732Y-40866500D01*
X37102169Y-40866500D01*
X37053951Y-40856909D01*
X36933851Y-40807162D01*
X36925664Y-40806084D01*
X36925663Y-40806084D01*
X36914458Y-40804609D01*
X36863687Y-40797925D01*
X36814885Y-40791500D01*
X36814882Y-40791500D01*
X36814874Y-40791499D01*
X36783189Y-40787328D01*
X36775000Y-40786250D01*
X36743307Y-40790422D01*
X36726864Y-40791500D01*
X36655710Y-40791500D01*
X36587589Y-40771498D01*
X36562074Y-40749811D01*
X36540668Y-40726037D01*
X36540666Y-40726036D01*
X36536253Y-40721134D01*
X36403078Y-40624376D01*
X36387094Y-40612763D01*
X36387093Y-40612762D01*
X36381752Y-40608882D01*
X36375724Y-40606198D01*
X36375722Y-40606197D01*
X36213319Y-40533891D01*
X36213318Y-40533891D01*
X36207288Y-40531206D01*
X36109992Y-40510525D01*
X36026944Y-40492872D01*
X36026939Y-40492872D01*
X36020487Y-40491500D01*
X35829513Y-40491500D01*
X35823061Y-40492872D01*
X35823056Y-40492872D01*
X35740008Y-40510525D01*
X35642712Y-40531206D01*
X35636682Y-40533891D01*
X35636681Y-40533891D01*
X35474278Y-40606197D01*
X35474276Y-40606198D01*
X35468248Y-40608882D01*
X35462907Y-40612762D01*
X35462906Y-40612763D01*
X35446922Y-40624376D01*
X35313747Y-40721134D01*
X35309326Y-40726044D01*
X35309325Y-40726045D01*
X35195248Y-40852741D01*
X35185960Y-40863056D01*
X35160698Y-40906811D01*
X35095090Y-41020448D01*
X35090473Y-41028444D01*
X35064924Y-41107077D01*
X35055553Y-41135917D01*
X35015480Y-41194523D01*
X34950083Y-41222160D01*
X34880126Y-41210053D01*
X34846625Y-41186076D01*
X34445405Y-40784856D01*
X34411379Y-40722544D01*
X34408500Y-40695761D01*
X34408500Y-39918775D01*
X36684937Y-39918775D01*
X36686688Y-39928359D01*
X36728357Y-40071784D01*
X36734604Y-40086220D01*
X36809876Y-40213499D01*
X36819516Y-40225926D01*
X36924074Y-40330484D01*
X36936501Y-40340124D01*
X37063780Y-40415396D01*
X37078216Y-40421643D01*
X37198605Y-40456619D01*
X37212705Y-40456579D01*
X37216000Y-40449309D01*
X37216000Y-39922115D01*
X37211525Y-39906876D01*
X37210135Y-39905671D01*
X37202452Y-39904000D01*
X36701576Y-39904000D01*
X36686781Y-39908344D01*
X36684937Y-39918775D01*
X34408500Y-39918775D01*
X34408500Y-39313136D01*
X34409578Y-39296690D01*
X34409854Y-39294598D01*
X34413750Y-39265000D01*
X34412383Y-39254612D01*
X34408500Y-39225120D01*
X34408500Y-39225115D01*
X34393916Y-39114340D01*
X34393617Y-39112069D01*
X34392838Y-39106149D01*
X34331524Y-38958124D01*
X34324994Y-38949613D01*
X34258483Y-38862936D01*
X34258477Y-38862928D01*
X34258474Y-38862925D01*
X34233987Y-38831013D01*
X34227432Y-38825983D01*
X34208621Y-38811548D01*
X34196230Y-38800681D01*
X32895386Y-37499837D01*
X32865857Y-37452399D01*
X32865431Y-37450702D01*
X32776354Y-37245840D01*
X32721135Y-37160484D01*
X32657822Y-37062617D01*
X32657820Y-37062614D01*
X32655014Y-37058277D01*
X32651532Y-37054450D01*
X32507798Y-36896488D01*
X32476746Y-36832642D01*
X32485141Y-36762143D01*
X32530317Y-36707375D01*
X32556761Y-36693706D01*
X32663297Y-36653767D01*
X32671705Y-36650615D01*
X32788261Y-36563261D01*
X32875615Y-36446705D01*
X32926745Y-36310316D01*
X32933500Y-36248134D01*
X32933500Y-36059500D01*
X32953502Y-35991379D01*
X33007158Y-35944886D01*
X33059500Y-35933500D01*
X33918906Y-35933500D01*
X33987027Y-35953502D01*
G37*
%TD.AperFunction*%
%TA.AperFunction,Conductor*%
G36*
X44521882Y-32697398D02*
G01*
X49316772Y-32697993D01*
X49359225Y-32707330D01*
X49359517Y-32706353D01*
X49384120Y-32713711D01*
X49401564Y-32720372D01*
X49416676Y-32727467D01*
X49416678Y-32727468D01*
X49424800Y-32731281D01*
X49433667Y-32732662D01*
X49433668Y-32732662D01*
X49436353Y-32733080D01*
X49454017Y-32735830D01*
X49470732Y-32739613D01*
X49490466Y-32745515D01*
X49490472Y-32745516D01*
X49499066Y-32748086D01*
X49508037Y-32748141D01*
X49508038Y-32748141D01*
X49518097Y-32748202D01*
X49533506Y-32748296D01*
X49534289Y-32748329D01*
X49535386Y-32748500D01*
X49566377Y-32748500D01*
X49567147Y-32748502D01*
X49640785Y-32748952D01*
X49640786Y-32748952D01*
X49644721Y-32748976D01*
X49646065Y-32748592D01*
X49647410Y-32748500D01*
X50066377Y-32748500D01*
X50067148Y-32748502D01*
X50144721Y-32748976D01*
X50173152Y-32740850D01*
X50189915Y-32737272D01*
X50190753Y-32737152D01*
X50219187Y-32733080D01*
X50242564Y-32722451D01*
X50260087Y-32716004D01*
X50276141Y-32711416D01*
X50276144Y-32711415D01*
X50284771Y-32708949D01*
X50286172Y-32708065D01*
X50332779Y-32698119D01*
X53224414Y-32698477D01*
X54372383Y-32698619D01*
X54440500Y-32718629D01*
X54486986Y-32772291D01*
X54498366Y-32824737D01*
X54497333Y-33923164D01*
X54477267Y-33991266D01*
X54423567Y-34037709D01*
X54353284Y-34047747D01*
X54310823Y-34033566D01*
X54303892Y-34029771D01*
X54296705Y-34024385D01*
X54160316Y-33973255D01*
X54098134Y-33966500D01*
X52301866Y-33966500D01*
X52239684Y-33973255D01*
X52103295Y-34024385D01*
X51986739Y-34111739D01*
X51899385Y-34228295D01*
X51848255Y-34364684D01*
X51841500Y-34426866D01*
X51841500Y-34590500D01*
X51821498Y-34658621D01*
X51767842Y-34705114D01*
X51715500Y-34716500D01*
X50123144Y-34716500D01*
X50106698Y-34715422D01*
X50083188Y-34712327D01*
X50075000Y-34711249D01*
X49916149Y-34732162D01*
X49768124Y-34793476D01*
X49728356Y-34823991D01*
X49672937Y-34866515D01*
X49672921Y-34866529D01*
X49647566Y-34885984D01*
X49647563Y-34885987D01*
X49641013Y-34891013D01*
X49635983Y-34897568D01*
X49621548Y-34916379D01*
X49610681Y-34928770D01*
X48603766Y-35935685D01*
X48591375Y-35946552D01*
X48566013Y-35966013D01*
X48541526Y-35997925D01*
X48541523Y-35997928D01*
X48468476Y-36093124D01*
X48434230Y-36175801D01*
X48409129Y-36236400D01*
X48364581Y-36291681D01*
X48297217Y-36314102D01*
X48257568Y-36309179D01*
X48178434Y-36286189D01*
X48178430Y-36286188D01*
X48172254Y-36284394D01*
X48165849Y-36283890D01*
X48165844Y-36283889D01*
X48137940Y-36281693D01*
X48137932Y-36281693D01*
X48135484Y-36281500D01*
X48024239Y-36281500D01*
X47956118Y-36261498D01*
X47935144Y-36244595D01*
X47670405Y-35979856D01*
X47636379Y-35917544D01*
X47633500Y-35890761D01*
X47633500Y-35651866D01*
X47626745Y-35589684D01*
X47575615Y-35453295D01*
X47488261Y-35336739D01*
X47371705Y-35249385D01*
X47235316Y-35198255D01*
X47173134Y-35191500D01*
X45676866Y-35191500D01*
X45614684Y-35198255D01*
X45478295Y-35249385D01*
X45430302Y-35285354D01*
X45400148Y-35307953D01*
X45333642Y-35332801D01*
X45264259Y-35317748D01*
X45249018Y-35307953D01*
X45178648Y-35255214D01*
X45163054Y-35246676D01*
X45042606Y-35201522D01*
X45027351Y-35197895D01*
X44976486Y-35192369D01*
X44969672Y-35192000D01*
X44497115Y-35192000D01*
X44481876Y-35196475D01*
X44480671Y-35197865D01*
X44479000Y-35205548D01*
X44479000Y-36428000D01*
X44458998Y-36496121D01*
X44405342Y-36542614D01*
X44353000Y-36554000D01*
X44097000Y-36554000D01*
X44028879Y-36533998D01*
X43982386Y-36480342D01*
X43971000Y-36428000D01*
X43971000Y-35210116D01*
X43966525Y-35194877D01*
X43965135Y-35193672D01*
X43957452Y-35192001D01*
X43480331Y-35192001D01*
X43473510Y-35192371D01*
X43422648Y-35197895D01*
X43407396Y-35201521D01*
X43286946Y-35246676D01*
X43271351Y-35255214D01*
X43169276Y-35331715D01*
X43156715Y-35344276D01*
X43080214Y-35446351D01*
X43071676Y-35461946D01*
X43026522Y-35582394D01*
X43022895Y-35597649D01*
X43017369Y-35648514D01*
X43017000Y-35655328D01*
X43017000Y-36175801D01*
X42996998Y-36243922D01*
X42979460Y-36265528D01*
X42957091Y-36287581D01*
X42954000Y-36299513D01*
X42954000Y-37115500D01*
X42933998Y-37183621D01*
X42880342Y-37230114D01*
X42828000Y-37241500D01*
X42572000Y-37241500D01*
X42503879Y-37221498D01*
X42457386Y-37167842D01*
X42446000Y-37115500D01*
X42446000Y-36301576D01*
X42441656Y-36286781D01*
X42431225Y-36284937D01*
X42421641Y-36286688D01*
X42366771Y-36302629D01*
X42295775Y-36302426D01*
X42236159Y-36263872D01*
X42206850Y-36199208D01*
X42206308Y-36168465D01*
X42213504Y-36100000D01*
X42196234Y-35935685D01*
X42194232Y-35916635D01*
X42194232Y-35916633D01*
X42193542Y-35910072D01*
X42134527Y-35728444D01*
X42039040Y-35563056D01*
X41947782Y-35461703D01*
X41915675Y-35426045D01*
X41915674Y-35426044D01*
X41911253Y-35421134D01*
X41812157Y-35349136D01*
X41762094Y-35312763D01*
X41762093Y-35312762D01*
X41756752Y-35308882D01*
X41750724Y-35306198D01*
X41750722Y-35306197D01*
X41588319Y-35233891D01*
X41588318Y-35233891D01*
X41582288Y-35231206D01*
X41483068Y-35210116D01*
X41401944Y-35192872D01*
X41401939Y-35192872D01*
X41395487Y-35191500D01*
X41204513Y-35191500D01*
X41198061Y-35192872D01*
X41198056Y-35192872D01*
X41116932Y-35210116D01*
X41017712Y-35231206D01*
X41011682Y-35233891D01*
X41011681Y-35233891D01*
X40849278Y-35306197D01*
X40849276Y-35306198D01*
X40843248Y-35308882D01*
X40837907Y-35312762D01*
X40837906Y-35312763D01*
X40787843Y-35349136D01*
X40688747Y-35421134D01*
X40684326Y-35426044D01*
X40684325Y-35426045D01*
X40652219Y-35461703D01*
X40560960Y-35563056D01*
X40465473Y-35728444D01*
X40406458Y-35910072D01*
X40405768Y-35916633D01*
X40405768Y-35916635D01*
X40403766Y-35935685D01*
X40386496Y-36100000D01*
X40387186Y-36106564D01*
X40387186Y-36106565D01*
X40399183Y-36220712D01*
X40386411Y-36290550D01*
X40337909Y-36342397D01*
X40309027Y-36354879D01*
X40228214Y-36378358D01*
X40213780Y-36384604D01*
X40086501Y-36459876D01*
X40074074Y-36469516D01*
X39969516Y-36574074D01*
X39959876Y-36586501D01*
X39884604Y-36713780D01*
X39878357Y-36728216D01*
X39836688Y-36871641D01*
X39835232Y-36879609D01*
X39838052Y-36893031D01*
X39849513Y-36896000D01*
X40615500Y-36896000D01*
X40683621Y-36916002D01*
X40730114Y-36969658D01*
X40741500Y-37022000D01*
X40741500Y-39296233D01*
X40740973Y-39307416D01*
X40739298Y-39314909D01*
X40739547Y-39322835D01*
X40739547Y-39322836D01*
X40741438Y-39382986D01*
X40741500Y-39386945D01*
X40741500Y-39414856D01*
X40741997Y-39418790D01*
X40741997Y-39418791D01*
X40742005Y-39418856D01*
X40742938Y-39430693D01*
X40744327Y-39474889D01*
X40749978Y-39494339D01*
X40753987Y-39513700D01*
X40756526Y-39533797D01*
X40759445Y-39541168D01*
X40759445Y-39541170D01*
X40772804Y-39574912D01*
X40776649Y-39586142D01*
X40781435Y-39602617D01*
X40788982Y-39628593D01*
X40793015Y-39635412D01*
X40793017Y-39635417D01*
X40799293Y-39646028D01*
X40807988Y-39663776D01*
X40815448Y-39682617D01*
X40820110Y-39689033D01*
X40820110Y-39689034D01*
X40841436Y-39718387D01*
X40847952Y-39728307D01*
X40850573Y-39732738D01*
X40870458Y-39766362D01*
X40884779Y-39780683D01*
X40897619Y-39795716D01*
X40909528Y-39812107D01*
X40915634Y-39817158D01*
X40943605Y-39840298D01*
X40952384Y-39848288D01*
X41979595Y-40875499D01*
X42013621Y-40937811D01*
X42016500Y-40964594D01*
X42016500Y-40965500D01*
X41996498Y-41033621D01*
X41942842Y-41080114D01*
X41890500Y-41091500D01*
X41564855Y-41091501D01*
X41550076Y-41091501D01*
X41545992Y-41092039D01*
X41545986Y-41092039D01*
X41446626Y-41105119D01*
X41446624Y-41105120D01*
X41438439Y-41106197D01*
X41430810Y-41109357D01*
X41422832Y-41111495D01*
X41422368Y-41109762D01*
X41388504Y-41116500D01*
X41323893Y-41116500D01*
X41264350Y-41101543D01*
X41262176Y-41100377D01*
X41255962Y-41096010D01*
X41171636Y-41063133D01*
X41103272Y-41036478D01*
X41103269Y-41036477D01*
X41096192Y-41033718D01*
X41088659Y-41032726D01*
X41088658Y-41032726D01*
X40933706Y-41012326D01*
X40933702Y-41012326D01*
X40926175Y-41011335D01*
X40917199Y-41012326D01*
X40905038Y-41013668D01*
X40882972Y-41014159D01*
X40706290Y-41002579D01*
X40689949Y-41000428D01*
X40489262Y-40960508D01*
X40473343Y-40956242D01*
X40279597Y-40890475D01*
X40264369Y-40884168D01*
X40080852Y-40793667D01*
X40066579Y-40785426D01*
X39896456Y-40671753D01*
X39883381Y-40661720D01*
X39756154Y-40550146D01*
X39739266Y-40532114D01*
X39736894Y-40529022D01*
X39736892Y-40529020D01*
X39732269Y-40522995D01*
X39700942Y-40497897D01*
X39690628Y-40488658D01*
X39524890Y-40322920D01*
X39514021Y-40310527D01*
X39499583Y-40291710D01*
X39499582Y-40291709D01*
X39494959Y-40285684D01*
X39487942Y-40280062D01*
X39480254Y-40273902D01*
X39463230Y-40257404D01*
X39383424Y-40163963D01*
X39371810Y-40147975D01*
X39294474Y-40021767D01*
X39285498Y-40004151D01*
X39245208Y-39906876D01*
X39228851Y-39867386D01*
X39222744Y-39848586D01*
X39221978Y-39845397D01*
X39218500Y-39815997D01*
X39218500Y-39414516D01*
X39218307Y-39412060D01*
X39216111Y-39384156D01*
X39216110Y-39384151D01*
X39215606Y-39377746D01*
X39213813Y-39371574D01*
X39213812Y-39371569D01*
X39194488Y-39305058D01*
X39193503Y-39301666D01*
X39188500Y-39266514D01*
X39188500Y-38818775D01*
X39834937Y-38818775D01*
X39836688Y-38828359D01*
X39878357Y-38971784D01*
X39884604Y-38986220D01*
X39959876Y-39113499D01*
X39969516Y-39125926D01*
X40074074Y-39230484D01*
X40086501Y-39240124D01*
X40213780Y-39315396D01*
X40228216Y-39321643D01*
X40348605Y-39356619D01*
X40362705Y-39356579D01*
X40366000Y-39349309D01*
X40366000Y-38822115D01*
X40361525Y-38806876D01*
X40360135Y-38805671D01*
X40352452Y-38804000D01*
X39851576Y-38804000D01*
X39836781Y-38808344D01*
X39834937Y-38818775D01*
X39188500Y-38818775D01*
X39188500Y-38734570D01*
X39189933Y-38715620D01*
X39192099Y-38701385D01*
X39192099Y-38701381D01*
X39193199Y-38694151D01*
X39190563Y-38661735D01*
X39188915Y-38641482D01*
X39188500Y-38631267D01*
X39188500Y-38623207D01*
X39187755Y-38616811D01*
X39185211Y-38594997D01*
X39184778Y-38590621D01*
X39179453Y-38525160D01*
X39178860Y-38517864D01*
X39176605Y-38510903D01*
X39175418Y-38504963D01*
X39174029Y-38499088D01*
X39173182Y-38491819D01*
X39148264Y-38423170D01*
X39146847Y-38419042D01*
X39139633Y-38396773D01*
X39133500Y-38357942D01*
X39133500Y-38120428D01*
X39130376Y-38090314D01*
X39127844Y-38065917D01*
X39122978Y-38019018D01*
X39069308Y-37858151D01*
X38980071Y-37713945D01*
X38955195Y-37689113D01*
X38921116Y-37626832D01*
X38926118Y-37556012D01*
X38955040Y-37510922D01*
X38975693Y-37490233D01*
X38980864Y-37485053D01*
X39021718Y-37418775D01*
X39834937Y-37418775D01*
X39836688Y-37428359D01*
X39878357Y-37571784D01*
X39884604Y-37586220D01*
X39959876Y-37713499D01*
X39969516Y-37725926D01*
X40004495Y-37760905D01*
X40038521Y-37823217D01*
X40033456Y-37894032D01*
X40004495Y-37939095D01*
X39969516Y-37974074D01*
X39959876Y-37986501D01*
X39884604Y-38113780D01*
X39878357Y-38128216D01*
X39836688Y-38271641D01*
X39835232Y-38279609D01*
X39838052Y-38293031D01*
X39849513Y-38296000D01*
X40347885Y-38296000D01*
X40363124Y-38291525D01*
X40364329Y-38290135D01*
X40366000Y-38282452D01*
X40366000Y-37422115D01*
X40361525Y-37406876D01*
X40360135Y-37405671D01*
X40352452Y-37404000D01*
X39851576Y-37404000D01*
X39836781Y-37408344D01*
X39834937Y-37418775D01*
X39021718Y-37418775D01*
X39069849Y-37340692D01*
X39099735Y-37250590D01*
X39121072Y-37186262D01*
X39121072Y-37186260D01*
X39123238Y-37179731D01*
X39133500Y-37079572D01*
X39133500Y-36545428D01*
X39132757Y-36538261D01*
X39128384Y-36496121D01*
X39122978Y-36444018D01*
X39105364Y-36391222D01*
X39071625Y-36290095D01*
X39071624Y-36290093D01*
X39069308Y-36283151D01*
X39027354Y-36215354D01*
X39008500Y-36149054D01*
X39008500Y-35914646D01*
X39012749Y-35884785D01*
X39012654Y-35884768D01*
X39013096Y-35882348D01*
X39013502Y-35879495D01*
X39013812Y-35878428D01*
X39015606Y-35872254D01*
X39018500Y-35835484D01*
X39018500Y-35364516D01*
X39018307Y-35362060D01*
X39016111Y-35334156D01*
X39016110Y-35334151D01*
X39015606Y-35327746D01*
X39013502Y-35320503D01*
X39013096Y-35317652D01*
X39012654Y-35315232D01*
X39012749Y-35315215D01*
X39008500Y-35285354D01*
X39008500Y-33042063D01*
X39009933Y-33023114D01*
X39012097Y-33008886D01*
X39013198Y-33001651D01*
X39008915Y-32948990D01*
X39008500Y-32938777D01*
X39008500Y-32930707D01*
X39008078Y-32927087D01*
X39008077Y-32927069D01*
X39005208Y-32902461D01*
X39004775Y-32898085D01*
X38999477Y-32832944D01*
X39013891Y-32763426D01*
X39063601Y-32712737D01*
X39125078Y-32696730D01*
X44521882Y-32697398D01*
G37*
%TD.AperFunction*%
%TA.AperFunction,Conductor*%
G36*
X47392033Y-37763547D02*
G01*
X47463574Y-37805856D01*
X47463578Y-37805858D01*
X47470403Y-37809894D01*
X47478014Y-37812105D01*
X47478016Y-37812106D01*
X47570988Y-37839117D01*
X47630824Y-37877330D01*
X47660501Y-37941827D01*
X47650597Y-38012129D01*
X47604258Y-38065917D01*
X47584052Y-38076523D01*
X47550756Y-38090314D01*
X47550752Y-38090317D01*
X47543124Y-38093476D01*
X47512235Y-38117178D01*
X47447937Y-38166515D01*
X47447921Y-38166529D01*
X47422566Y-38185984D01*
X47422563Y-38185987D01*
X47416013Y-38191013D01*
X47410983Y-38197568D01*
X47396548Y-38216379D01*
X47385681Y-38228770D01*
X47367356Y-38247095D01*
X47305044Y-38281121D01*
X47278261Y-38284000D01*
X47115824Y-38284000D01*
X47047703Y-38263998D01*
X47036762Y-38255808D01*
X47028452Y-38254000D01*
X46297000Y-38254000D01*
X46228879Y-38233998D01*
X46182386Y-38180342D01*
X46171000Y-38128000D01*
X46171000Y-37872000D01*
X46191002Y-37803879D01*
X46244658Y-37757386D01*
X46297000Y-37746000D01*
X47327894Y-37746000D01*
X47392033Y-37763547D01*
G37*
%TD.AperFunction*%
%TA.AperFunction,Conductor*%
G36*
X37249425Y-32696497D02*
G01*
X37340516Y-32696508D01*
X37408634Y-32716518D01*
X37455120Y-32770180D01*
X37466500Y-32822508D01*
X37466500Y-32882930D01*
X37465067Y-32901880D01*
X37461801Y-32923349D01*
X37462394Y-32930641D01*
X37462394Y-32930644D01*
X37466085Y-32976018D01*
X37466500Y-32986233D01*
X37466500Y-33191377D01*
X37466498Y-33192147D01*
X37466024Y-33269721D01*
X37468491Y-33278352D01*
X37469130Y-33283018D01*
X37471736Y-33296332D01*
X37473255Y-33310316D01*
X37476029Y-33317716D01*
X37477856Y-33325399D01*
X37477565Y-33325468D01*
X37477894Y-33326756D01*
X37478129Y-33326687D01*
X37480647Y-33335298D01*
X37481920Y-33344187D01*
X37485636Y-33352359D01*
X37486436Y-33355096D01*
X37491500Y-33390459D01*
X37491500Y-35147672D01*
X37486497Y-35182825D01*
X37478624Y-35209924D01*
X37444394Y-35327746D01*
X37443890Y-35334151D01*
X37443889Y-35334156D01*
X37441693Y-35362060D01*
X37441500Y-35364516D01*
X37441500Y-35728000D01*
X37421498Y-35796121D01*
X37367842Y-35842614D01*
X37315500Y-35854000D01*
X37142000Y-35854000D01*
X37073879Y-35833998D01*
X37027386Y-35780342D01*
X37016000Y-35728000D01*
X37016000Y-35358421D01*
X37035994Y-35290327D01*
X37039040Y-35286944D01*
X37134527Y-35121556D01*
X37193542Y-34939928D01*
X37199970Y-34878775D01*
X37212814Y-34756565D01*
X37212814Y-34756564D01*
X37213504Y-34750000D01*
X37193542Y-34560072D01*
X37134527Y-34378444D01*
X37039040Y-34213056D01*
X36911253Y-34071134D01*
X36756752Y-33958882D01*
X36693422Y-33930686D01*
X36639326Y-33884707D01*
X36618676Y-33816780D01*
X36638028Y-33748472D01*
X36691238Y-33701469D01*
X36709307Y-33694643D01*
X36710299Y-33694353D01*
X36719187Y-33693080D01*
X36742564Y-33682451D01*
X36760087Y-33676004D01*
X36784771Y-33668949D01*
X36792365Y-33664157D01*
X36792368Y-33664156D01*
X36809780Y-33653170D01*
X36824865Y-33645030D01*
X36851782Y-33632792D01*
X36871235Y-33616030D01*
X36886239Y-33604927D01*
X36907958Y-33591224D01*
X36913897Y-33584499D01*
X36913901Y-33584496D01*
X36927532Y-33569062D01*
X36939724Y-33557018D01*
X36955327Y-33543573D01*
X36955329Y-33543570D01*
X36962127Y-33537713D01*
X36976094Y-33516165D01*
X36987385Y-33501291D01*
X36998431Y-33488783D01*
X36998432Y-33488782D01*
X37004378Y-33482049D01*
X37016943Y-33455287D01*
X37025263Y-33440309D01*
X37036471Y-33423017D01*
X37036473Y-33423012D01*
X37041352Y-33415485D01*
X37043922Y-33406892D01*
X37043924Y-33406887D01*
X37048711Y-33390880D01*
X37055372Y-33373436D01*
X37062467Y-33358324D01*
X37062468Y-33358322D01*
X37066281Y-33350200D01*
X37070830Y-33320983D01*
X37074613Y-33304268D01*
X37080515Y-33284534D01*
X37080516Y-33284528D01*
X37083086Y-33275934D01*
X37083296Y-33241494D01*
X37083329Y-33240711D01*
X37083500Y-33239614D01*
X37083500Y-33208623D01*
X37083502Y-33207853D01*
X37083952Y-33134215D01*
X37083952Y-33134214D01*
X37083976Y-33130279D01*
X37083592Y-33128935D01*
X37083500Y-33127590D01*
X37083500Y-32822492D01*
X37103502Y-32754371D01*
X37157158Y-32707878D01*
X37209515Y-32696492D01*
X37249425Y-32696497D01*
G37*
%TD.AperFunction*%
%TA.AperFunction,Conductor*%
G36*
X34415495Y-32696146D02*
G01*
X35040516Y-32696223D01*
X35108634Y-32716233D01*
X35155120Y-32769895D01*
X35166500Y-32822223D01*
X35166500Y-32948162D01*
X35166498Y-32948932D01*
X35166024Y-33026506D01*
X35166408Y-33027850D01*
X35166500Y-33029195D01*
X35166500Y-33191377D01*
X35166498Y-33192147D01*
X35166024Y-33269721D01*
X35170258Y-33284534D01*
X35174150Y-33298153D01*
X35177728Y-33314915D01*
X35181920Y-33344187D01*
X35185634Y-33352355D01*
X35185634Y-33352356D01*
X35192548Y-33367562D01*
X35198996Y-33385086D01*
X35206051Y-33409771D01*
X35210843Y-33417365D01*
X35210844Y-33417368D01*
X35221830Y-33434780D01*
X35229969Y-33449863D01*
X35242208Y-33476782D01*
X35248069Y-33483584D01*
X35258970Y-33496235D01*
X35270073Y-33511239D01*
X35283776Y-33532958D01*
X35290501Y-33538897D01*
X35290504Y-33538901D01*
X35305938Y-33552532D01*
X35317982Y-33564724D01*
X35331427Y-33580327D01*
X35331430Y-33580329D01*
X35337287Y-33587127D01*
X35344816Y-33592007D01*
X35344817Y-33592008D01*
X35358835Y-33601094D01*
X35373709Y-33612385D01*
X35386217Y-33623431D01*
X35392951Y-33629378D01*
X35419711Y-33641942D01*
X35434691Y-33650263D01*
X35451983Y-33661471D01*
X35451988Y-33661473D01*
X35459515Y-33666352D01*
X35468108Y-33668922D01*
X35468113Y-33668924D01*
X35484120Y-33673711D01*
X35501564Y-33680372D01*
X35516676Y-33687467D01*
X35516678Y-33687468D01*
X35524800Y-33691281D01*
X35533667Y-33692662D01*
X35533668Y-33692662D01*
X35536353Y-33693080D01*
X35554017Y-33695830D01*
X35570732Y-33699613D01*
X35590466Y-33705515D01*
X35590472Y-33705516D01*
X35599066Y-33708086D01*
X35608037Y-33708141D01*
X35608038Y-33708141D01*
X35618097Y-33708202D01*
X35633506Y-33708296D01*
X35634289Y-33708329D01*
X35635386Y-33708500D01*
X35666377Y-33708500D01*
X35667147Y-33708502D01*
X35740785Y-33708952D01*
X35740786Y-33708952D01*
X35744721Y-33708976D01*
X35746065Y-33708592D01*
X35747410Y-33708500D01*
X35812831Y-33708500D01*
X35880952Y-33728502D01*
X35927445Y-33782158D01*
X35937549Y-33852432D01*
X35908055Y-33917012D01*
X35864080Y-33949607D01*
X35849278Y-33956197D01*
X35849276Y-33956198D01*
X35843248Y-33958882D01*
X35688747Y-34071134D01*
X35560960Y-34213056D01*
X35465473Y-34378444D01*
X35406458Y-34560072D01*
X35386496Y-34750000D01*
X35387186Y-34756564D01*
X35387241Y-34757087D01*
X35387186Y-34757388D01*
X35387186Y-34763170D01*
X35386129Y-34763170D01*
X35374473Y-34826926D01*
X35325974Y-34878775D01*
X35257142Y-34896173D01*
X35197795Y-34878719D01*
X35189421Y-34873767D01*
X35189419Y-34873766D01*
X35182596Y-34869731D01*
X35174985Y-34867520D01*
X35174983Y-34867519D01*
X35117743Y-34850890D01*
X35042256Y-34828958D01*
X35000705Y-34807924D01*
X34988428Y-34798503D01*
X34988425Y-34798501D01*
X34981876Y-34793476D01*
X34833851Y-34732162D01*
X34825664Y-34731084D01*
X34825663Y-34731084D01*
X34814458Y-34729609D01*
X34783262Y-34725502D01*
X34714885Y-34716500D01*
X34714882Y-34716500D01*
X34714874Y-34716499D01*
X34683189Y-34712328D01*
X34675000Y-34711250D01*
X34643307Y-34715422D01*
X34626864Y-34716500D01*
X33059500Y-34716500D01*
X32991379Y-34696498D01*
X32944886Y-34642842D01*
X32933500Y-34590500D01*
X32933500Y-34451866D01*
X32926745Y-34389684D01*
X32875615Y-34253295D01*
X32788261Y-34136739D01*
X32671705Y-34049385D01*
X32535316Y-33998255D01*
X32473134Y-33991500D01*
X30676866Y-33991500D01*
X30614684Y-33998255D01*
X30478295Y-34049385D01*
X30361739Y-34136739D01*
X30356358Y-34143919D01*
X30335326Y-34171982D01*
X30278467Y-34214497D01*
X30207649Y-34219523D01*
X30145355Y-34185463D01*
X30111365Y-34123132D01*
X30108500Y-34096417D01*
X30108500Y-32821628D01*
X30128502Y-32753507D01*
X30182158Y-32707014D01*
X30234516Y-32695628D01*
X34415495Y-32696146D01*
G37*
%TD.AperFunction*%
%TD*%
M02*
