%TF.GenerationSoftware,KiCad,Pcbnew,(6.0.7)*%
%TF.CreationDate,2022-08-05T17:10:29+02:00*%
%TF.ProjectId,C3_mini,43335f6d-696e-4692-9e6b-696361645f70,rev?*%
%TF.SameCoordinates,Original*%
%TF.FileFunction,Soldermask,Top*%
%TF.FilePolarity,Negative*%
%FSLAX46Y46*%
G04 Gerber Fmt 4.6, Leading zero omitted, Abs format (unit mm)*
G04 Created by KiCad (PCBNEW (6.0.7)) date 2022-08-05 17:10:29*
%MOMM*%
%LPD*%
G01*
G04 APERTURE LIST*
G04 Aperture macros list*
%AMRoundRect*
0 Rectangle with rounded corners*
0 $1 Rounding radius*
0 $2 $3 $4 $5 $6 $7 $8 $9 X,Y pos of 4 corners*
0 Add a 4 corners polygon primitive as box body*
4,1,4,$2,$3,$4,$5,$6,$7,$8,$9,$2,$3,0*
0 Add four circle primitives for the rounded corners*
1,1,$1+$1,$2,$3*
1,1,$1+$1,$4,$5*
1,1,$1+$1,$6,$7*
1,1,$1+$1,$8,$9*
0 Add four rect primitives between the rounded corners*
20,1,$1+$1,$2,$3,$4,$5,0*
20,1,$1+$1,$4,$5,$6,$7,0*
20,1,$1+$1,$6,$7,$8,$9,0*
20,1,$1+$1,$8,$9,$2,$3,0*%
G04 Aperture macros list end*
%ADD10RoundRect,0.140000X0.140000X0.170000X-0.140000X0.170000X-0.140000X-0.170000X0.140000X-0.170000X0*%
%ADD11RoundRect,0.225000X-0.250000X0.225000X-0.250000X-0.225000X0.250000X-0.225000X0.250000X0.225000X0*%
%ADD12RoundRect,0.135000X0.185000X-0.135000X0.185000X0.135000X-0.185000X0.135000X-0.185000X-0.135000X0*%
%ADD13R,1.700000X1.700000*%
%ADD14O,1.700000X1.700000*%
%ADD15R,1.200000X0.700000*%
%ADD16R,1.300000X1.100000*%
%ADD17RoundRect,0.135000X0.135000X0.185000X-0.135000X0.185000X-0.135000X-0.185000X0.135000X-0.185000X0*%
%ADD18RoundRect,0.150000X0.150000X-0.512500X0.150000X0.512500X-0.150000X0.512500X-0.150000X-0.512500X0*%
%ADD19RoundRect,0.225000X-0.225000X-0.250000X0.225000X-0.250000X0.225000X0.250000X-0.225000X0.250000X0*%
%ADD20RoundRect,0.062500X-0.375000X-0.062500X0.375000X-0.062500X0.375000X0.062500X-0.375000X0.062500X0*%
%ADD21RoundRect,0.062500X-0.062500X-0.375000X0.062500X-0.375000X0.062500X0.375000X-0.062500X0.375000X0*%
%ADD22R,3.450000X3.450000*%
%ADD23R,1.400000X1.200000*%
%ADD24RoundRect,0.140000X-0.170000X0.140000X-0.170000X-0.140000X0.170000X-0.140000X0.170000X0.140000X0*%
%ADD25RoundRect,0.218750X-0.256250X0.218750X-0.256250X-0.218750X0.256250X-0.218750X0.256250X0.218750X0*%
%ADD26C,0.600000*%
%ADD27R,0.600000X1.160000*%
%ADD28R,0.300000X1.160000*%
%ADD29O,0.900000X2.000000*%
%ADD30O,0.900000X1.700000*%
%ADD31RoundRect,0.140000X-0.140000X-0.170000X0.140000X-0.170000X0.140000X0.170000X-0.140000X0.170000X0*%
%ADD32RoundRect,0.140000X0.170000X-0.140000X0.170000X0.140000X-0.170000X0.140000X-0.170000X-0.140000X0*%
G04 APERTURE END LIST*
D10*
%TO.C,C14*%
X35805000Y-36925000D03*
X34845000Y-36925000D03*
%TD*%
D11*
%TO.C,C17*%
X35700000Y-53100000D03*
X35700000Y-54650000D03*
%TD*%
D12*
%TO.C,R1*%
X41725000Y-51810000D03*
X41725000Y-50790000D03*
%TD*%
D13*
%TO.C,J2*%
X31575000Y-35350000D03*
D14*
X31575000Y-37890000D03*
X31575000Y-40430000D03*
X31575000Y-42970000D03*
X31575000Y-45510000D03*
X31575000Y-48050000D03*
X31575000Y-50590000D03*
X31575000Y-53130000D03*
%TD*%
D15*
%TO.C,SW1*%
X35225000Y-56700000D03*
X35225000Y-60100000D03*
D16*
X33275000Y-60500000D03*
X33275000Y-56300000D03*
%TD*%
D17*
%TO.C,R4*%
X35850000Y-45775000D03*
X34830000Y-45775000D03*
%TD*%
D18*
%TO.C,PS1*%
X38250000Y-52487500D03*
X39200000Y-52487500D03*
X40150000Y-52487500D03*
X40150000Y-50212500D03*
X38250000Y-50212500D03*
%TD*%
D17*
%TO.C,R3*%
X35810000Y-35650000D03*
X34790000Y-35650000D03*
%TD*%
D19*
%TO.C,C18*%
X38550000Y-48375000D03*
X40100000Y-48375000D03*
%TD*%
D10*
%TO.C,C16*%
X38430000Y-39650000D03*
X37470000Y-39650000D03*
%TD*%
D20*
%TO.C,U1*%
X41962500Y-41725000D03*
X41962500Y-42225000D03*
X41962500Y-42725000D03*
X41962500Y-43225000D03*
X41962500Y-43725000D03*
X41962500Y-44225000D03*
X41962500Y-44725000D03*
X41962500Y-45225000D03*
D21*
X42650000Y-45912500D03*
X43150000Y-45912500D03*
X43650000Y-45912500D03*
X44150000Y-45912500D03*
X44650000Y-45912500D03*
X45150000Y-45912500D03*
X45650000Y-45912500D03*
X46150000Y-45912500D03*
D20*
X46837500Y-45225000D03*
X46837500Y-44725000D03*
X46837500Y-44225000D03*
X46837500Y-43725000D03*
X46837500Y-43225000D03*
X46837500Y-42725000D03*
X46837500Y-42225000D03*
X46837500Y-41725000D03*
D21*
X46150000Y-41037500D03*
X45650000Y-41037500D03*
X45150000Y-41037500D03*
X44650000Y-41037500D03*
X44150000Y-41037500D03*
X43650000Y-41037500D03*
X43150000Y-41037500D03*
X42650000Y-41037500D03*
D22*
X44400000Y-43475000D03*
%TD*%
D23*
%TO.C,Y1*%
X44225000Y-38000000D03*
X46425000Y-38000000D03*
X46425000Y-36300000D03*
X44225000Y-36300000D03*
%TD*%
D13*
%TO.C,J3*%
X53200000Y-35325000D03*
D14*
X53200000Y-37865000D03*
X53200000Y-40405000D03*
X53200000Y-42945000D03*
X53200000Y-45485000D03*
X53200000Y-48025000D03*
X53200000Y-50565000D03*
X53200000Y-53105000D03*
%TD*%
D24*
%TO.C,C4*%
X38600000Y-42845000D03*
X38600000Y-43805000D03*
%TD*%
D25*
%TO.C,LED1*%
X49950000Y-58400000D03*
X49950000Y-59975000D03*
%TD*%
D12*
%TO.C,R5*%
X48600000Y-60510000D03*
X48600000Y-59490000D03*
%TD*%
D24*
%TO.C,C12*%
X42700000Y-37070000D03*
X42700000Y-38030000D03*
%TD*%
D12*
%TO.C,R2*%
X45675000Y-51910000D03*
X45675000Y-50890000D03*
%TD*%
D26*
%TO.C,J1*%
X39910000Y-55675000D03*
X45690000Y-55675000D03*
D27*
X39600000Y-54615000D03*
X40400000Y-54615000D03*
D28*
X41550000Y-54615000D03*
X42550000Y-54615000D03*
X43050000Y-54615000D03*
X44050000Y-54615000D03*
D27*
X45200000Y-54615000D03*
X46000000Y-54615000D03*
X46000000Y-54615000D03*
X45200000Y-54615000D03*
D28*
X44550000Y-54615000D03*
X43550000Y-54615000D03*
X42050000Y-54615000D03*
X41050000Y-54615000D03*
D27*
X40400000Y-54615000D03*
X39600000Y-54615000D03*
D29*
X38480000Y-55195000D03*
X47120000Y-55195000D03*
D30*
X47120000Y-59365000D03*
X38480000Y-59365000D03*
%TD*%
D11*
%TO.C,C3*%
X37200000Y-41825000D03*
X37200000Y-43375000D03*
%TD*%
D10*
%TO.C,C15*%
X38230000Y-35600000D03*
X37270000Y-35600000D03*
%TD*%
%TO.C,C1*%
X41580000Y-37150000D03*
X40620000Y-37150000D03*
%TD*%
D15*
%TO.C,SW2*%
X52100000Y-60125000D03*
X52100000Y-56725000D03*
D16*
X54050000Y-56325000D03*
X54050000Y-60525000D03*
%TD*%
D31*
%TO.C,C11*%
X48320000Y-44125000D03*
X49280000Y-44125000D03*
%TD*%
%TO.C,C8*%
X48320000Y-45150000D03*
X49280000Y-45150000D03*
%TD*%
D24*
%TO.C,C7*%
X43500000Y-47520000D03*
X43500000Y-48480000D03*
%TD*%
%TO.C,C6*%
X39675000Y-42795000D03*
X39675000Y-43755000D03*
%TD*%
D25*
%TO.C,L1*%
X38150000Y-36812500D03*
X38150000Y-38387500D03*
%TD*%
D17*
%TO.C,R6*%
X49285000Y-46250000D03*
X48265000Y-46250000D03*
%TD*%
D10*
%TO.C,C5*%
X41580000Y-38550000D03*
X40620000Y-38550000D03*
%TD*%
D32*
%TO.C,C13*%
X47900000Y-38030000D03*
X47900000Y-37070000D03*
%TD*%
M02*
