M48
; DRILL file {KiCad (6.0.7)} date Fri Aug  5 17:10:43 2022
; FORMAT={2:4/ absolute / inch / suppress leading zeros}
; #@! TF.CreationDate,2022-08-05T17:10:43+02:00
; #@! TF.GenerationSoftware,Kicad,Pcbnew,(6.0.7)
; #@! TF.FileFunction,Plated,1,2,PTH
FMAT,2
INCH,TZ
; #@! TA.AperFunction,Plated,PTH,ComponentDrill
T1C0.0118
; #@! TA.AperFunction,Plated,PTH,ViaDrill
T2C0.0157
; #@! TA.AperFunction,Plated,PTH,ComponentDrill
T3C0.0236
; #@! TA.AperFunction,Plated,PTH,ComponentDrill
T4C0.0394
%
G90
G05
T1
X14222Y-12972
T2
X13681Y-17411
X13711Y-18455
X13760Y-13346
X13799Y-13671
X13839Y-21939
X14045Y-14892
X14144Y-16299
X14291Y-13681
X14331Y-15748
X14577Y-20906
X14596Y-15236
X14606Y-14281
X14606Y-14793
X14616Y-22047
X14656Y-15994
X14705Y-13327
X14724Y-13642
X15020Y-16171
X15364Y-16516
X15472Y-14331
X15492Y-15010
X15502Y-14656
X15531Y-15384
X15541Y-15719
X15561Y-13661
X15571Y-13337
X15787Y-15984
X15827Y-14291
X15925Y-13317
X15925Y-13661
X16063Y-15709
X16142Y-16102
X16260Y-14213
X16280Y-13346
X16280Y-13671
X16309Y-18868
X16457Y-19567
X16614Y-13937
X16624Y-13356
X16713Y-18898
X16969Y-13701
X16978Y-13356
X17041Y-19846
X17205Y-16811
X17205Y-20394
X17323Y-13366
X17323Y-13701
X17480Y-19724
X17667Y-13366
X17667Y-13711
X18012Y-13366
X18022Y-13711
X18071Y-18780
X18356Y-13366
X18376Y-13711
X18386Y-20354
X18701Y-13376
X18701Y-18622
X18730Y-13720
X18780Y-20236
X19055Y-13366
X19055Y-19646
X19075Y-13740
X19104Y-23002
X19134Y-15906
X19154Y-18573
X19173Y-17008
X19213Y-16299
X19370Y-21299
X19409Y-13366
X19419Y-13740
X19754Y-13356
X19961Y-16496
X20108Y-23002
T4
X12431Y-13917
X12431Y-14917
X12431Y-15917
X12431Y-16917
X12431Y-17917
X12431Y-18917
X12431Y-19917
X12431Y-20917
X20945Y-13907
X20945Y-14907
X20945Y-15907
X20945Y-16907
X20945Y-17907
X20945Y-18907
X20945Y-19907
X20945Y-20907
T3
G00X15150Y-21947
M15
G01X15150Y-21514
M16
G05
G00X15150Y-23530
M15
G01X15150Y-23215
M16
G05
G00X18551Y-21947
M15
G01X18551Y-21514
M16
G05
G00X18551Y-23530
M15
G01X18551Y-23215
M16
G05
T0
M30
