%TF.GenerationSoftware,KiCad,Pcbnew,(6.0.7)*%
%TF.CreationDate,2022-08-05T17:10:29+02:00*%
%TF.ProjectId,C3_mini,43335f6d-696e-4692-9e6b-696361645f70,rev?*%
%TF.SameCoordinates,Original*%
%TF.FileFunction,Copper,L2,Bot*%
%TF.FilePolarity,Positive*%
%FSLAX46Y46*%
G04 Gerber Fmt 4.6, Leading zero omitted, Abs format (unit mm)*
G04 Created by KiCad (PCBNEW (6.0.7)) date 2022-08-05 17:10:29*
%MOMM*%
%LPD*%
G01*
G04 APERTURE LIST*
%TA.AperFunction,ComponentPad*%
%ADD10R,1.700000X1.700000*%
%TD*%
%TA.AperFunction,ComponentPad*%
%ADD11O,1.700000X1.700000*%
%TD*%
%TA.AperFunction,ComponentPad*%
%ADD12R,0.900000X0.500000*%
%TD*%
%TA.AperFunction,ComponentPad*%
%ADD13O,0.900000X2.000000*%
%TD*%
%TA.AperFunction,ComponentPad*%
%ADD14O,0.900000X1.700000*%
%TD*%
%TA.AperFunction,ViaPad*%
%ADD15C,0.800000*%
%TD*%
%TA.AperFunction,Conductor*%
%ADD16C,0.200000*%
%TD*%
%TA.AperFunction,Conductor*%
%ADD17C,0.250000*%
%TD*%
G04 APERTURE END LIST*
D10*
%TO.P,J2,1,Pin_1*%
%TO.N,EN*%
X31575000Y-35350000D03*
D11*
%TO.P,J2,2,Pin_2*%
%TO.N,IO0*%
X31575000Y-37890000D03*
%TO.P,J2,3,Pin_3*%
%TO.N,IO1*%
X31575000Y-40430000D03*
%TO.P,J2,4,Pin_4*%
%TO.N,IO2*%
X31575000Y-42970000D03*
%TO.P,J2,5,Pin_5*%
%TO.N,IO3*%
X31575000Y-45510000D03*
%TO.P,J2,6,Pin_6*%
%TO.N,IO4*%
X31575000Y-48050000D03*
%TO.P,J2,7,Pin_7*%
%TO.N,IO5*%
X31575000Y-50590000D03*
%TO.P,J2,8,Pin_8*%
%TO.N,+3V3*%
X31575000Y-53130000D03*
%TD*%
D10*
%TO.P,J3,1,Pin_1*%
%TO.N,U0TXD*%
X53200000Y-35325000D03*
D11*
%TO.P,J3,2,Pin_2*%
%TO.N,U0RXD*%
X53200000Y-37865000D03*
%TO.P,J3,3,Pin_3*%
%TO.N,IO10*%
X53200000Y-40405000D03*
%TO.P,J3,4,Pin_4*%
%TO.N,IO8*%
X53200000Y-42945000D03*
%TO.P,J3,5,Pin_5*%
%TO.N,IO7*%
X53200000Y-45485000D03*
%TO.P,J3,6,Pin_6*%
%TO.N,IO6*%
X53200000Y-48025000D03*
%TO.P,J3,7,Pin_7*%
%TO.N,GND*%
X53200000Y-50565000D03*
%TO.P,J3,8,Pin_8*%
%TO.N,VBUS*%
X53200000Y-53105000D03*
%TD*%
D12*
%TO.P,ANT1,2,Shield*%
%TO.N,GND*%
X36125000Y-32950000D03*
%TD*%
D13*
%TO.P,J1,S1,SHIELD*%
%TO.N,GND*%
X38480000Y-55195000D03*
X47120000Y-55195000D03*
D14*
X47120000Y-59365000D03*
X38480000Y-59365000D03*
%TD*%
D15*
%TO.N,GND*%
X37125000Y-56000000D03*
X48400000Y-33950000D03*
X41350000Y-34725000D03*
X41000000Y-40900000D03*
X49200000Y-54100000D03*
X44875000Y-34825000D03*
X41425000Y-47925000D03*
X37350000Y-33850000D03*
X41350000Y-33900000D03*
X45775000Y-34825000D03*
X39375000Y-37225000D03*
X37100000Y-36275000D03*
X49300000Y-33950000D03*
X40100000Y-40600000D03*
X39550000Y-33875000D03*
X35050000Y-34725000D03*
X47700000Y-51400000D03*
X37400000Y-34650000D03*
X48450000Y-34900000D03*
X45750000Y-33950000D03*
X40800000Y-39900000D03*
X46675000Y-34825000D03*
X42200000Y-35400000D03*
X48700000Y-43200000D03*
X49325000Y-34900000D03*
X47575000Y-34850000D03*
X39025000Y-41950000D03*
X43700000Y-42700000D03*
X44000000Y-34800000D03*
X43100000Y-34800000D03*
X40450000Y-34700000D03*
X43125000Y-33925000D03*
X44875000Y-33950000D03*
X39350000Y-38125000D03*
X37075000Y-38700000D03*
X47500000Y-33975000D03*
X50175000Y-33925000D03*
X40200000Y-36300000D03*
X34950000Y-33900000D03*
X44000000Y-33950000D03*
X37100000Y-37575000D03*
X38150000Y-41075000D03*
X39525000Y-34700000D03*
X39450000Y-39075000D03*
X37225000Y-40625000D03*
X39475000Y-39925000D03*
X42225000Y-33925000D03*
X40450000Y-33825000D03*
X46625000Y-33950000D03*
X36400000Y-40000000D03*
X39300000Y-36400000D03*
%TO.N,+3V3*%
X42450000Y-48000000D03*
X36300000Y-34750000D03*
X41300000Y-36100000D03*
X47500000Y-47300000D03*
X35925000Y-41400000D03*
X34750000Y-44225000D03*
%TO.N,EN*%
X34825000Y-46875000D03*
X35675000Y-37825000D03*
X35150000Y-55725000D03*
%TO.N,VBUS*%
X37025000Y-53100000D03*
X46700000Y-51700000D03*
X41800000Y-49700000D03*
%TO.N,D+*%
X48600000Y-40400000D03*
X44400000Y-50100000D03*
%TO.N,D-*%
X43285003Y-50410017D03*
X43700000Y-51800000D03*
X48800000Y-41400000D03*
%TO.N,IO8*%
X48650000Y-47175000D03*
X50700000Y-41900000D03*
%TO.N,IO7*%
X48400000Y-49900000D03*
X48525000Y-58425000D03*
%TO.N,IO9*%
X45900000Y-47700000D03*
X51075000Y-58425000D03*
%TD*%
D16*
%TO.N,GND*%
X37125000Y-56000000D02*
X36225000Y-56900000D01*
X36200000Y-55075000D02*
X37125000Y-56000000D01*
X31050000Y-32625000D02*
X39425000Y-32625000D01*
X33700000Y-44966186D02*
X32958814Y-44225000D01*
X33700000Y-56400000D02*
X33700000Y-44966186D01*
X31173654Y-44273654D02*
X30175000Y-43275000D01*
X45200000Y-47410050D02*
X45200000Y-48300000D01*
X47700000Y-51689950D02*
X47700000Y-51400000D01*
X30175000Y-43275000D02*
X30175000Y-33453654D01*
X40800000Y-39900000D02*
X42200000Y-38500000D01*
X49200000Y-49710050D02*
X48689950Y-49200000D01*
X48100000Y-49200000D02*
X47700000Y-49600000D01*
X46600000Y-46265686D02*
X46344364Y-46265686D01*
X49200000Y-54100000D02*
X49200000Y-49710050D01*
X45200000Y-48300000D02*
X45900000Y-49000000D01*
X48700000Y-44165686D02*
X46600000Y-46265686D01*
X37575000Y-56450000D02*
X42939950Y-56450000D01*
X32005000Y-44273654D02*
X31173654Y-44273654D01*
X37125000Y-56000000D02*
X37575000Y-56450000D01*
X42200000Y-38500000D02*
X42200000Y-35400000D01*
X42939950Y-56450000D02*
X47700000Y-51689950D01*
X30200000Y-33475000D02*
X31050000Y-32625000D01*
X39425000Y-32625000D02*
X42200000Y-35400000D01*
X36200000Y-50000000D02*
X36200000Y-55075000D01*
X32053654Y-44225000D02*
X32005000Y-44273654D01*
X48700000Y-43200000D02*
X48700000Y-44165686D01*
X38275000Y-47925000D02*
X36200000Y-50000000D01*
X48689950Y-49200000D02*
X48100000Y-49200000D01*
X34200000Y-56900000D02*
X33700000Y-56400000D01*
X41425000Y-47925000D02*
X38275000Y-47925000D01*
X32958814Y-44225000D02*
X32053654Y-44225000D01*
X36225000Y-56900000D02*
X34200000Y-56900000D01*
X47700000Y-49600000D02*
X47700000Y-51400000D01*
X46344364Y-46265686D02*
X45200000Y-47410050D01*
%TO.N,+3V3*%
X37475000Y-41400000D02*
X41175000Y-45100000D01*
X36950000Y-35400000D02*
X40600000Y-35400000D01*
D17*
X35925000Y-41400000D02*
X35600000Y-41400000D01*
D16*
X35125000Y-39725000D02*
X35125000Y-40200000D01*
X47500000Y-47300000D02*
X47500000Y-47110050D01*
X48500000Y-39300000D02*
X42700000Y-45100000D01*
D17*
X35600000Y-41400000D02*
X34750000Y-42250000D01*
D16*
X36300000Y-34750000D02*
X36300000Y-36200000D01*
X36300000Y-36200000D02*
X36400000Y-36300000D01*
X49500000Y-39300000D02*
X48500000Y-39300000D01*
X35125000Y-40200000D02*
X35925000Y-41000000D01*
X47500000Y-47110050D02*
X48310050Y-46300000D01*
X36300000Y-34750000D02*
X36950000Y-35400000D01*
X48500000Y-46300000D02*
X49500000Y-45300000D01*
X36400000Y-36300000D02*
X36400000Y-38450000D01*
X35925000Y-41400000D02*
X37475000Y-41400000D01*
X36400000Y-38450000D02*
X35125000Y-39725000D01*
X42700000Y-45100000D02*
X42700000Y-47750000D01*
X41175000Y-45100000D02*
X42700000Y-45100000D01*
X48310050Y-46300000D02*
X48500000Y-46300000D01*
X42700000Y-47750000D02*
X42450000Y-48000000D01*
X49500000Y-45300000D02*
X49500000Y-39300000D01*
D17*
X34750000Y-42250000D02*
X34750000Y-44225000D01*
D16*
X40600000Y-35400000D02*
X41300000Y-36100000D01*
X35925000Y-41000000D02*
X35925000Y-41400000D01*
%TO.N,EN*%
X33550000Y-40550000D02*
X33550000Y-44059936D01*
X34755128Y-46944872D02*
X34825000Y-46875000D01*
X35150000Y-55725000D02*
X34755128Y-55330128D01*
X34755128Y-55330128D02*
X34755128Y-46944872D01*
X35675000Y-38425000D02*
X33550000Y-40550000D01*
X35675000Y-37825000D02*
X35675000Y-38425000D01*
X34825000Y-45334936D02*
X34825000Y-46875000D01*
X33550000Y-44059936D02*
X34825000Y-45334936D01*
%TO.N,VBUS*%
X43410050Y-52500000D02*
X41800000Y-50889950D01*
X37025000Y-52675000D02*
X40000000Y-49700000D01*
X41800000Y-50889950D02*
X41800000Y-49700000D01*
X37025000Y-53100000D02*
X37025000Y-52675000D01*
X40000000Y-49700000D02*
X41800000Y-49700000D01*
X45900000Y-52500000D02*
X43410050Y-52500000D01*
X46700000Y-51700000D02*
X45900000Y-52500000D01*
%TO.N,D+*%
X44400000Y-44600000D02*
X44400000Y-50100000D01*
X48600000Y-40400000D02*
X44400000Y-44600000D01*
%TO.N,D-*%
X45100000Y-49810050D02*
X44800000Y-49510050D01*
X43700000Y-51800000D02*
X45100000Y-50400000D01*
X43285003Y-51385003D02*
X43700000Y-51800000D01*
X43285003Y-50410017D02*
X43285003Y-51385003D01*
X44800000Y-45400000D02*
X48800000Y-41400000D01*
X44800000Y-49510050D02*
X44800000Y-45400000D01*
X45100000Y-50400000D02*
X45100000Y-49810050D01*
%TO.N,IO8*%
X50700000Y-45125000D02*
X50700000Y-41900000D01*
X48650000Y-47175000D02*
X50700000Y-45125000D01*
%TO.N,IO7*%
X48525000Y-58425000D02*
X48400000Y-58300000D01*
X48400000Y-58300000D02*
X48400000Y-49900000D01*
%TO.N,IO9*%
X51100000Y-58400000D02*
X51100000Y-49800000D01*
X46600000Y-48400000D02*
X45900000Y-47700000D01*
X51075000Y-58425000D02*
X51100000Y-58400000D01*
X49700000Y-48400000D02*
X46600000Y-48400000D01*
X51100000Y-49800000D02*
X49700000Y-48400000D01*
%TD*%
%TA.AperFunction,Conductor*%
%TO.N,GND*%
G36*
X37238882Y-42028502D02*
G01*
X37259856Y-42045405D01*
X40710685Y-45496234D01*
X40721552Y-45508625D01*
X40741013Y-45533987D01*
X40747563Y-45539013D01*
X40772925Y-45558474D01*
X40772928Y-45558477D01*
X40813117Y-45589315D01*
X40868124Y-45631524D01*
X40875754Y-45634684D01*
X40875755Y-45634685D01*
X40892962Y-45641812D01*
X41016150Y-45692838D01*
X41135115Y-45708500D01*
X41135120Y-45708500D01*
X41135129Y-45708501D01*
X41166812Y-45712672D01*
X41175000Y-45713750D01*
X41206693Y-45709578D01*
X41223136Y-45708500D01*
X41965500Y-45708500D01*
X42033621Y-45728502D01*
X42080114Y-45782158D01*
X42091500Y-45834500D01*
X42091500Y-47083312D01*
X42071498Y-47151433D01*
X42016749Y-47198418D01*
X41999285Y-47206194D01*
X41993248Y-47208882D01*
X41987907Y-47212762D01*
X41987906Y-47212763D01*
X41980317Y-47218277D01*
X41838747Y-47321134D01*
X41834326Y-47326044D01*
X41834325Y-47326045D01*
X41752568Y-47416846D01*
X41710960Y-47463056D01*
X41679565Y-47517434D01*
X41630331Y-47602710D01*
X41615473Y-47628444D01*
X41556458Y-47810072D01*
X41555768Y-47816633D01*
X41555768Y-47816635D01*
X41549791Y-47873504D01*
X41536496Y-48000000D01*
X41556458Y-48189928D01*
X41615473Y-48371556D01*
X41710960Y-48536944D01*
X41715378Y-48541851D01*
X41715379Y-48541852D01*
X41756278Y-48587275D01*
X41786996Y-48651282D01*
X41778231Y-48721736D01*
X41732768Y-48776267D01*
X41688841Y-48794831D01*
X41517712Y-48831206D01*
X41511682Y-48833891D01*
X41511681Y-48833891D01*
X41349278Y-48906197D01*
X41349276Y-48906198D01*
X41343248Y-48908882D01*
X41337907Y-48912762D01*
X41337906Y-48912763D01*
X41307733Y-48934685D01*
X41188747Y-49021134D01*
X41184334Y-49026036D01*
X41184332Y-49026037D01*
X41162926Y-49049811D01*
X41102480Y-49087050D01*
X41069290Y-49091500D01*
X40048136Y-49091500D01*
X40031690Y-49090422D01*
X40008188Y-49087328D01*
X40000000Y-49086250D01*
X39991812Y-49087328D01*
X39960129Y-49091499D01*
X39960120Y-49091500D01*
X39960115Y-49091500D01*
X39841150Y-49107162D01*
X39693125Y-49168476D01*
X39693123Y-49168477D01*
X39693124Y-49168477D01*
X39597928Y-49241523D01*
X39597925Y-49241526D01*
X39566013Y-49266013D01*
X39560983Y-49272568D01*
X39546548Y-49291379D01*
X39535681Y-49303770D01*
X36628766Y-52210685D01*
X36616375Y-52221552D01*
X36591013Y-52241013D01*
X36566526Y-52272925D01*
X36566523Y-52272928D01*
X36513120Y-52342524D01*
X36487225Y-52367749D01*
X36413747Y-52421134D01*
X36409326Y-52426044D01*
X36409325Y-52426045D01*
X36348316Y-52493803D01*
X36285960Y-52563056D01*
X36190473Y-52728444D01*
X36131458Y-52910072D01*
X36130768Y-52916633D01*
X36130768Y-52916635D01*
X36119222Y-53026495D01*
X36111496Y-53100000D01*
X36131458Y-53289928D01*
X36190473Y-53471556D01*
X36285960Y-53636944D01*
X36290378Y-53641851D01*
X36290379Y-53641852D01*
X36408828Y-53773403D01*
X36413747Y-53778866D01*
X36568248Y-53891118D01*
X36574276Y-53893802D01*
X36574278Y-53893803D01*
X36710616Y-53954504D01*
X36742712Y-53968794D01*
X36815624Y-53984292D01*
X36923056Y-54007128D01*
X36923061Y-54007128D01*
X36929513Y-54008500D01*
X37120487Y-54008500D01*
X37126939Y-54007128D01*
X37126944Y-54007128D01*
X37234376Y-53984292D01*
X37307288Y-53968794D01*
X37339384Y-53954504D01*
X37475722Y-53893803D01*
X37475724Y-53893802D01*
X37481752Y-53891118D01*
X37565874Y-53830000D01*
X37636253Y-53778866D01*
X37636699Y-53779480D01*
X37640973Y-53773624D01*
X37759621Y-53641852D01*
X37759622Y-53641851D01*
X37764040Y-53636944D01*
X37859527Y-53471556D01*
X37918542Y-53289928D01*
X37938504Y-53100000D01*
X37930778Y-53026495D01*
X37919232Y-52916635D01*
X37919232Y-52916633D01*
X37918542Y-52910072D01*
X37876662Y-52781180D01*
X37874634Y-52710213D01*
X37907400Y-52653149D01*
X40215144Y-50345405D01*
X40277456Y-50311379D01*
X40304239Y-50308500D01*
X41065500Y-50308500D01*
X41133621Y-50328502D01*
X41180114Y-50382158D01*
X41191500Y-50434500D01*
X41191500Y-50841814D01*
X41190422Y-50858257D01*
X41186250Y-50889950D01*
X41191500Y-50929830D01*
X41191500Y-50929835D01*
X41201907Y-51008882D01*
X41207162Y-51048801D01*
X41268476Y-51196826D01*
X41273503Y-51203377D01*
X41273504Y-51203379D01*
X41341520Y-51292019D01*
X41341526Y-51292025D01*
X41366013Y-51323937D01*
X41372568Y-51328967D01*
X41391379Y-51343402D01*
X41403770Y-51354269D01*
X42945735Y-52896234D01*
X42956602Y-52908625D01*
X42976063Y-52933987D01*
X42982613Y-52939013D01*
X43007971Y-52958471D01*
X43007987Y-52958485D01*
X43057355Y-52996366D01*
X43103174Y-53031524D01*
X43251199Y-53092838D01*
X43410050Y-53113751D01*
X43441749Y-53109578D01*
X43458194Y-53108500D01*
X45851864Y-53108500D01*
X45868307Y-53109578D01*
X45900000Y-53113750D01*
X45908189Y-53112672D01*
X45939874Y-53108501D01*
X45939884Y-53108500D01*
X45939885Y-53108500D01*
X46004449Y-53100000D01*
X46039457Y-53095391D01*
X46050664Y-53093916D01*
X46050666Y-53093915D01*
X46058851Y-53092838D01*
X46206876Y-53031524D01*
X46302062Y-52958485D01*
X46302069Y-52958480D01*
X46302075Y-52958474D01*
X46327434Y-52939015D01*
X46333987Y-52933987D01*
X46350458Y-52912522D01*
X46353452Y-52908621D01*
X46364319Y-52896230D01*
X46615144Y-52645405D01*
X46677456Y-52611379D01*
X46704239Y-52608500D01*
X46795487Y-52608500D01*
X46801939Y-52607128D01*
X46801944Y-52607128D01*
X46888888Y-52588647D01*
X46982288Y-52568794D01*
X46995176Y-52563056D01*
X47150722Y-52493803D01*
X47150724Y-52493802D01*
X47156752Y-52491118D01*
X47311253Y-52378866D01*
X47410716Y-52268401D01*
X47434621Y-52241852D01*
X47434622Y-52241851D01*
X47439040Y-52236944D01*
X47524240Y-52089373D01*
X47531223Y-52077279D01*
X47531224Y-52077278D01*
X47534527Y-52071556D01*
X47545668Y-52037269D01*
X47585741Y-51978665D01*
X47651138Y-51951028D01*
X47721094Y-51963135D01*
X47773400Y-52011141D01*
X47791500Y-52076207D01*
X47791500Y-53705282D01*
X47771498Y-53773403D01*
X47717842Y-53819896D01*
X47647568Y-53830000D01*
X47609870Y-53818336D01*
X47461383Y-53745271D01*
X47449481Y-53740845D01*
X47391530Y-53725749D01*
X47377436Y-53726183D01*
X47374000Y-53734364D01*
X47374000Y-56654229D01*
X47377973Y-56667760D01*
X47384075Y-56668637D01*
X47536136Y-56612690D01*
X47547547Y-56607125D01*
X47599104Y-56575158D01*
X47667539Y-56556262D01*
X47735328Y-56577364D01*
X47780946Y-56631765D01*
X47791500Y-56682245D01*
X47791500Y-57844699D01*
X47774619Y-57907699D01*
X47693778Y-58047721D01*
X47693426Y-58048330D01*
X47642044Y-58097323D01*
X47572330Y-58110759D01*
X47528677Y-58098384D01*
X47461383Y-58065271D01*
X47449481Y-58060845D01*
X47391530Y-58045749D01*
X47377436Y-58046183D01*
X47374000Y-58054364D01*
X47374000Y-59092885D01*
X47378475Y-59108124D01*
X47379865Y-59109329D01*
X47387548Y-59111000D01*
X47882626Y-59111000D01*
X47950747Y-59131002D01*
X47956687Y-59135064D01*
X48068248Y-59216118D01*
X48074276Y-59218802D01*
X48074278Y-59218803D01*
X48236681Y-59291109D01*
X48242712Y-59293794D01*
X48336113Y-59313647D01*
X48423056Y-59332128D01*
X48423061Y-59332128D01*
X48429513Y-59333500D01*
X48620487Y-59333500D01*
X48626939Y-59332128D01*
X48626944Y-59332128D01*
X48713887Y-59313647D01*
X48807288Y-59293794D01*
X48813319Y-59291109D01*
X48975722Y-59218803D01*
X48975724Y-59218802D01*
X48981752Y-59216118D01*
X49136253Y-59103866D01*
X49264040Y-58961944D01*
X49359527Y-58796556D01*
X49418542Y-58614928D01*
X49420978Y-58591756D01*
X49437814Y-58431565D01*
X49438504Y-58425000D01*
X49418542Y-58235072D01*
X49359527Y-58053444D01*
X49353059Y-58042240D01*
X49267341Y-57893774D01*
X49264040Y-57888056D01*
X49136253Y-57746134D01*
X49121020Y-57735066D01*
X49060439Y-57691052D01*
X49017085Y-57634830D01*
X49008500Y-57589116D01*
X49008500Y-50630290D01*
X49028502Y-50562169D01*
X49040864Y-50545980D01*
X49134621Y-50441852D01*
X49134622Y-50441851D01*
X49139040Y-50436944D01*
X49234527Y-50271556D01*
X49293542Y-50089928D01*
X49304896Y-49981906D01*
X49312814Y-49906565D01*
X49313504Y-49900000D01*
X49309109Y-49858186D01*
X49294232Y-49716635D01*
X49294232Y-49716633D01*
X49293542Y-49710072D01*
X49234527Y-49528444D01*
X49139040Y-49363056D01*
X49133306Y-49356687D01*
X49011253Y-49221134D01*
X49012816Y-49219727D01*
X48980758Y-49167689D01*
X48982110Y-49096705D01*
X49021625Y-49037721D01*
X49086756Y-49009464D01*
X49102308Y-49008500D01*
X49395761Y-49008500D01*
X49463882Y-49028502D01*
X49484856Y-49045405D01*
X50454595Y-50015144D01*
X50488621Y-50077456D01*
X50491500Y-50104239D01*
X50491500Y-57666945D01*
X50471498Y-57735066D01*
X50459136Y-57751255D01*
X50335960Y-57888056D01*
X50332659Y-57893774D01*
X50246942Y-58042240D01*
X50240473Y-58053444D01*
X50181458Y-58235072D01*
X50161496Y-58425000D01*
X50162186Y-58431565D01*
X50179023Y-58591756D01*
X50181458Y-58614928D01*
X50240473Y-58796556D01*
X50335960Y-58961944D01*
X50463747Y-59103866D01*
X50618248Y-59216118D01*
X50624276Y-59218802D01*
X50624278Y-59218803D01*
X50786681Y-59291109D01*
X50792712Y-59293794D01*
X50886113Y-59313647D01*
X50973056Y-59332128D01*
X50973061Y-59332128D01*
X50979513Y-59333500D01*
X51170487Y-59333500D01*
X51176939Y-59332128D01*
X51176944Y-59332128D01*
X51263887Y-59313647D01*
X51357288Y-59293794D01*
X51363319Y-59291109D01*
X51525722Y-59218803D01*
X51525724Y-59218802D01*
X51531752Y-59216118D01*
X51686253Y-59103866D01*
X51814040Y-58961944D01*
X51909527Y-58796556D01*
X51968542Y-58614928D01*
X51970978Y-58591756D01*
X51987814Y-58431565D01*
X51988504Y-58425000D01*
X51968542Y-58235072D01*
X51909527Y-58053444D01*
X51903059Y-58042240D01*
X51817341Y-57893774D01*
X51814040Y-57888056D01*
X51740863Y-57806785D01*
X51710147Y-57742779D01*
X51708500Y-57722476D01*
X51708500Y-53688156D01*
X51728502Y-53620035D01*
X51782158Y-53573542D01*
X51852432Y-53563438D01*
X51917012Y-53592932D01*
X51951243Y-53640752D01*
X51977446Y-53705282D01*
X51983266Y-53719616D01*
X52001285Y-53749020D01*
X52090008Y-53893803D01*
X52099987Y-53910088D01*
X52246250Y-54078938D01*
X52418126Y-54221632D01*
X52611000Y-54334338D01*
X52819692Y-54414030D01*
X52824760Y-54415061D01*
X52824763Y-54415062D01*
X52932017Y-54436883D01*
X53038597Y-54458567D01*
X53043772Y-54458757D01*
X53043774Y-54458757D01*
X53256673Y-54466564D01*
X53256677Y-54466564D01*
X53261837Y-54466753D01*
X53266957Y-54466097D01*
X53266959Y-54466097D01*
X53478288Y-54439025D01*
X53478289Y-54439025D01*
X53483416Y-54438368D01*
X53488366Y-54436883D01*
X53692429Y-54375661D01*
X53692434Y-54375659D01*
X53697384Y-54374174D01*
X53897994Y-54275896D01*
X54079860Y-54146173D01*
X54238096Y-53988489D01*
X54250091Y-53971796D01*
X54306085Y-53928148D01*
X54376789Y-53921702D01*
X54439753Y-53954504D01*
X54474988Y-54016141D01*
X54478414Y-54045440D01*
X54472096Y-60765618D01*
X54452030Y-60833720D01*
X54398331Y-60880163D01*
X54346096Y-60891500D01*
X47540069Y-60891500D01*
X47471948Y-60871498D01*
X47425455Y-60817842D01*
X47415351Y-60747568D01*
X47444845Y-60682988D01*
X47496562Y-60647250D01*
X47536137Y-60632690D01*
X47547549Y-60627123D01*
X47702108Y-60531292D01*
X47712174Y-60523540D01*
X47844303Y-60398592D01*
X47852605Y-60388974D01*
X47956908Y-60240013D01*
X47963108Y-60228919D01*
X48035332Y-60062020D01*
X48039171Y-60049917D01*
X48076675Y-59870400D01*
X48077915Y-59860848D01*
X48078000Y-59857616D01*
X48078000Y-59637115D01*
X48073525Y-59621876D01*
X48072135Y-59620671D01*
X48064452Y-59619000D01*
X46180115Y-59619000D01*
X46164876Y-59623475D01*
X46163671Y-59624865D01*
X46162000Y-59632548D01*
X46162000Y-59810447D01*
X46162323Y-59816822D01*
X46176082Y-59952277D01*
X46178636Y-59964717D01*
X46233016Y-60138244D01*
X46238025Y-60149932D01*
X46326187Y-60308979D01*
X46333438Y-60319412D01*
X46451785Y-60457491D01*
X46460976Y-60466244D01*
X46604680Y-60577711D01*
X46615440Y-60584435D01*
X46753655Y-60652445D01*
X46805946Y-60700468D01*
X46823972Y-60769138D01*
X46802012Y-60836653D01*
X46747036Y-60881577D01*
X46698025Y-60891500D01*
X38900069Y-60891500D01*
X38831948Y-60871498D01*
X38785455Y-60817842D01*
X38775351Y-60747568D01*
X38804845Y-60682988D01*
X38856562Y-60647250D01*
X38896137Y-60632690D01*
X38907549Y-60627123D01*
X39062108Y-60531292D01*
X39072174Y-60523540D01*
X39204303Y-60398592D01*
X39212605Y-60388974D01*
X39316908Y-60240013D01*
X39323108Y-60228919D01*
X39395332Y-60062020D01*
X39399171Y-60049917D01*
X39436675Y-59870400D01*
X39437915Y-59860848D01*
X39438000Y-59857616D01*
X39438000Y-59637115D01*
X39433525Y-59621876D01*
X39432135Y-59620671D01*
X39424452Y-59619000D01*
X37540115Y-59619000D01*
X37524876Y-59623475D01*
X37523671Y-59624865D01*
X37522000Y-59632548D01*
X37522000Y-59810447D01*
X37522323Y-59816822D01*
X37536082Y-59952277D01*
X37538636Y-59964717D01*
X37593016Y-60138244D01*
X37598025Y-60149932D01*
X37686187Y-60308979D01*
X37693438Y-60319412D01*
X37811785Y-60457491D01*
X37820976Y-60466244D01*
X37964680Y-60577711D01*
X37975440Y-60584435D01*
X38113655Y-60652445D01*
X38165946Y-60700468D01*
X38183972Y-60769138D01*
X38162012Y-60836653D01*
X38107036Y-60881577D01*
X38058025Y-60891500D01*
X32884500Y-60891500D01*
X32816379Y-60871498D01*
X32769886Y-60817842D01*
X32758500Y-60765500D01*
X32758500Y-59092885D01*
X37522000Y-59092885D01*
X37526475Y-59108124D01*
X37527865Y-59109329D01*
X37535548Y-59111000D01*
X38207885Y-59111000D01*
X38223124Y-59106525D01*
X38224329Y-59105135D01*
X38226000Y-59097452D01*
X38226000Y-59092885D01*
X38734000Y-59092885D01*
X38738475Y-59108124D01*
X38739865Y-59109329D01*
X38747548Y-59111000D01*
X39419885Y-59111000D01*
X39435124Y-59106525D01*
X39436329Y-59105135D01*
X39438000Y-59097452D01*
X39438000Y-59092885D01*
X46162000Y-59092885D01*
X46166475Y-59108124D01*
X46167865Y-59109329D01*
X46175548Y-59111000D01*
X46847885Y-59111000D01*
X46863124Y-59106525D01*
X46864329Y-59105135D01*
X46866000Y-59097452D01*
X46866000Y-58055771D01*
X46862027Y-58042240D01*
X46855925Y-58041363D01*
X46703864Y-58097310D01*
X46692451Y-58102877D01*
X46537892Y-58198708D01*
X46527826Y-58206460D01*
X46395697Y-58331408D01*
X46387395Y-58341026D01*
X46283092Y-58489987D01*
X46276892Y-58501081D01*
X46204668Y-58667980D01*
X46200829Y-58680083D01*
X46163325Y-58859600D01*
X46162085Y-58869152D01*
X46162000Y-58872384D01*
X46162000Y-59092885D01*
X39438000Y-59092885D01*
X39438000Y-58919553D01*
X39437677Y-58913178D01*
X39423918Y-58777723D01*
X39421364Y-58765283D01*
X39366984Y-58591756D01*
X39361975Y-58580068D01*
X39273813Y-58421021D01*
X39266562Y-58410588D01*
X39148215Y-58272509D01*
X39139024Y-58263756D01*
X38995320Y-58152289D01*
X38984560Y-58145565D01*
X38821375Y-58065268D01*
X38809481Y-58060845D01*
X38751530Y-58045749D01*
X38737436Y-58046183D01*
X38734000Y-58054364D01*
X38734000Y-59092885D01*
X38226000Y-59092885D01*
X38226000Y-58055771D01*
X38222027Y-58042240D01*
X38215925Y-58041363D01*
X38063864Y-58097310D01*
X38052451Y-58102877D01*
X37897892Y-58198708D01*
X37887826Y-58206460D01*
X37755697Y-58331408D01*
X37747395Y-58341026D01*
X37643092Y-58489987D01*
X37636892Y-58501081D01*
X37564668Y-58667980D01*
X37560829Y-58680083D01*
X37523325Y-58859600D01*
X37522085Y-58869152D01*
X37522000Y-58872384D01*
X37522000Y-59092885D01*
X32758500Y-59092885D01*
X32758500Y-56104235D01*
X32759018Y-56092825D01*
X32762233Y-56057471D01*
X32762233Y-56057469D01*
X32763046Y-56048526D01*
X32752168Y-55993098D01*
X32751092Y-55986761D01*
X32743080Y-55930813D01*
X32739366Y-55922643D01*
X32738148Y-55918478D01*
X32736723Y-55914399D01*
X32734995Y-55905595D01*
X32708998Y-55855450D01*
X32706169Y-55849632D01*
X32682792Y-55798218D01*
X32676937Y-55791423D01*
X32674611Y-55787786D01*
X32672085Y-55784252D01*
X32667954Y-55776283D01*
X32661753Y-55769795D01*
X32661751Y-55769792D01*
X32628929Y-55735449D01*
X32624566Y-55730642D01*
X32593572Y-55694672D01*
X32593570Y-55694670D01*
X32587713Y-55687873D01*
X32580180Y-55682990D01*
X32576913Y-55680140D01*
X32573517Y-55677473D01*
X32567315Y-55670984D01*
X32518390Y-55642741D01*
X32512889Y-55639373D01*
X32465485Y-55608648D01*
X32456883Y-55606076D01*
X32456880Y-55606074D01*
X32419087Y-55594772D01*
X32409735Y-55591571D01*
X32045457Y-55450671D01*
X30189045Y-54732625D01*
X30132728Y-54689396D01*
X30108722Y-54622581D01*
X30108500Y-54615110D01*
X30108500Y-53774724D01*
X30128502Y-53706603D01*
X30182158Y-53660110D01*
X30252432Y-53650006D01*
X30317012Y-53679500D01*
X30351243Y-53727321D01*
X30356320Y-53739826D01*
X30356325Y-53739836D01*
X30358266Y-53744616D01*
X30407871Y-53825565D01*
X30449688Y-53893803D01*
X30474987Y-53935088D01*
X30621250Y-54103938D01*
X30793126Y-54246632D01*
X30986000Y-54359338D01*
X30990825Y-54361180D01*
X30990826Y-54361181D01*
X31063612Y-54388975D01*
X31194692Y-54439030D01*
X31199760Y-54440061D01*
X31199763Y-54440062D01*
X31307017Y-54461883D01*
X31413597Y-54483567D01*
X31418772Y-54483757D01*
X31418774Y-54483757D01*
X31631673Y-54491564D01*
X31631677Y-54491564D01*
X31636837Y-54491753D01*
X31641957Y-54491097D01*
X31641959Y-54491097D01*
X31853288Y-54464025D01*
X31853289Y-54464025D01*
X31858416Y-54463368D01*
X31873785Y-54458757D01*
X32067429Y-54400661D01*
X32067434Y-54400659D01*
X32072384Y-54399174D01*
X32272994Y-54300896D01*
X32454860Y-54171173D01*
X32613096Y-54013489D01*
X32645213Y-53968794D01*
X32740435Y-53836277D01*
X32743453Y-53832077D01*
X32746672Y-53825565D01*
X32840136Y-53636453D01*
X32840137Y-53636451D01*
X32842430Y-53631811D01*
X32907370Y-53418069D01*
X32936529Y-53196590D01*
X32938156Y-53130000D01*
X32919852Y-52907361D01*
X32865431Y-52690702D01*
X32776354Y-52485840D01*
X32731982Y-52417251D01*
X32657822Y-52302617D01*
X32657820Y-52302614D01*
X32655014Y-52298277D01*
X32504670Y-52133051D01*
X32500619Y-52129852D01*
X32500615Y-52129848D01*
X32333414Y-51997800D01*
X32333410Y-51997798D01*
X32329359Y-51994598D01*
X32288053Y-51971796D01*
X32238084Y-51921364D01*
X32223312Y-51851921D01*
X32248428Y-51785516D01*
X32275780Y-51758909D01*
X32324436Y-51724203D01*
X32454860Y-51631173D01*
X32477320Y-51608792D01*
X32609435Y-51477137D01*
X32613096Y-51473489D01*
X32628673Y-51451812D01*
X32740435Y-51296277D01*
X32743453Y-51292077D01*
X32771799Y-51234724D01*
X32840136Y-51096453D01*
X32840137Y-51096451D01*
X32842430Y-51091811D01*
X32907370Y-50878069D01*
X32936529Y-50656590D01*
X32938156Y-50590000D01*
X32919852Y-50367361D01*
X32865431Y-50150702D01*
X32776354Y-49945840D01*
X32714307Y-49849930D01*
X32657822Y-49762617D01*
X32657820Y-49762614D01*
X32655014Y-49758277D01*
X32504670Y-49593051D01*
X32500619Y-49589852D01*
X32500615Y-49589848D01*
X32333414Y-49457800D01*
X32333410Y-49457798D01*
X32329359Y-49454598D01*
X32288053Y-49431796D01*
X32238084Y-49381364D01*
X32223312Y-49311921D01*
X32248428Y-49245516D01*
X32275780Y-49218909D01*
X32339016Y-49173803D01*
X32454860Y-49091173D01*
X32458719Y-49087328D01*
X32609435Y-48937137D01*
X32613096Y-48933489D01*
X32620107Y-48923733D01*
X32740435Y-48756277D01*
X32743453Y-48752077D01*
X32758449Y-48721736D01*
X32840136Y-48556453D01*
X32840137Y-48556451D01*
X32842430Y-48551811D01*
X32907370Y-48338069D01*
X32936529Y-48116590D01*
X32938156Y-48050000D01*
X32919852Y-47827361D01*
X32865431Y-47610702D01*
X32776354Y-47405840D01*
X32655014Y-47218277D01*
X32504670Y-47053051D01*
X32500619Y-47049852D01*
X32500615Y-47049848D01*
X32333414Y-46917800D01*
X32333410Y-46917798D01*
X32329359Y-46914598D01*
X32288053Y-46891796D01*
X32238084Y-46841364D01*
X32223312Y-46771921D01*
X32248428Y-46705516D01*
X32275780Y-46678909D01*
X32324053Y-46644476D01*
X32454860Y-46551173D01*
X32493405Y-46512763D01*
X32551339Y-46455031D01*
X32613096Y-46393489D01*
X32652929Y-46338056D01*
X32740435Y-46216277D01*
X32743453Y-46212077D01*
X32751333Y-46196134D01*
X32840136Y-46016453D01*
X32840137Y-46016451D01*
X32842430Y-46011811D01*
X32907370Y-45798069D01*
X32936529Y-45576590D01*
X32938156Y-45510000D01*
X32919852Y-45287361D01*
X32865431Y-45070702D01*
X32776354Y-44865840D01*
X32709141Y-44761944D01*
X32657822Y-44682617D01*
X32657820Y-44682614D01*
X32655014Y-44678277D01*
X32504670Y-44513051D01*
X32500619Y-44509852D01*
X32500615Y-44509848D01*
X32333414Y-44377800D01*
X32333410Y-44377798D01*
X32329359Y-44374598D01*
X32288053Y-44351796D01*
X32238084Y-44301364D01*
X32223312Y-44231921D01*
X32248428Y-44165516D01*
X32275780Y-44138909D01*
X32330586Y-44099816D01*
X32454860Y-44011173D01*
X32613096Y-43853489D01*
X32652620Y-43798485D01*
X32713177Y-43714211D01*
X32769172Y-43670563D01*
X32839875Y-43664117D01*
X32902840Y-43696920D01*
X32938074Y-43758556D01*
X32941500Y-43787737D01*
X32941500Y-44011800D01*
X32940422Y-44028243D01*
X32936250Y-44059936D01*
X32941500Y-44099816D01*
X32941500Y-44099821D01*
X32953645Y-44192069D01*
X32957162Y-44218787D01*
X32960321Y-44226413D01*
X32960321Y-44226414D01*
X32966627Y-44241638D01*
X33018476Y-44366812D01*
X33023503Y-44373363D01*
X33023504Y-44373365D01*
X33091520Y-44462005D01*
X33091526Y-44462011D01*
X33116013Y-44493923D01*
X33122568Y-44498953D01*
X33141379Y-44513388D01*
X33153770Y-44524255D01*
X34179595Y-45550080D01*
X34213621Y-45612392D01*
X34216500Y-45639175D01*
X34216500Y-46144710D01*
X34196498Y-46212831D01*
X34184136Y-46229020D01*
X34127683Y-46291718D01*
X34085960Y-46338056D01*
X34047855Y-46404055D01*
X34003991Y-46480031D01*
X33990473Y-46503444D01*
X33931458Y-46685072D01*
X33930768Y-46691633D01*
X33930768Y-46691635D01*
X33921309Y-46781638D01*
X33911496Y-46875000D01*
X33912186Y-46881565D01*
X33930210Y-47053051D01*
X33931458Y-47064928D01*
X33990473Y-47246556D01*
X34085960Y-47411944D01*
X34114266Y-47443381D01*
X34144982Y-47507387D01*
X34146628Y-47527689D01*
X34146628Y-55281992D01*
X34145550Y-55298435D01*
X34141378Y-55330128D01*
X34146628Y-55370008D01*
X34146628Y-55370013D01*
X34152962Y-55418124D01*
X34162290Y-55488979D01*
X34165450Y-55496608D01*
X34211859Y-55608648D01*
X34222539Y-55634432D01*
X34223604Y-55637004D01*
X34223127Y-55637201D01*
X34238247Y-55708337D01*
X34236496Y-55725000D01*
X34237186Y-55731565D01*
X34254640Y-55897626D01*
X34256458Y-55914928D01*
X34315473Y-56096556D01*
X34318776Y-56102278D01*
X34318777Y-56102279D01*
X34334743Y-56129932D01*
X34410960Y-56261944D01*
X34415378Y-56266851D01*
X34415379Y-56266852D01*
X34507334Y-56368978D01*
X34538747Y-56403866D01*
X34585028Y-56437491D01*
X34686606Y-56511292D01*
X34693248Y-56516118D01*
X34699276Y-56518802D01*
X34699278Y-56518803D01*
X34830809Y-56577364D01*
X34867712Y-56593794D01*
X34956610Y-56612690D01*
X35048056Y-56632128D01*
X35048061Y-56632128D01*
X35054513Y-56633500D01*
X35245487Y-56633500D01*
X35251939Y-56632128D01*
X35251944Y-56632128D01*
X35343390Y-56612690D01*
X35432288Y-56593794D01*
X35469191Y-56577364D01*
X35600722Y-56518803D01*
X35600724Y-56518802D01*
X35606752Y-56516118D01*
X35613395Y-56511292D01*
X35714972Y-56437491D01*
X35761253Y-56403866D01*
X35792666Y-56368978D01*
X35884621Y-56266852D01*
X35884622Y-56266851D01*
X35889040Y-56261944D01*
X35965257Y-56129932D01*
X35981223Y-56102279D01*
X35981224Y-56102278D01*
X35984527Y-56096556D01*
X36043542Y-55914928D01*
X36045361Y-55897626D01*
X36056626Y-55790447D01*
X37522000Y-55790447D01*
X37522323Y-55796822D01*
X37536082Y-55932277D01*
X37538636Y-55944717D01*
X37593016Y-56118244D01*
X37598025Y-56129932D01*
X37686187Y-56288979D01*
X37693438Y-56299412D01*
X37811785Y-56437491D01*
X37820976Y-56446244D01*
X37964680Y-56557711D01*
X37975440Y-56564435D01*
X38138625Y-56644732D01*
X38150519Y-56649155D01*
X38208470Y-56664251D01*
X38222564Y-56663817D01*
X38226000Y-56655636D01*
X38226000Y-56654229D01*
X38734000Y-56654229D01*
X38737973Y-56667760D01*
X38744075Y-56668637D01*
X38896136Y-56612690D01*
X38907549Y-56607123D01*
X39062108Y-56511292D01*
X39072174Y-56503540D01*
X39204303Y-56378592D01*
X39212601Y-56368978D01*
X39230633Y-56343226D01*
X39286090Y-56298898D01*
X39356709Y-56291589D01*
X39402099Y-56309585D01*
X39548238Y-56403765D01*
X39554858Y-56406174D01*
X39554861Y-56406176D01*
X39664947Y-56446244D01*
X39718685Y-56465803D01*
X39858769Y-56483500D01*
X39955610Y-56483500D01*
X40090255Y-56468397D01*
X40153870Y-56446244D01*
X40254894Y-56411064D01*
X40254897Y-56411062D01*
X40261552Y-56408745D01*
X40269522Y-56403765D01*
X40409402Y-56316359D01*
X40415376Y-56312626D01*
X40429200Y-56298898D01*
X40539085Y-56189778D01*
X40539088Y-56189774D01*
X40544082Y-56184815D01*
X40641273Y-56031666D01*
X40672234Y-55944717D01*
X40699757Y-55867425D01*
X40699758Y-55867420D01*
X40702119Y-55860790D01*
X40709581Y-55798218D01*
X40720298Y-55708337D01*
X40723596Y-55680680D01*
X40722402Y-55669320D01*
X44876404Y-55669320D01*
X44877140Y-55676323D01*
X44877140Y-55676324D01*
X44883109Y-55733109D01*
X44895364Y-55849712D01*
X44953818Y-56021421D01*
X45048862Y-56175912D01*
X45053793Y-56180947D01*
X45053795Y-56180950D01*
X45160781Y-56290200D01*
X45175771Y-56305507D01*
X45328238Y-56403765D01*
X45334858Y-56406174D01*
X45334861Y-56406176D01*
X45444947Y-56446244D01*
X45498685Y-56465803D01*
X45638769Y-56483500D01*
X45735610Y-56483500D01*
X45870255Y-56468397D01*
X45933870Y-56446244D01*
X46034894Y-56411064D01*
X46034897Y-56411062D01*
X46041552Y-56408745D01*
X46055634Y-56399946D01*
X46195376Y-56312626D01*
X46196148Y-56313862D01*
X46254612Y-56290200D01*
X46324376Y-56303374D01*
X46362729Y-56333587D01*
X46451785Y-56437490D01*
X46460976Y-56446244D01*
X46604680Y-56557711D01*
X46615440Y-56564435D01*
X46778625Y-56644732D01*
X46790519Y-56649155D01*
X46848470Y-56664251D01*
X46862564Y-56663817D01*
X46866000Y-56655636D01*
X46866000Y-53735771D01*
X46862027Y-53722240D01*
X46855925Y-53721363D01*
X46703864Y-53777310D01*
X46692451Y-53782877D01*
X46537892Y-53878708D01*
X46527826Y-53886460D01*
X46395697Y-54011408D01*
X46387395Y-54021026D01*
X46283092Y-54169987D01*
X46276892Y-54181081D01*
X46204668Y-54347980D01*
X46200829Y-54360083D01*
X46163325Y-54539600D01*
X46162085Y-54549152D01*
X46162000Y-54552384D01*
X46162000Y-54806412D01*
X46141998Y-54874533D01*
X46088342Y-54921026D01*
X46018068Y-54931130D01*
X45992908Y-54924814D01*
X45881315Y-54884197D01*
X45741231Y-54866500D01*
X45644390Y-54866500D01*
X45509745Y-54881603D01*
X45503092Y-54883920D01*
X45503091Y-54883920D01*
X45345106Y-54938936D01*
X45345103Y-54938938D01*
X45338448Y-54941255D01*
X45332469Y-54944991D01*
X45324367Y-54950054D01*
X45184624Y-55037374D01*
X45179628Y-55042335D01*
X45179627Y-55042336D01*
X45060915Y-55160222D01*
X45060912Y-55160226D01*
X45055918Y-55165185D01*
X45052144Y-55171131D01*
X45052143Y-55171133D01*
X45037775Y-55193774D01*
X44958727Y-55318334D01*
X44956362Y-55324976D01*
X44900243Y-55482575D01*
X44900242Y-55482580D01*
X44897881Y-55489210D01*
X44897048Y-55496198D01*
X44897047Y-55496201D01*
X44885675Y-55591571D01*
X44876404Y-55669320D01*
X40722402Y-55669320D01*
X40705372Y-55507288D01*
X40705371Y-55507286D01*
X40704636Y-55500288D01*
X40646182Y-55328579D01*
X40607750Y-55266109D01*
X40554834Y-55180095D01*
X40554832Y-55180092D01*
X40551138Y-55174088D01*
X40546207Y-55169053D01*
X40546205Y-55169050D01*
X40429157Y-55049525D01*
X40429156Y-55049524D01*
X40424229Y-55044493D01*
X40271762Y-54946235D01*
X40265142Y-54943826D01*
X40265139Y-54943824D01*
X40107934Y-54886606D01*
X40107933Y-54886606D01*
X40101315Y-54884197D01*
X39961231Y-54866500D01*
X39864390Y-54866500D01*
X39729745Y-54881603D01*
X39605436Y-54924892D01*
X39534528Y-54928406D01*
X39472975Y-54893025D01*
X39440323Y-54829983D01*
X39438000Y-54805901D01*
X39438000Y-54599553D01*
X39437677Y-54593178D01*
X39423918Y-54457723D01*
X39421364Y-54445283D01*
X39366984Y-54271756D01*
X39361975Y-54260068D01*
X39273813Y-54101021D01*
X39266562Y-54090588D01*
X39148215Y-53952509D01*
X39139024Y-53943756D01*
X38995320Y-53832289D01*
X38984560Y-53825565D01*
X38821375Y-53745268D01*
X38809481Y-53740845D01*
X38751530Y-53725749D01*
X38737436Y-53726183D01*
X38734000Y-53734364D01*
X38734000Y-56654229D01*
X38226000Y-56654229D01*
X38226000Y-55467115D01*
X38221525Y-55451876D01*
X38220135Y-55450671D01*
X38212452Y-55449000D01*
X37540115Y-55449000D01*
X37524876Y-55453475D01*
X37523671Y-55454865D01*
X37522000Y-55462548D01*
X37522000Y-55790447D01*
X36056626Y-55790447D01*
X36062814Y-55731565D01*
X36063504Y-55725000D01*
X36043542Y-55535072D01*
X35984527Y-55353444D01*
X35975794Y-55338317D01*
X35907139Y-55219405D01*
X35889040Y-55188056D01*
X35873803Y-55171133D01*
X35765675Y-55051045D01*
X35765674Y-55051044D01*
X35761253Y-55046134D01*
X35629011Y-54950054D01*
X35612094Y-54937763D01*
X35612093Y-54937762D01*
X35606752Y-54933882D01*
X35600724Y-54931198D01*
X35600722Y-54931197D01*
X35582053Y-54922885D01*
X37522000Y-54922885D01*
X37526475Y-54938124D01*
X37527865Y-54939329D01*
X37535548Y-54941000D01*
X38207885Y-54941000D01*
X38223124Y-54936525D01*
X38224329Y-54935135D01*
X38226000Y-54927452D01*
X38226000Y-53735771D01*
X38222027Y-53722240D01*
X38215925Y-53721363D01*
X38063864Y-53777310D01*
X38052451Y-53782877D01*
X37897892Y-53878708D01*
X37887826Y-53886460D01*
X37821182Y-53949482D01*
X37812522Y-53953902D01*
X37799245Y-53970228D01*
X37755692Y-54011414D01*
X37747395Y-54021026D01*
X37643092Y-54169987D01*
X37636892Y-54181081D01*
X37564668Y-54347980D01*
X37560829Y-54360083D01*
X37523325Y-54539600D01*
X37522085Y-54549152D01*
X37522000Y-54552384D01*
X37522000Y-54922885D01*
X35582053Y-54922885D01*
X35456525Y-54866997D01*
X35438379Y-54858918D01*
X35384284Y-54812938D01*
X35363628Y-54743811D01*
X35363628Y-47670831D01*
X35383630Y-47602710D01*
X35415567Y-47568896D01*
X35436253Y-47553866D01*
X35459823Y-47527689D01*
X35559621Y-47416852D01*
X35559622Y-47416851D01*
X35564040Y-47411944D01*
X35659527Y-47246556D01*
X35718542Y-47064928D01*
X35719791Y-47053051D01*
X35737814Y-46881565D01*
X35738504Y-46875000D01*
X35728691Y-46781638D01*
X35719232Y-46691635D01*
X35719232Y-46691633D01*
X35718542Y-46685072D01*
X35659527Y-46503444D01*
X35646010Y-46480031D01*
X35602145Y-46404055D01*
X35564040Y-46338056D01*
X35522317Y-46291718D01*
X35465864Y-46229020D01*
X35435146Y-46165013D01*
X35433500Y-46144710D01*
X35433500Y-45383072D01*
X35434578Y-45366626D01*
X35437672Y-45343124D01*
X35438750Y-45334936D01*
X35433500Y-45295058D01*
X35433500Y-45295051D01*
X35417838Y-45176086D01*
X35374187Y-45070702D01*
X35356524Y-45028061D01*
X35357719Y-45027566D01*
X35342958Y-44966712D01*
X35366180Y-44899620D01*
X35375179Y-44888400D01*
X35484621Y-44766852D01*
X35484622Y-44766851D01*
X35489040Y-44761944D01*
X35559311Y-44640231D01*
X35581223Y-44602279D01*
X35581224Y-44602278D01*
X35584527Y-44596556D01*
X35643542Y-44414928D01*
X35647911Y-44373365D01*
X35662814Y-44231565D01*
X35663504Y-44225000D01*
X35656264Y-44156114D01*
X35644232Y-44041635D01*
X35644232Y-44041633D01*
X35643542Y-44035072D01*
X35584527Y-43853444D01*
X35572226Y-43832137D01*
X35522314Y-43745689D01*
X35489040Y-43688056D01*
X35415863Y-43606785D01*
X35385147Y-43542779D01*
X35383500Y-43522476D01*
X35383500Y-42564594D01*
X35403502Y-42496473D01*
X35420405Y-42475499D01*
X35581469Y-42314435D01*
X35643781Y-42280409D01*
X35696761Y-42280283D01*
X35823056Y-42307128D01*
X35823061Y-42307128D01*
X35829513Y-42308500D01*
X36020487Y-42308500D01*
X36026939Y-42307128D01*
X36026944Y-42307128D01*
X36113887Y-42288647D01*
X36207288Y-42268794D01*
X36218083Y-42263988D01*
X36375722Y-42193803D01*
X36375724Y-42193802D01*
X36381752Y-42191118D01*
X36488997Y-42113200D01*
X36530914Y-42082745D01*
X36536253Y-42078866D01*
X36562074Y-42050189D01*
X36622520Y-42012950D01*
X36655710Y-42008500D01*
X37170761Y-42008500D01*
X37238882Y-42028502D01*
G37*
%TD.AperFunction*%
%TA.AperFunction,Conductor*%
G36*
X45585748Y-48554563D02*
G01*
X45617712Y-48568794D01*
X45704658Y-48587275D01*
X45798056Y-48607128D01*
X45798061Y-48607128D01*
X45804513Y-48608500D01*
X45895761Y-48608500D01*
X45963882Y-48628502D01*
X45984856Y-48645405D01*
X46135685Y-48796234D01*
X46146552Y-48808625D01*
X46166013Y-48833987D01*
X46172563Y-48839013D01*
X46197925Y-48858474D01*
X46197928Y-48858477D01*
X46267318Y-48911722D01*
X46286570Y-48926495D01*
X46286574Y-48926497D01*
X46293125Y-48931524D01*
X46441150Y-48992838D01*
X46449338Y-48993916D01*
X46468134Y-48996390D01*
X46560115Y-49008500D01*
X46560120Y-49008500D01*
X46560129Y-49008501D01*
X46591812Y-49012672D01*
X46600000Y-49013750D01*
X46631693Y-49009578D01*
X46648136Y-49008500D01*
X47697692Y-49008500D01*
X47765813Y-49028502D01*
X47812306Y-49082158D01*
X47822410Y-49152432D01*
X47792916Y-49217012D01*
X47789184Y-49220817D01*
X47788747Y-49221134D01*
X47719603Y-49297926D01*
X47666695Y-49356687D01*
X47660960Y-49363056D01*
X47565473Y-49528444D01*
X47506458Y-49710072D01*
X47505768Y-49716633D01*
X47505768Y-49716635D01*
X47490891Y-49858186D01*
X47486496Y-49900000D01*
X47487186Y-49906565D01*
X47495105Y-49981906D01*
X47506458Y-50089928D01*
X47565473Y-50271556D01*
X47660960Y-50436944D01*
X47665378Y-50441851D01*
X47665379Y-50441852D01*
X47759136Y-50545980D01*
X47789854Y-50609987D01*
X47791500Y-50630290D01*
X47791500Y-51323793D01*
X47771498Y-51391914D01*
X47717842Y-51438407D01*
X47647568Y-51448511D01*
X47582988Y-51419017D01*
X47545667Y-51362730D01*
X47536568Y-51334726D01*
X47534527Y-51328444D01*
X47528142Y-51317384D01*
X47463035Y-51204616D01*
X47439040Y-51163056D01*
X47424428Y-51146827D01*
X47315675Y-51026045D01*
X47315674Y-51026044D01*
X47311253Y-51021134D01*
X47156752Y-50908882D01*
X47150724Y-50906198D01*
X47150722Y-50906197D01*
X46988319Y-50833891D01*
X46988318Y-50833891D01*
X46982288Y-50831206D01*
X46888887Y-50811353D01*
X46801944Y-50792872D01*
X46801939Y-50792872D01*
X46795487Y-50791500D01*
X46604513Y-50791500D01*
X46598061Y-50792872D01*
X46598056Y-50792872D01*
X46511112Y-50811353D01*
X46417712Y-50831206D01*
X46411682Y-50833891D01*
X46411681Y-50833891D01*
X46249278Y-50906197D01*
X46249276Y-50906198D01*
X46243248Y-50908882D01*
X46088747Y-51021134D01*
X46084326Y-51026044D01*
X46084325Y-51026045D01*
X45975573Y-51146827D01*
X45960960Y-51163056D01*
X45936965Y-51204616D01*
X45871859Y-51317384D01*
X45865473Y-51328444D01*
X45806458Y-51510072D01*
X45805768Y-51516633D01*
X45805768Y-51516635D01*
X45800449Y-51567240D01*
X45786496Y-51700000D01*
X45786684Y-51701786D01*
X45767184Y-51768196D01*
X45750281Y-51789170D01*
X45684856Y-51854595D01*
X45622544Y-51888621D01*
X45595761Y-51891500D01*
X44773239Y-51891500D01*
X44705118Y-51871498D01*
X44658625Y-51817842D01*
X44648521Y-51747568D01*
X44678015Y-51682988D01*
X44684144Y-51676405D01*
X45496234Y-50864315D01*
X45508625Y-50853448D01*
X45527437Y-50839013D01*
X45533987Y-50833987D01*
X45558474Y-50802075D01*
X45558480Y-50802069D01*
X45626496Y-50713429D01*
X45626497Y-50713427D01*
X45631524Y-50706876D01*
X45692838Y-50558851D01*
X45694533Y-50545980D01*
X45701755Y-50491118D01*
X45708500Y-50439885D01*
X45708500Y-50439880D01*
X45712672Y-50408189D01*
X45713750Y-50400000D01*
X45709578Y-50368307D01*
X45708500Y-50351864D01*
X45708500Y-49858186D01*
X45709578Y-49841740D01*
X45712672Y-49818238D01*
X45713750Y-49810050D01*
X45708500Y-49770170D01*
X45708500Y-49770165D01*
X45701453Y-49716635D01*
X45693916Y-49659386D01*
X45693915Y-49659384D01*
X45692838Y-49651200D01*
X45690117Y-49644630D01*
X45631524Y-49503174D01*
X45623813Y-49493124D01*
X45558483Y-49407986D01*
X45558477Y-49407978D01*
X45558474Y-49407975D01*
X45533987Y-49376063D01*
X45520890Y-49366013D01*
X45508621Y-49356598D01*
X45496230Y-49345731D01*
X45445405Y-49294906D01*
X45411379Y-49232594D01*
X45408500Y-49205811D01*
X45408500Y-48669670D01*
X45428502Y-48601549D01*
X45482158Y-48555056D01*
X45552432Y-48544952D01*
X45585748Y-48554563D01*
G37*
%TD.AperFunction*%
%TA.AperFunction,Conductor*%
G36*
X48375833Y-32697876D02*
G01*
X54372383Y-32698619D01*
X54440500Y-32718629D01*
X54486986Y-32772291D01*
X54498366Y-32824737D01*
X54497333Y-33923164D01*
X54477267Y-33991266D01*
X54423567Y-34037709D01*
X54353284Y-34047747D01*
X54310823Y-34033566D01*
X54303892Y-34029771D01*
X54296705Y-34024385D01*
X54160316Y-33973255D01*
X54098134Y-33966500D01*
X52301866Y-33966500D01*
X52239684Y-33973255D01*
X52103295Y-34024385D01*
X51986739Y-34111739D01*
X51899385Y-34228295D01*
X51848255Y-34364684D01*
X51841500Y-34426866D01*
X51841500Y-36223134D01*
X51848255Y-36285316D01*
X51899385Y-36421705D01*
X51986739Y-36538261D01*
X52103295Y-36625615D01*
X52111704Y-36628767D01*
X52111705Y-36628768D01*
X52220451Y-36669535D01*
X52277216Y-36712176D01*
X52301916Y-36778738D01*
X52286709Y-36848087D01*
X52267316Y-36874568D01*
X52140629Y-37007138D01*
X52137715Y-37011410D01*
X52137714Y-37011411D01*
X52126332Y-37028096D01*
X52014743Y-37191680D01*
X51972285Y-37283148D01*
X51937412Y-37358277D01*
X51920688Y-37394305D01*
X51860989Y-37609570D01*
X51837251Y-37831695D01*
X51837548Y-37836848D01*
X51837548Y-37836851D01*
X51847816Y-38014928D01*
X51850110Y-38054715D01*
X51851247Y-38059761D01*
X51851248Y-38059767D01*
X51855744Y-38079715D01*
X51899222Y-38272639D01*
X51955001Y-38410006D01*
X51967916Y-38441812D01*
X51983266Y-38479616D01*
X52099987Y-38670088D01*
X52246250Y-38838938D01*
X52418126Y-38981632D01*
X52455253Y-39003327D01*
X52491445Y-39024476D01*
X52540169Y-39076114D01*
X52553240Y-39145897D01*
X52526509Y-39211669D01*
X52486055Y-39245027D01*
X52473607Y-39251507D01*
X52469474Y-39254610D01*
X52469471Y-39254612D01*
X52299100Y-39382530D01*
X52294965Y-39385635D01*
X52140629Y-39547138D01*
X52014743Y-39731680D01*
X51967716Y-39832992D01*
X51937412Y-39898277D01*
X51920688Y-39934305D01*
X51860989Y-40149570D01*
X51837251Y-40371695D01*
X51837548Y-40376848D01*
X51837548Y-40376851D01*
X51838692Y-40396695D01*
X51850110Y-40594715D01*
X51851247Y-40599761D01*
X51851248Y-40599767D01*
X51858960Y-40633987D01*
X51899222Y-40812639D01*
X51916114Y-40854239D01*
X51971799Y-40991375D01*
X51983266Y-41019616D01*
X51995651Y-41039826D01*
X52078002Y-41174211D01*
X52099987Y-41210088D01*
X52246250Y-41378938D01*
X52418126Y-41521632D01*
X52440539Y-41534729D01*
X52491445Y-41564476D01*
X52540169Y-41616114D01*
X52553240Y-41685897D01*
X52526509Y-41751669D01*
X52486055Y-41785027D01*
X52473607Y-41791507D01*
X52469474Y-41794610D01*
X52469471Y-41794612D01*
X52299100Y-41922530D01*
X52294965Y-41925635D01*
X52269894Y-41951870D01*
X52144235Y-42083365D01*
X52140629Y-42087138D01*
X52014743Y-42271680D01*
X51975982Y-42355183D01*
X51937412Y-42438277D01*
X51920688Y-42474305D01*
X51860989Y-42689570D01*
X51837251Y-42911695D01*
X51850110Y-43134715D01*
X51851247Y-43139761D01*
X51851248Y-43139767D01*
X51855744Y-43159715D01*
X51899222Y-43352639D01*
X51983266Y-43559616D01*
X51985965Y-43564020D01*
X52078002Y-43714211D01*
X52099987Y-43750088D01*
X52246250Y-43918938D01*
X52418126Y-44061632D01*
X52455253Y-44083327D01*
X52491445Y-44104476D01*
X52540169Y-44156114D01*
X52553240Y-44225897D01*
X52526509Y-44291669D01*
X52486055Y-44325027D01*
X52473607Y-44331507D01*
X52469474Y-44334610D01*
X52469471Y-44334612D01*
X52299100Y-44462530D01*
X52294965Y-44465635D01*
X52140629Y-44627138D01*
X52137715Y-44631410D01*
X52137714Y-44631411D01*
X52126124Y-44648401D01*
X52014743Y-44811680D01*
X51979131Y-44888400D01*
X51937412Y-44978277D01*
X51920688Y-45014305D01*
X51860989Y-45229570D01*
X51837251Y-45451695D01*
X51837548Y-45456848D01*
X51837548Y-45456851D01*
X51848061Y-45639175D01*
X51850110Y-45674715D01*
X51851247Y-45679761D01*
X51851248Y-45679767D01*
X51870528Y-45765316D01*
X51899222Y-45892639D01*
X51983266Y-46099616D01*
X51985965Y-46104020D01*
X52062565Y-46229020D01*
X52099987Y-46290088D01*
X52246250Y-46458938D01*
X52418126Y-46601632D01*
X52444855Y-46617251D01*
X52491445Y-46644476D01*
X52540169Y-46696114D01*
X52553240Y-46765897D01*
X52526509Y-46831669D01*
X52486055Y-46865027D01*
X52473607Y-46871507D01*
X52469474Y-46874610D01*
X52469471Y-46874612D01*
X52312933Y-46992144D01*
X52294965Y-47005635D01*
X52140629Y-47167138D01*
X52137715Y-47171410D01*
X52137714Y-47171411D01*
X52105744Y-47218277D01*
X52014743Y-47351680D01*
X51984494Y-47416846D01*
X51933043Y-47527689D01*
X51920688Y-47554305D01*
X51860989Y-47769570D01*
X51837251Y-47991695D01*
X51837548Y-47996848D01*
X51837548Y-47996851D01*
X51848302Y-48183365D01*
X51850110Y-48214715D01*
X51851247Y-48219761D01*
X51851248Y-48219767D01*
X51855744Y-48239715D01*
X51899222Y-48432639D01*
X51983266Y-48639616D01*
X51987988Y-48647321D01*
X52086835Y-48808625D01*
X52099987Y-48830088D01*
X52246250Y-48998938D01*
X52418126Y-49141632D01*
X52464064Y-49168476D01*
X52491955Y-49184774D01*
X52540679Y-49236412D01*
X52553750Y-49306195D01*
X52527019Y-49371967D01*
X52486562Y-49405327D01*
X52478457Y-49409546D01*
X52469738Y-49415036D01*
X52299433Y-49542905D01*
X52291726Y-49549748D01*
X52144590Y-49703717D01*
X52138104Y-49711727D01*
X52018098Y-49887649D01*
X52013000Y-49896623D01*
X51948788Y-50034956D01*
X51901964Y-50088323D01*
X51833721Y-50107904D01*
X51765725Y-50087481D01*
X51719565Y-50033538D01*
X51708500Y-49981906D01*
X51708500Y-49848136D01*
X51709578Y-49831690D01*
X51712672Y-49808188D01*
X51713750Y-49800000D01*
X51708500Y-49760120D01*
X51708500Y-49760115D01*
X51702776Y-49716635D01*
X51694891Y-49656741D01*
X51694890Y-49656739D01*
X51692838Y-49641150D01*
X51692838Y-49641149D01*
X51631524Y-49493124D01*
X51590463Y-49439612D01*
X51574749Y-49419134D01*
X51558477Y-49397928D01*
X51558474Y-49397925D01*
X51533987Y-49366013D01*
X51524024Y-49358368D01*
X51508621Y-49346548D01*
X51496230Y-49335681D01*
X50164315Y-48003766D01*
X50153448Y-47991375D01*
X50139013Y-47972563D01*
X50133987Y-47966013D01*
X50102075Y-47941526D01*
X50102072Y-47941523D01*
X50006876Y-47868476D01*
X49858851Y-47807162D01*
X49850664Y-47806084D01*
X49850663Y-47806084D01*
X49839458Y-47804609D01*
X49808262Y-47800502D01*
X49739885Y-47791500D01*
X49739882Y-47791500D01*
X49739874Y-47791499D01*
X49708189Y-47787328D01*
X49700000Y-47786250D01*
X49668307Y-47790422D01*
X49651864Y-47791500D01*
X49561347Y-47791500D01*
X49493226Y-47771498D01*
X49446733Y-47717842D01*
X49436629Y-47647568D01*
X49452228Y-47602500D01*
X49481223Y-47552279D01*
X49481224Y-47552278D01*
X49484527Y-47546556D01*
X49543542Y-47364928D01*
X49544935Y-47351680D01*
X49562814Y-47181565D01*
X49563504Y-47175000D01*
X49563316Y-47173214D01*
X49582816Y-47106804D01*
X49599719Y-47085830D01*
X51096234Y-45589315D01*
X51108625Y-45578448D01*
X51127437Y-45564013D01*
X51133987Y-45558987D01*
X51158474Y-45527075D01*
X51158478Y-45527071D01*
X51231524Y-45431876D01*
X51292838Y-45283851D01*
X51296693Y-45254570D01*
X51308500Y-45164885D01*
X51308500Y-45164880D01*
X51313750Y-45125000D01*
X51309578Y-45093307D01*
X51308500Y-45076864D01*
X51308500Y-42630290D01*
X51328502Y-42562169D01*
X51340864Y-42545980D01*
X51434621Y-42441852D01*
X51434622Y-42441851D01*
X51439040Y-42436944D01*
X51513197Y-42308500D01*
X51531223Y-42277279D01*
X51531224Y-42277278D01*
X51534527Y-42271556D01*
X51593542Y-42089928D01*
X51608509Y-41947530D01*
X51612814Y-41906565D01*
X51613504Y-41900000D01*
X51604048Y-41810027D01*
X51594232Y-41716635D01*
X51594232Y-41716633D01*
X51593542Y-41710072D01*
X51534527Y-41528444D01*
X51439040Y-41363056D01*
X51397695Y-41317137D01*
X51315675Y-41226045D01*
X51315674Y-41226044D01*
X51311253Y-41221134D01*
X51156752Y-41108882D01*
X51150724Y-41106198D01*
X51150722Y-41106197D01*
X50988319Y-41033891D01*
X50988318Y-41033891D01*
X50982288Y-41031206D01*
X50888888Y-41011353D01*
X50801944Y-40992872D01*
X50801939Y-40992872D01*
X50795487Y-40991500D01*
X50604513Y-40991500D01*
X50598061Y-40992872D01*
X50598056Y-40992872D01*
X50511112Y-41011353D01*
X50417712Y-41031206D01*
X50411685Y-41033889D01*
X50411677Y-41033892D01*
X50285748Y-41089959D01*
X50215381Y-41099393D01*
X50151084Y-41069286D01*
X50113271Y-41009197D01*
X50108500Y-40974852D01*
X50108500Y-39348143D01*
X50109578Y-39331697D01*
X50112673Y-39308188D01*
X50113751Y-39300000D01*
X50092838Y-39141150D01*
X50031524Y-38993125D01*
X49933987Y-38866013D01*
X49902070Y-38841522D01*
X49829028Y-38785474D01*
X49813429Y-38773504D01*
X49813427Y-38773503D01*
X49806876Y-38768476D01*
X49732863Y-38737819D01*
X49666480Y-38710322D01*
X49666477Y-38710321D01*
X49658850Y-38707162D01*
X49596778Y-38698990D01*
X49508188Y-38687327D01*
X49500000Y-38686249D01*
X49491812Y-38687327D01*
X49468303Y-38690422D01*
X49451857Y-38691500D01*
X48548144Y-38691500D01*
X48531698Y-38690422D01*
X48508188Y-38687327D01*
X48500000Y-38686249D01*
X48341149Y-38707162D01*
X48193124Y-38768476D01*
X48170972Y-38785474D01*
X48097937Y-38841515D01*
X48097921Y-38841529D01*
X48072566Y-38860984D01*
X48072563Y-38860987D01*
X48066013Y-38866013D01*
X48060983Y-38872568D01*
X48046548Y-38891379D01*
X48035681Y-38903770D01*
X42484856Y-44454595D01*
X42422544Y-44488621D01*
X42395761Y-44491500D01*
X41479239Y-44491500D01*
X41411118Y-44471498D01*
X41390144Y-44454595D01*
X37939315Y-41003766D01*
X37928448Y-40991375D01*
X37914013Y-40972563D01*
X37908987Y-40966013D01*
X37877075Y-40941526D01*
X37877072Y-40941523D01*
X37864415Y-40931811D01*
X37788429Y-40873504D01*
X37788427Y-40873503D01*
X37781876Y-40868476D01*
X37633851Y-40807162D01*
X37625664Y-40806084D01*
X37625663Y-40806084D01*
X37614458Y-40804609D01*
X37583262Y-40800502D01*
X37514885Y-40791500D01*
X37514882Y-40791500D01*
X37514874Y-40791499D01*
X37483189Y-40787328D01*
X37475000Y-40786250D01*
X37443307Y-40790422D01*
X37426864Y-40791500D01*
X36655710Y-40791500D01*
X36587589Y-40771498D01*
X36562074Y-40749811D01*
X36540668Y-40726037D01*
X36540666Y-40726036D01*
X36536253Y-40721134D01*
X36419424Y-40636252D01*
X36393523Y-40611020D01*
X36383488Y-40597942D01*
X36383478Y-40597929D01*
X36383474Y-40597925D01*
X36358987Y-40566013D01*
X36338119Y-40550000D01*
X36333621Y-40546548D01*
X36321230Y-40535681D01*
X35837144Y-40051595D01*
X35803118Y-39989283D01*
X35808183Y-39918468D01*
X35837144Y-39873405D01*
X36796234Y-38914315D01*
X36808625Y-38903448D01*
X36827437Y-38889013D01*
X36833987Y-38883987D01*
X36858474Y-38852075D01*
X36858480Y-38852069D01*
X36911722Y-38782682D01*
X36926495Y-38763430D01*
X36926497Y-38763426D01*
X36931524Y-38756875D01*
X36992838Y-38608850D01*
X37008500Y-38489885D01*
X37008500Y-38489878D01*
X37013750Y-38450000D01*
X37009578Y-38418307D01*
X37008500Y-38401864D01*
X37008500Y-36348136D01*
X37009578Y-36331690D01*
X37012672Y-36308188D01*
X37013750Y-36300000D01*
X37008500Y-36260122D01*
X37008500Y-36260115D01*
X36996414Y-36168310D01*
X36994128Y-36150946D01*
X37005068Y-36080797D01*
X37052196Y-36027699D01*
X37119050Y-36008500D01*
X40263428Y-36008500D01*
X40331549Y-36028502D01*
X40378042Y-36082158D01*
X40388738Y-36121330D01*
X40405148Y-36277460D01*
X40406458Y-36289928D01*
X40465473Y-36471556D01*
X40560960Y-36636944D01*
X40565378Y-36641851D01*
X40565379Y-36641852D01*
X40684325Y-36773955D01*
X40688747Y-36778866D01*
X40728354Y-36807642D01*
X40818431Y-36873087D01*
X40843248Y-36891118D01*
X40849276Y-36893802D01*
X40849278Y-36893803D01*
X40995469Y-36958891D01*
X41017712Y-36968794D01*
X41111112Y-36988647D01*
X41198056Y-37007128D01*
X41198061Y-37007128D01*
X41204513Y-37008500D01*
X41395487Y-37008500D01*
X41401939Y-37007128D01*
X41401944Y-37007128D01*
X41488888Y-36988647D01*
X41582288Y-36968794D01*
X41604531Y-36958891D01*
X41750722Y-36893803D01*
X41750724Y-36893802D01*
X41756752Y-36891118D01*
X41781570Y-36873087D01*
X41871646Y-36807642D01*
X41911253Y-36778866D01*
X41915675Y-36773955D01*
X42034621Y-36641852D01*
X42034622Y-36641851D01*
X42039040Y-36636944D01*
X42134527Y-36471556D01*
X42193542Y-36289928D01*
X42194853Y-36277460D01*
X42212814Y-36106565D01*
X42213504Y-36100000D01*
X42193542Y-35910072D01*
X42134527Y-35728444D01*
X42039040Y-35563056D01*
X41911253Y-35421134D01*
X41756752Y-35308882D01*
X41750724Y-35306198D01*
X41750722Y-35306197D01*
X41588319Y-35233891D01*
X41588318Y-35233891D01*
X41582288Y-35231206D01*
X41488887Y-35211353D01*
X41401944Y-35192872D01*
X41401939Y-35192872D01*
X41395487Y-35191500D01*
X41304239Y-35191500D01*
X41236118Y-35171498D01*
X41215144Y-35154595D01*
X41064315Y-35003766D01*
X41053448Y-34991375D01*
X41039013Y-34972563D01*
X41033987Y-34966013D01*
X41002075Y-34941526D01*
X41002072Y-34941523D01*
X40906876Y-34868476D01*
X40758851Y-34807162D01*
X40750664Y-34806084D01*
X40750663Y-34806084D01*
X40739458Y-34804609D01*
X40708262Y-34800502D01*
X40639885Y-34791500D01*
X40639882Y-34791500D01*
X40639874Y-34791499D01*
X40608189Y-34787328D01*
X40600000Y-34786250D01*
X40568307Y-34790422D01*
X40551864Y-34791500D01*
X37331317Y-34791500D01*
X37263196Y-34771498D01*
X37216703Y-34717842D01*
X37206007Y-34678670D01*
X37194232Y-34566635D01*
X37194232Y-34566633D01*
X37193542Y-34560072D01*
X37134527Y-34378444D01*
X37039040Y-34213056D01*
X36911253Y-34071134D01*
X36756752Y-33958882D01*
X36750724Y-33956198D01*
X36750722Y-33956197D01*
X36588319Y-33883891D01*
X36588318Y-33883891D01*
X36582288Y-33881206D01*
X36488887Y-33861353D01*
X36401944Y-33842872D01*
X36401939Y-33842872D01*
X36395487Y-33841500D01*
X36204513Y-33841500D01*
X36198061Y-33842872D01*
X36198056Y-33842872D01*
X36111113Y-33861353D01*
X36017712Y-33881206D01*
X36011682Y-33883891D01*
X36011681Y-33883891D01*
X35849278Y-33956197D01*
X35849276Y-33956198D01*
X35843248Y-33958882D01*
X35688747Y-34071134D01*
X35560960Y-34213056D01*
X35465473Y-34378444D01*
X35406458Y-34560072D01*
X35386496Y-34750000D01*
X35387186Y-34756565D01*
X35388756Y-34771498D01*
X35406458Y-34939928D01*
X35465473Y-35121556D01*
X35560960Y-35286944D01*
X35565378Y-35291851D01*
X35565379Y-35291852D01*
X35659136Y-35395980D01*
X35689854Y-35459987D01*
X35691500Y-35480290D01*
X35691500Y-36151864D01*
X35690422Y-36168307D01*
X35686250Y-36200000D01*
X35691500Y-36239880D01*
X35691500Y-36239885D01*
X35704609Y-36339457D01*
X35707162Y-36358851D01*
X35768476Y-36506876D01*
X35773503Y-36513427D01*
X35774620Y-36515362D01*
X35791500Y-36578361D01*
X35791500Y-36790500D01*
X35771498Y-36858621D01*
X35717842Y-36905114D01*
X35665500Y-36916500D01*
X35579513Y-36916500D01*
X35573061Y-36917872D01*
X35573056Y-36917872D01*
X35486113Y-36936353D01*
X35392712Y-36956206D01*
X35386682Y-36958891D01*
X35386681Y-36958891D01*
X35224278Y-37031197D01*
X35224276Y-37031198D01*
X35218248Y-37033882D01*
X35063747Y-37146134D01*
X35059326Y-37151044D01*
X35059325Y-37151045D01*
X34969695Y-37250590D01*
X34935960Y-37288056D01*
X34932659Y-37293774D01*
X34848225Y-37440018D01*
X34840473Y-37453444D01*
X34781458Y-37635072D01*
X34761496Y-37825000D01*
X34762186Y-37831565D01*
X34775327Y-37956590D01*
X34781458Y-38014928D01*
X34840473Y-38196556D01*
X34860076Y-38230509D01*
X34866224Y-38241158D01*
X34882961Y-38310153D01*
X34859740Y-38377245D01*
X34846199Y-38393252D01*
X33153766Y-40085685D01*
X33141375Y-40096552D01*
X33116013Y-40116013D01*
X33109611Y-40124357D01*
X33108064Y-40125486D01*
X33105146Y-40128404D01*
X33104691Y-40127949D01*
X33052275Y-40166222D01*
X32981404Y-40170444D01*
X32919501Y-40135680D01*
X32887446Y-40078347D01*
X32866691Y-39995720D01*
X32865431Y-39990702D01*
X32776354Y-39785840D01*
X32655014Y-39598277D01*
X32504670Y-39433051D01*
X32500619Y-39429852D01*
X32500615Y-39429848D01*
X32333414Y-39297800D01*
X32333410Y-39297798D01*
X32329359Y-39294598D01*
X32288053Y-39271796D01*
X32238084Y-39221364D01*
X32223312Y-39151921D01*
X32248428Y-39085516D01*
X32275780Y-39058909D01*
X32324053Y-39024476D01*
X32454860Y-38931173D01*
X32477639Y-38908474D01*
X32609435Y-38777137D01*
X32613096Y-38773489D01*
X32630519Y-38749243D01*
X32740435Y-38596277D01*
X32743453Y-38592077D01*
X32771799Y-38534724D01*
X32840136Y-38396453D01*
X32840137Y-38396451D01*
X32842430Y-38391811D01*
X32907370Y-38178069D01*
X32936529Y-37956590D01*
X32938156Y-37890000D01*
X32919852Y-37667361D01*
X32865431Y-37450702D01*
X32776354Y-37245840D01*
X32655014Y-37058277D01*
X32651532Y-37054450D01*
X32507798Y-36896488D01*
X32476746Y-36832642D01*
X32485141Y-36762143D01*
X32530317Y-36707375D01*
X32556761Y-36693706D01*
X32663297Y-36653767D01*
X32671705Y-36650615D01*
X32788261Y-36563261D01*
X32875615Y-36446705D01*
X32926745Y-36310316D01*
X32933500Y-36248134D01*
X32933500Y-34451866D01*
X32926745Y-34389684D01*
X32875615Y-34253295D01*
X32788261Y-34136739D01*
X32671705Y-34049385D01*
X32535316Y-33998255D01*
X32473134Y-33991500D01*
X30676866Y-33991500D01*
X30614684Y-33998255D01*
X30478295Y-34049385D01*
X30361739Y-34136739D01*
X30356358Y-34143919D01*
X30335326Y-34171982D01*
X30278467Y-34214497D01*
X30207649Y-34219523D01*
X30145355Y-34185463D01*
X30111365Y-34123132D01*
X30108500Y-34096417D01*
X30108500Y-32821628D01*
X30128502Y-32753507D01*
X30182158Y-32707014D01*
X30234516Y-32695628D01*
X48375833Y-32697876D01*
G37*
%TD.AperFunction*%
%TA.AperFunction,Conductor*%
G36*
X48809532Y-42355183D02*
G01*
X48866368Y-42397730D01*
X48891179Y-42464250D01*
X48891500Y-42473239D01*
X48891500Y-44995761D01*
X48871498Y-45063882D01*
X48854595Y-45084856D01*
X48274827Y-45664624D01*
X48212515Y-45698650D01*
X48202183Y-45700450D01*
X48151199Y-45707162D01*
X48003174Y-45768476D01*
X47964608Y-45798069D01*
X47907987Y-45841515D01*
X47907971Y-45841529D01*
X47882616Y-45860984D01*
X47882613Y-45860987D01*
X47876063Y-45866013D01*
X47871033Y-45872568D01*
X47856598Y-45891379D01*
X47845731Y-45903770D01*
X47371838Y-46377663D01*
X47308941Y-46411814D01*
X47217712Y-46431206D01*
X47211682Y-46433891D01*
X47211681Y-46433891D01*
X47049278Y-46506197D01*
X47049276Y-46506198D01*
X47043248Y-46508882D01*
X47037907Y-46512762D01*
X47037906Y-46512763D01*
X47019449Y-46526173D01*
X46888747Y-46621134D01*
X46884326Y-46626044D01*
X46884325Y-46626045D01*
X46766596Y-46756797D01*
X46760960Y-46763056D01*
X46665473Y-46928444D01*
X46663431Y-46934728D01*
X46660747Y-46940757D01*
X46658096Y-46939577D01*
X46625229Y-46987704D01*
X46559848Y-47015378D01*
X46489884Y-47003312D01*
X46471352Y-46992144D01*
X46362094Y-46912763D01*
X46362093Y-46912762D01*
X46356752Y-46908882D01*
X46350724Y-46906198D01*
X46350722Y-46906197D01*
X46188319Y-46833891D01*
X46188318Y-46833891D01*
X46182288Y-46831206D01*
X46088887Y-46811353D01*
X46001944Y-46792872D01*
X46001939Y-46792872D01*
X45995487Y-46791500D01*
X45804513Y-46791500D01*
X45798061Y-46792872D01*
X45798056Y-46792872D01*
X45711113Y-46811353D01*
X45617712Y-46831206D01*
X45585748Y-46845437D01*
X45515382Y-46854871D01*
X45451085Y-46824765D01*
X45413272Y-46764676D01*
X45408500Y-46730330D01*
X45408500Y-45704239D01*
X45428502Y-45636118D01*
X45445405Y-45615144D01*
X48676405Y-42384144D01*
X48738717Y-42350118D01*
X48809532Y-42355183D01*
G37*
%TD.AperFunction*%
%TD*%
M02*
